<svg width="147" height="120" viewBox="0 0 147 120" fill="none" xmlns="http://www.w3.org/2000/svg">
<g clip-path="url(#clip0_1647_90027)">
<path d="M287.616 147.782C258.146 143.948 221.052 139.092 202.655 109.291C198.249 102.154 195.142 92.9114 196.551 84.0992C196.55 84.137 196.978 81.5744 196.872 82.1773C196.566 83.9786 196.233 83.14 197.028 82.1048C197.463 81.5387 197.865 80.9645 198.327 80.4217C200.809 77.4691 203.764 75.0856 206.926 73.1449C221.91 63.9239 238.968 66.4509 254.966 70.1817C271.586 74.0536 289.939 80.1381 306.574 72.8407C313.242 69.9115 318.566 64.5278 322.654 57.9926C327.271 50.6058 331.42 41.3418 331.792 32.1761C332.466 15.6508 318.981 7.16053 306.52 3.5761C289.985 -1.18645 272.247 -2.69857 255.221 -3.4251C237.125 -4.19571 218.982 -3.26576 201.001 -0.714195C183.601 1.75068 165.563 5.17075 148.974 11.796C141.742 14.6838 134.78 18.8625 129.549 25.3143C123.829 32.3765 119.454 41.7872 117.619 51.0976C116.083 58.8938 117.266 66.0035 121.643 72.2922C126.02 78.581 132.815 84.0636 133.436 92.4021C133.504 93.3639 132.647 95.1466 133.975 92.0197C134.272 91.3223 135.968 88.9515 134.504 90.4724C133.453 91.5631 132.468 92.6626 131.279 93.5689C127.917 96.1182 124.034 97.4319 119.982 97.4189C112.028 97.3958 104.595 93.1482 98.408 87.8593C85.452 76.7706 76.5969 58.8521 60.457 52.8345C53.3891 50.1975 45.505 50.6749 39.3078 55.6478C32.7549 60.9086 27.9186 70.8546 26.4979 79.6287C25.0771 88.4029 28.284 96.3092 33.8462 101.873C39.8968 107.923 47.3417 109.547 54.6123 112.816C57.4539 114.09 60.1765 115.929 61.1439 119.382C61.4015 120.294 61.3563 121.209 61.5331 122.127L61.4608 123.048L65.0624 115.271C64.5905 115.314 62.9234 116.892 62.3857 117.191C61.2491 117.826 60.0547 118.316 58.8476 118.769C50.2159 121.969 41.0651 123.865 32.2398 126.313C15.9294 130.826 -1.23887 134.15 -16.8677 141.263C-31.3826 147.87 -41.8046 159.474 -47.6193 175.934C-53.3628 192.199 -51.0141 211.371 -37.6351 221.833C-31.7375 226.451 -24.6468 228.619 -17.4687 228.105C-15.3727 227.958 -13.5754 223.237 -12.759 221.454C-12.5337 220.959 -9.70009 213.219 -10.6841 213.29C-25.7884 214.372 -40.0259 203.083 -42.9245 186.169C-43.6361 182.041 -43.7385 177.743 -42.9827 173.607C-42.8469 172.876 -41.8466 169.977 -42.625 171.542C-42.0216 170.314 -41.0846 169.228 -40.2301 168.232C-35.6405 162.879 -29.6715 159.217 -23.6178 156.374C-8.9698 149.506 7.13874 146.334 22.4813 142.089C31.4216 139.614 40.4 137.252 49.3091 134.655C52.7482 133.65 56.2775 132.511 59.1728 130.096C62.7729 127.098 65.0536 122.099 66.7994 117.597C69.4966 110.618 69.8705 102.7 63.0559 98.843C60.1743 97.2123 56.9452 96.467 53.9067 95.2794C50.1336 93.8049 46.4356 91.9386 43.1696 89.3398C39.9036 86.741 37.1805 83.5784 35.4292 79.6185C34.6565 77.8712 34.0945 76.0223 33.7492 74.1097C33.3679 71.977 33.8954 69.8323 33.6532 67.8083C31.5867 69.9763 29.7651 74.098 32.6237 71.1605C33.256 70.5077 33.933 69.9692 34.6568 69.4543C36.0357 68.4837 37.5115 67.7192 39.0573 67.1527C42.9493 65.7182 47.0331 65.7924 50.9833 66.8243C67.0186 71.0097 76.4725 87.9268 88.0941 99.4425C98.7916 110.047 114.893 117.97 127.547 106.517C133.503 101.13 137.924 92.4315 139.939 84.244C141.807 76.6434 139.105 71.4242 134.784 65.7265C130.069 59.5141 124.473 53.9724 124.17 45.2242C124.111 43.4912 124.255 41.6792 124.625 39.985C124.684 39.7291 125.575 37.2514 124.714 39.2684C123.986 40.9705 124.319 39.8125 124.559 39.5905C125.766 38.4652 126.707 36.843 127.929 35.6726C129.603 34.0575 131.441 32.6801 133.35 31.4403C139.951 27.1636 147.368 24.7787 154.693 22.6642C163.493 20.1179 172.393 17.9895 181.352 16.2859C199.323 12.8569 217.542 11.1571 235.755 11.1435C253.489 11.1356 271.225 12.7309 288.713 15.9546C300.696 18.1683 316.828 21.5464 322.699 35.2384C324.017 38.3124 324.701 41.8123 324.538 45.2348C324.47 46.64 324.1 47.9334 323.905 49.2907C323.819 49.8939 324.82 47.9478 324.328 48.3463C323.863 48.7226 323.44 49.667 323.053 50.1433C318.055 56.4107 310.683 59.583 303.437 60.7841C285.779 63.7126 268.211 56.0557 250.979 53.1471C236.135 50.6418 220.544 51.5169 208.006 61.8684C196.694 71.2083 187.565 89.1676 189.115 105.223C190.732 121.946 202.684 135.086 214.904 143.264C227.988 152.018 242.997 156.342 257.916 159.151C265.513 160.581 273.158 161.612 280.81 162.612C284.247 163.059 288.219 147.878 287.595 147.797L287.616 147.782Z" fill="#FFDECD"/>
<path d="M15.7971 72.4916C16.3131 74.3489 17.3066 79.1084 14.0175 85.6477C10.6391 92.3647 15.3712 99.0747 18.8136 98.5716C22.3591 98.0535 21.9032 92.5424 17.8483 93.0383C12.4698 93.6962 9.60428 110.335 23.6117 126.354" stroke="#FFB28B" stroke-width="0.762073" stroke-linecap="round"/>
<path d="M28.6665 57.9035C28.6665 65.95 23.0866 76.9202 16.2025 76.9202C9.31848 76.9202 3.73816 66.8967 3.73816 57.9035C3.73816 51.0199 9.31848 45.4391 16.2025 45.4391C23.0866 45.4391 28.6665 51.0199 28.6665 57.9035Z" fill="#FFB28B"/>
<path d="M17.6394 78.9406H14.7657L15.7197 75.5496H16.6846L17.6394 78.9406Z" fill="#FFB28B"/>
<path d="M93.2693 48.7336C93.6758 50.3691 94.8741 53.8461 93.1984 60.0134C91.1311 67.6222 97.6271 70.2747 95.447 79.0003C92.5504 90.5938 98.5944 93.3912 96.4464 100.43" stroke="#FFB28B" stroke-width="0.8" stroke-linecap="round"/>
<path d="M103.742 36.8766C103.742 43.3701 99.3457 52.2229 93.9218 52.2229C88.4978 52.2229 84.1011 44.134 84.1011 36.8766C84.1011 31.3215 88.4978 26.8179 93.9218 26.8179C99.3457 26.8179 103.742 31.3215 103.742 36.8766Z" fill="#FFB28B"/>
<path d="M95.4793 54.3174H92.3634L93.3978 50.6405H94.4441L95.4793 54.3174Z" fill="#FFB28B"/>
<path d="M48.7814 78.1216L48.8377 77.8908C47.7544 77.6725 46.6781 77.4267 45.6122 77.1581L45.5606 77.372C45.2391 78.7046 44.729 79.9853 44.0447 81.1742L27.5803 109.78L50.1329 115.218L48.4004 82.2477C48.3275 80.8606 48.456 79.4712 48.7814 78.1216Z" fill="#FFDECD"/>
<path d="M40.4294 87.4543L48.4172 82.5707L48.4003 82.2477C48.364 81.5516 48.3778 80.8551 48.4424 80.1622L42.5543 83.7627L40.4294 87.4543Z" fill="#FFB28B"/>
<path d="M35.2561 96.4442L48.7136 88.2149L48.5919 85.8967L37.381 92.7523L35.2561 96.4442Z" fill="#FFB28B"/>
<path d="M30.0818 105.433L49.0114 93.8592L48.8893 91.5409L32.2071 101.741L30.0818 105.433Z" fill="#FFB28B"/>
<path d="M31.109 110.631L49.3075 99.5034L49.185 97.1859L28.3022 109.954L31.109 110.631Z" fill="#FFB28B"/>
<path d="M37.9422 112.279L49.603 105.149L49.4813 102.83L35.1359 111.601L37.9422 112.279Z" fill="#FFB28B"/>
<path d="M44.775 113.927L49.9001 110.793L49.7779 108.475L41.9686 113.25L44.775 113.927Z" fill="#FFB28B"/>
<path d="M50.1332 115.218L50.0745 114.12L48.8021 114.898L50.1332 115.218Z" fill="#FFB28B"/>
<path d="M27.6015 109.688C27.9588 108.208 33.297 108.224 39.5258 109.726C45.7531 111.227 50.5126 113.646 50.1545 115.126C49.7976 116.608 44.4587 116.591 38.2314 115.089C32.0037 113.587 27.2454 111.169 27.6015 109.688Z" fill="#FFB28B"/>
<path d="M43.692 76.3915C43.692 74.3088 45.38 72.6208 47.4623 72.6208C49.5451 72.6208 51.2331 74.3088 51.2331 76.3915C51.2331 78.4734 49.5451 80.1618 47.4623 80.1618C45.38 80.1622 43.692 78.4738 43.692 76.3915Z" fill="#FFB28B"/>
<path d="M27.1039 108.678C27.1039 107.815 27.8031 107.115 28.6663 107.115C29.5294 107.115 30.2287 107.814 30.2287 108.678C30.2287 109.54 29.5294 110.24 28.6663 110.24C27.8031 110.24 27.1039 109.54 27.1039 108.678Z" fill="#FFB28B"/>
<path d="M29.6221 108.475C29.6221 107.349 30.5348 106.436 31.6615 106.436C32.7877 106.436 33.7008 107.349 33.7008 108.475C33.7008 109.602 32.7881 110.515 31.6615 110.515C30.5352 110.515 29.6221 109.601 29.6221 108.475Z" fill="#FFB28B"/>
<path d="M33.7009 108.589C33.7009 107.462 34.6137 106.549 35.7403 106.549C36.867 106.549 37.7797 107.462 37.7797 108.589C37.7797 109.715 36.867 110.628 35.7403 110.628C34.6137 110.628 33.7009 109.714 33.7009 108.589Z" fill="#FFB28B"/>
<path d="M37.0045 109.092C37.0045 107.688 38.1423 106.549 39.5463 106.549C40.9502 106.549 42.089 107.687 42.089 109.092C42.089 110.495 40.9507 111.633 39.5463 111.633C38.1423 111.633 37.0045 110.495 37.0045 109.092Z" fill="#FFB28B"/>
<path d="M41.5858 110.631C41.5858 109.505 42.4986 108.591 43.6248 108.591C44.7511 108.591 45.6646 109.505 45.6646 110.631C45.6646 111.757 44.7515 112.67 43.6248 112.67C42.4989 112.67 41.5858 111.757 41.5858 110.631Z" fill="#FFB28B"/>
<path d="M45.4235 112.279C45.4235 111.153 46.3362 110.24 47.4625 110.24C48.5887 110.24 49.5022 111.153 49.5022 112.279C49.5022 113.405 48.5891 114.318 47.4625 114.318C46.3362 114.318 45.4235 113.405 45.4235 112.279Z" fill="#FFB28B"/>
<path d="M47.892 114.319C47.892 113.449 48.5972 112.743 49.4674 112.743C50.3377 112.743 51.0435 113.448 51.0435 114.319C51.0435 115.188 50.338 115.894 49.4674 115.894C48.5972 115.894 47.892 115.189 47.892 114.319Z" fill="#FFB28B"/>
<path d="M111.507 27.8871C111.167 27.7992 110.825 27.7116 110.491 27.6249C110.323 27.5816 110.155 27.5385 109.987 27.4952C109.908 27.4743 109.824 27.4525 109.745 27.4321C109.666 27.4121 109.595 27.3884 109.517 27.3678C109.213 27.285 108.95 27.2044 108.723 27.1064C108.666 27.0865 108.611 27.0619 108.556 27.0362C108.535 27.0306 108.516 27.0197 108.491 27.0081C108.477 26.9984 108.446 26.9836 108.427 26.9742C108.31 26.9088 108.192 26.8426 108.09 26.7808C107.666 26.5389 107.343 26.3141 107.136 26.148C107.029 26.065 106.95 25.9998 106.901 25.9542C106.846 25.9053 106.818 25.8822 106.818 25.8822C106.818 25.8822 106.79 25.859 106.736 25.8105C106.687 25.7643 106.609 25.6936 106.523 25.5993C106.486 25.5684 106.395 25.4653 106.357 25.4212C106.315 25.3832 106.273 25.3346 106.223 25.2649C106.171 25.2009 106.11 25.1186 106.035 25.0144C105.997 24.9658 105.957 24.9055 105.914 24.8436C105.887 24.8133 105.862 24.7796 105.834 24.7511L105.815 24.7229C105.802 24.703 105.787 24.6832 105.769 24.6626C105.753 24.6344 105.737 24.6143 105.721 24.5872C105.694 24.5403 105.662 24.4925 105.631 24.4402C105.567 24.3347 105.507 24.2296 105.447 24.1133C105.327 23.8826 105.219 23.6287 105.112 23.351C105.087 23.2755 105.059 23.2091 105.034 23.1337L104.998 23.0294L104.968 22.9329C104.931 22.799 104.89 22.6502 104.859 22.5074C104.795 22.2162 104.753 21.9225 104.732 21.6191C104.69 21.0171 104.746 20.41 104.878 19.8565C105.008 19.309 105.21 18.8125 105.422 18.4208C105.639 18.0168 105.862 17.7116 106.027 17.5084C106.192 17.3041 106.297 17.1965 106.297 17.1965C106.297 17.1965 106.326 17.1712 106.374 17.1163C106.421 17.0666 106.496 16.9915 106.592 16.905C106.782 16.7236 107.072 16.4747 107.453 16.2319L107.492 16.2088C107.498 16.2033 107.498 16.2033 107.498 16.2033C107.505 16.201 107.498 16.2033 107.505 16.201L107.55 16.1795C107.608 16.1482 107.671 16.1155 107.733 16.0813C107.855 16.0155 107.984 15.9537 108.111 15.893C108.23 15.8338 108.359 15.771 108.491 15.7175C108.515 15.7078 108.547 15.6973 108.572 15.6823C108.598 15.6718 108.626 15.6677 108.652 15.6525C108.712 15.6352 108.782 15.6128 108.847 15.591C109.377 15.4244 109.97 15.3385 110.562 15.3629C111.158 15.3769 111.747 15.5006 112.278 15.6934C112.538 15.7889 112.789 15.9019 113.02 16.0259C113.132 16.0865 113.239 16.1488 113.345 16.2138C113.399 16.2452 113.448 16.2759 113.495 16.3085C113.524 16.3273 113.546 16.3449 113.571 16.3571L113.58 16.3651L113.6 16.3816L113.631 16.4111C113.653 16.4284 113.672 16.4448 113.694 16.4675C113.734 16.5047 113.781 16.5451 113.817 16.5771C113.897 16.6538 113.974 16.7241 114.051 16.7942C114.121 16.8675 114.189 16.9293 114.251 16.996C114.282 17.0282 114.314 17.0568 114.346 17.0888C114.352 17.1015 114.358 17.1032 114.358 17.1032C114.358 17.1032 114.358 17.1032 114.362 17.1042L114.372 17.1112C114.457 17.2171 114.519 17.3019 114.567 17.3572C114.608 17.413 114.633 17.4465 114.633 17.4465C114.633 17.4465 114.726 17.5653 114.867 17.7938C114.945 17.9083 115.025 18.0457 115.124 18.212C115.17 18.3078 115.215 18.375 115.242 18.4441C115.281 18.5318 115.323 18.6324 115.364 18.7315C115.515 19.14 115.633 19.6412 115.659 20.1845C115.683 20.7266 115.604 21.3111 115.419 21.8567C115.231 22.4064 114.932 22.9152 114.582 23.3387C114.496 23.44 114.407 23.5459 114.309 23.639C114.23 23.7294 114.144 23.8019 114.053 23.8762C113.874 24.0242 113.674 24.1567 113.466 24.2868C113.355 24.3481 113.255 24.4111 113.156 24.4695L113.116 24.4948C113.103 24.5018 113.084 24.5065 113.071 24.5158C113.033 24.5336 112.995 24.5517 112.957 24.5705C112.805 24.6372 112.665 24.6847 112.55 24.7159C112.432 24.7538 112.339 24.7736 112.272 24.7918C112.208 24.8016 112.174 24.8107 112.174 24.8107C112.174 24.8107 112.138 24.8123 112.073 24.8284C112.004 24.8381 111.905 24.8527 111.777 24.8697C111.708 24.8737 111.641 24.8839 111.559 24.8912C111.52 24.8921 111.475 24.893 111.434 24.8981C111.39 24.8978 111.356 24.9009 111.311 24.9021C111.142 24.9069 110.954 24.8981 110.745 24.8666C110.332 24.815 109.854 24.6756 109.39 24.4218C108.929 24.168 108.492 23.7987 108.163 23.3558C107.999 23.1281 107.859 22.8909 107.756 22.6463C107.703 22.5208 107.661 22.3976 107.621 22.2711C107.586 22.1496 107.551 22.0054 107.53 21.8891C107.442 21.3913 107.477 20.9028 107.57 20.5008C107.668 20.1007 107.815 19.7918 107.928 19.5852C107.99 19.4808 108.041 19.4087 108.079 19.3508C108.113 19.3046 108.132 19.2751 108.132 19.2751C108.132 19.2751 108.151 19.2476 108.191 19.1952C108.232 19.1501 108.284 19.0796 108.367 18.9966C108.524 18.8225 108.765 18.6 109.107 18.4253C109.282 18.3352 109.468 18.2619 109.685 18.2005C109.72 18.1984 109.749 18.1887 109.785 18.1804L109.833 18.1637L109.874 18.1589C109.928 18.1449 109.981 18.1373 110.039 18.1292C110.156 18.1082 110.27 18.0999 110.388 18.0974C110.86 18.0909 111.372 18.2273 111.793 18.5043C112.223 18.7721 112.538 19.1716 112.707 19.5953C112.753 19.703 112.785 19.8166 112.808 19.9184C112.819 19.9479 112.823 19.9559 112.824 19.9893C112.829 20.0142 112.836 20.0381 112.838 20.0673C112.847 20.1188 112.851 20.1704 112.855 20.2201C112.875 20.428 112.856 20.6292 112.824 20.8003C112.752 21.1575 112.61 21.4102 112.499 21.5606C112.444 21.6355 112.391 21.6899 112.362 21.7214C112.325 21.7563 112.047 22.0919 111.993 22.303C111.857 22.832 112.184 23.3408 112.708 23.5166C113.223 23.6885 113.717 23.2286 113.801 23.1454C113.879 23.0619 113.994 22.9369 114.124 22.7628C114.378 22.4213 114.674 21.8811 114.808 21.1899C114.874 20.849 114.905 20.47 114.874 20.0711C114.867 19.9693 114.852 19.8705 114.84 19.7658C114.831 19.7128 114.821 19.666 114.813 19.6133C114.802 19.5662 114.792 19.5031 114.776 19.4528C114.73 19.2395 114.668 19.0451 114.586 18.8442C114.42 18.4435 114.198 18.0508 113.907 17.7006C113.618 17.3526 113.27 17.0505 112.887 16.8008C112.121 16.3065 111.216 16.0628 110.367 16.0783C110.155 16.078 109.945 16.0972 109.739 16.1273C109.641 16.1424 109.541 16.1608 109.444 16.1865L109.368 16.2001L109.308 16.2192C109.266 16.2249 109.224 16.2363 109.183 16.2473C108.813 16.3374 108.463 16.4758 108.166 16.6346C107.569 16.9497 107.153 17.3326 106.891 17.6131C106.759 17.7533 106.661 17.8717 106.6 17.9592C106.535 18.0375 106.508 18.0798 106.508 18.0798C106.508 18.0798 106.472 18.1257 106.413 18.2054C106.35 18.2894 106.272 18.4213 106.175 18.5861C105.99 18.9144 105.756 19.4063 105.605 20.0374C105.457 20.6713 105.394 21.4385 105.543 22.2482C105.579 22.4543 105.626 22.6389 105.686 22.8444C105.745 23.0434 105.816 23.2468 105.901 23.4419C106.068 23.8318 106.285 24.2061 106.54 24.5591C107.05 25.2482 107.717 25.8068 108.417 26.1888C109.114 26.5748 109.841 26.7865 110.479 26.8722C110.793 26.9129 111.09 26.9293 111.349 26.9167C111.417 26.9189 111.484 26.9185 111.541 26.9174C111.599 26.9091 111.655 26.9072 111.706 26.9049C111.816 26.8977 111.907 26.8881 111.998 26.8769C112.177 26.8583 112.318 26.8375 112.413 26.8155C112.51 26.8046 112.558 26.793 112.558 26.793C112.558 26.793 112.612 26.7786 112.711 26.7603C112.804 26.7459 112.948 26.7097 113.13 26.6555C113.308 26.6004 113.526 26.528 113.765 26.4234C113.828 26.3956 113.886 26.3644 113.951 26.3369C113.989 26.3179 114.027 26.2992 114.065 26.2824C114.091 26.265 114.12 26.2457 114.144 26.2345L114.182 26.2172C114.289 26.1482 114.402 26.082 114.521 26.0086C114.766 25.8582 115.048 25.6786 115.332 25.4399C115.481 25.3277 115.628 25.1911 115.765 25.0475C115.895 24.9134 116.02 24.773 116.142 24.6256C116.639 24.0263 117.062 23.2974 117.331 22.5109C117.603 21.7195 117.713 20.8821 117.679 20.1007C117.647 19.3199 117.472 18.6051 117.255 18.0232C117.202 17.8807 117.141 17.7414 117.086 17.61C117.016 17.451 116.942 17.3271 116.888 17.2295C116.774 17.0209 116.663 16.8419 116.574 16.6954C116.378 16.4052 116.259 16.2445 116.259 16.2445C116.259 16.2445 116.231 16.204 116.17 16.1326C116.112 16.0543 116.03 15.9452 115.918 15.8151C115.897 15.7869 115.875 15.7598 115.853 15.7369C115.827 15.7129 115.805 15.6865 115.778 15.6611C115.746 15.6319 115.717 15.5955 115.68 15.5642C115.614 15.4963 115.539 15.4198 115.458 15.3436C115.378 15.2626 115.289 15.1764 115.188 15.0899C115.138 15.044 115.088 14.9957 115.039 14.9511C114.978 14.9006 114.925 14.8535 114.865 14.7989C114.841 14.7815 114.815 14.7587 114.785 14.7386C114.761 14.7211 114.732 14.7046 114.709 14.6876C114.676 14.6618 114.642 14.6413 114.609 14.6216C114.546 14.5774 114.476 14.5309 114.409 14.4907C114.267 14.4054 114.121 14.3234 113.968 14.238C113.66 14.0742 113.329 13.9212 112.969 13.7968C112.257 13.5337 111.45 13.3643 110.629 13.3384C109.807 13.3098 108.988 13.4283 108.253 13.6581C108.16 13.6894 108.069 13.7169 107.983 13.7516C107.93 13.7648 107.88 13.7852 107.828 13.8052C107.787 13.8215 107.741 13.8443 107.697 13.8617C107.528 13.9293 107.373 14.0063 107.229 14.075C107.081 14.1499 106.945 14.2145 106.811 14.2812C106.747 14.3154 106.683 14.3495 106.623 14.3846L106.573 14.4047C106.553 14.4156 106.515 14.4343 106.489 14.4505C106.446 14.4785 106.408 14.502 106.367 14.5312C105.857 14.8571 105.47 15.1846 105.214 15.4236C105.082 15.5464 104.983 15.6446 104.92 15.7175C104.854 15.7841 104.819 15.8209 104.819 15.8209C104.819 15.8209 104.784 15.8562 104.721 15.9292C104.657 15.996 104.568 16.1032 104.455 16.2402C104.23 16.5188 103.931 16.9273 103.647 17.4648C103.359 17.9985 103.088 18.6557 102.914 19.3941C102.741 20.1322 102.665 20.9458 102.719 21.7552C102.743 22.1531 102.802 22.5577 102.886 22.9442C102.931 23.1403 102.98 23.3258 103.034 23.5195C103.05 23.5682 103.065 23.6178 103.082 23.6667C103.097 23.7137 103.114 23.7583 103.131 23.8005C103.159 23.8853 103.187 23.9714 103.22 24.0599C103.35 24.4007 103.494 24.7283 103.651 25.0361C103.733 25.1922 103.818 25.3424 103.905 25.482C103.942 25.5532 103.986 25.6222 104.029 25.6933C104.054 25.7281 104.073 25.7553 104.093 25.789C104.118 25.8227 104.144 25.8581 104.167 25.8916C104.184 25.9186 104.201 25.9522 104.224 25.9735L104.267 26.024C104.281 26.0383 104.297 26.0604 104.309 26.0792C104.338 26.1153 104.371 26.1634 104.405 26.2035C104.471 26.294 104.545 26.4034 104.626 26.503C104.711 26.6087 104.794 26.7133 104.882 26.8088C104.969 26.8997 104.995 26.9265 105.068 27.0001C105.191 27.1291 105.292 27.228 105.36 27.2898C105.434 27.3529 105.468 27.3911 105.468 27.3911C105.468 27.3911 105.511 27.4237 105.579 27.4864C105.652 27.5494 105.757 27.6385 105.898 27.7482C106.173 27.9602 106.58 28.2438 107.077 28.5274C107.197 28.6029 107.32 28.6738 107.457 28.7494C107.496 28.7706 107.531 28.7886 107.58 28.8138C107.624 28.8367 107.674 28.861 107.716 28.8761C107.795 28.9154 107.877 28.9465 107.962 28.9786C108.295 29.1205 108.642 29.2276 108.977 29.3197C109.06 29.3415 109.146 29.3631 109.235 29.3863C109.313 29.4067 109.397 29.4284 109.481 29.4499C109.647 29.493 109.81 29.5348 109.983 29.5797C110.319 29.6661 110.659 29.7541 111.001 29.842C112.935 30.3411 116.884 31.3602 116.884 31.3602L117.388 29.4044C117.385 29.4045 113.443 28.387 111.507 27.8871Z" fill="#FFDECD"/>
<path d="M122.779 32.0647C122.552 31.9993 122.334 31.9123 122.121 31.8103C121.305 31.4981 120.61 30.9193 119.889 30.411C118.719 29.5875 117.411 29.1284 116.023 28.8509L115.403 31.2526C116.392 31.5238 117.371 31.834 118.38 32.0062C119.047 31.996 120.106 31.9888 120.575 32.0365C120.834 32.0643 121.285 32.1477 121.754 32.2415L122.676 32.4793C122.706 32.3409 122.743 32.203 122.779 32.0647Z" fill="#FFB28B"/>
<path d="M36.2845 41.9363L38.1749 9.28621L54.8436 37.8121C54.8436 37.8121 47.97 45.0293 36.2845 41.9363Z" fill="#FFB28B"/>
<path d="M40.119 10.0598C41.4612 8.71757 41.4612 6.54146 40.119 5.19927C38.7768 3.85708 36.6007 3.85708 35.2585 5.19927C33.9163 6.54146 33.9163 8.71758 35.2585 10.0598C36.6007 11.402 38.7768 11.402 40.119 10.0598Z" fill="#FFDECD"/>
<mask id="mask0_1647_90027" style="mask-type:luminance" maskUnits="userSpaceOnUse" x="36" y="9" width="19" height="34">
<path d="M36.2845 41.9363L38.1749 9.28621L54.8436 37.8121C54.8436 37.8121 47.97 45.0293 36.2845 41.9363Z" fill="white"/>
</mask>
<g mask="url(#mask0_1647_90027)">
<path d="M38.4338 13.1481L39.1434 15.3933L40.7298 15.7534L39.5819 17.5013L39.8529 19.9691L38.4338 18.8039L37.0149 19.9691L37.2859 17.5013L36.1378 15.7534L37.7245 15.3933L38.4338 13.1481Z" fill="#FFDECD"/>
<path d="M49.1603 28.4666L50.7026 30.2458L52.3015 29.9469L51.9414 32.0067L53.1696 34.1641L51.4047 33.6577L50.5645 35.2904L49.834 32.9176L48.0869 31.7692L49.4002 30.8091L49.1603 28.4666Z" fill="#FFDECD"/>
<path d="M36.9824 32.4971L37.8209 34.6973L39.4254 34.9649L38.3807 36.7763L38.7943 39.2241L37.3103 38.1433L35.9611 39.3888L36.0888 36.9093L34.8414 35.2311L36.4042 34.7798L36.9824 32.4971Z" fill="#FFDECD"/>
<path d="M41.3784 22.0507L42.9047 24.0001L45.3759 23.848L43.9935 25.902L44.902 28.2054L42.5212 27.5253L40.6113 29.1008L40.5225 26.6267L38.4337 25.2972L40.7595 24.448L41.3784 22.0507Z" fill="#FFDECD"/>
<path d="M45.0377 35.1457L46.564 37.0951L49.0352 36.943L47.6528 38.997L48.5613 41.3001L46.1805 40.6204L44.2706 42.1959L44.1818 39.7217L42.093 38.3922L44.4188 37.543L45.0377 35.1457Z" fill="#FFDECD"/>
</g>
<path opacity="0.63" d="M39.1416 9.9495C37.2435 9.9495 35.7047 8.41069 35.7047 6.51258C35.7047 5.73493 35.9659 5.02031 36.4012 4.44452C35.1417 4.95435 34.2521 6.18732 34.2521 7.62958C34.2521 9.52769 35.7909 11.0665 37.689 11.0665C38.8095 11.0665 39.802 10.5277 40.4294 9.69791C40.0313 9.85881 39.5975 9.9495 39.1416 9.9495Z" fill="#FFDECD"/>
<path d="M37.1335 42.7068C37.1335 43.4453 36.5349 44.044 35.7963 44.044C35.0578 44.044 34.4591 43.4453 34.4591 42.7068C34.4591 41.9682 35.0578 41.3696 35.7963 41.3696C36.5349 41.3698 37.1335 41.9685 37.1335 42.7068Z" fill="#FFDECD"/>
<path d="M39.1417 43.4559C39.1417 44.1945 38.5431 44.7931 37.8045 44.7931C37.0659 44.7931 36.4673 44.1945 36.4673 43.4559C36.4673 42.7174 37.0659 42.1187 37.8045 42.1187C38.5431 42.1187 39.1417 42.7174 39.1417 43.4559Z" fill="#FFDECD"/>
<path d="M41.1558 43.7384C41.1558 44.4769 40.5571 45.0756 39.8185 45.0756C39.08 45.0756 38.4813 44.4769 38.4813 43.7384C38.4813 42.9998 39.08 42.4012 39.8185 42.4012C40.5571 42.4012 41.1558 43.0001 41.1558 43.7384Z" fill="#FFDECD"/>
<path d="M43.2419 43.7384C43.2419 44.4769 42.6433 45.0756 41.9047 45.0756C41.1662 45.0756 40.5675 44.4769 40.5675 43.7384C40.5675 42.9998 41.1662 42.4012 41.9047 42.4012C42.6433 42.4012 43.2419 43.0001 43.2419 43.7384Z" fill="#FFDECD"/>
<path d="M45.4624 43.7384C45.4624 44.4769 44.8637 45.0756 44.1252 45.0756C43.3866 45.0756 42.788 44.4769 42.788 43.7384C42.788 42.9998 43.3866 42.4012 44.1252 42.4012C44.8637 42.4012 45.4624 43.0001 45.4624 43.7384Z" fill="#FFDECD"/>
<path d="M47.6229 43.081C47.6229 43.8195 47.0243 44.4182 46.2857 44.4182C45.5471 44.4182 44.9485 43.8195 44.9485 43.081C44.9485 42.3424 45.5471 41.7437 46.2857 41.7437C47.0243 41.744 47.6229 42.3427 47.6229 43.081Z" fill="#FFDECD"/>
<path d="M49.8378 42.1187C49.8378 42.8573 49.2391 43.4559 48.5005 43.4559C47.762 43.4559 47.1633 42.8573 47.1633 42.1187C47.1633 41.3802 47.762 40.7815 48.5005 40.7815C49.2391 40.7815 49.8378 41.3802 49.8378 42.1187Z" fill="#FFDECD"/>
<path d="M51.9654 41.5227C51.9654 42.2613 51.3668 42.8599 50.6282 42.8599C49.8897 42.8599 49.291 42.2613 49.291 41.5227C49.291 40.7842 49.8897 40.1855 50.6282 40.1855C51.3668 40.1855 51.9654 40.7842 51.9654 41.5227Z" fill="#FFDECD"/>
<path d="M54.1363 40.1855C54.1363 40.9241 53.5377 41.5227 52.7991 41.5227C52.0606 41.5227 51.4619 40.9241 51.4619 40.1855C51.4619 39.4469 52.0606 38.8483 52.7991 38.8483C53.5377 38.8483 54.1363 39.4469 54.1363 40.1855Z" fill="#FFDECD"/>
<path d="M56.0436 38.6709C56.0436 39.4095 55.4449 40.0081 54.7064 40.0081C53.9678 40.0081 53.3691 39.4095 53.3691 38.6709C53.3691 37.9324 53.9678 37.3337 54.7064 37.3337C55.4449 37.3337 56.0436 37.9324 56.0436 38.6709Z" fill="#FFDECD"/>
<path d="M6.40356 38.5067C7.50813 38.5067 8.40356 37.6113 8.40356 36.5067C8.40356 35.4021 7.50813 34.5067 6.40356 34.5067C5.29899 34.5067 4.40356 35.4021 4.40356 36.5067C4.40356 37.6113 5.29899 38.5067 6.40356 38.5067Z" fill="#FFB28B"/>
<path d="M77.2122 61.3586C78.3167 61.3586 79.2122 60.4632 79.2122 59.3586C79.2122 58.2541 78.3167 57.3586 77.2122 57.3586C76.1076 57.3586 75.2122 58.2541 75.2122 59.3586C75.2122 60.4632 76.1076 61.3586 77.2122 61.3586Z" fill="#FFB28B"/>
<path d="M95.2717 11.7555C96.3763 11.7555 97.2717 10.8601 97.2717 9.75551C97.2717 8.65094 96.3763 7.75551 95.2717 7.75551C94.1672 7.75551 93.2717 8.65094 93.2717 9.75551C93.2717 10.8601 94.1672 11.7555 95.2717 11.7555Z" fill="#FFB28B"/>
<path d="M66.7407 37.4811C68.3834 37.4811 69.7151 36.1494 69.7151 34.5067C69.7151 32.864 68.3834 31.5323 66.7407 31.5323C65.098 31.5323 63.7664 32.864 63.7664 34.5067C63.7664 36.1494 65.098 37.4811 66.7407 37.4811Z" fill="#FFDECD"/>
<path d="M83.2427 114.515C85.4518 114.515 87.2427 112.724 87.2427 110.515C87.2427 108.305 85.4518 106.515 83.2427 106.515C81.0335 106.515 79.2427 108.305 79.2427 110.515C79.2427 112.724 81.0335 114.515 83.2427 114.515Z" fill="#FFDECD"/>
<path d="M140.61 44.044C142.819 44.044 144.61 42.2531 144.61 40.044C144.61 37.8349 142.819 36.044 140.61 36.044C138.401 36.044 136.61 37.8349 136.61 40.044C136.61 42.2531 138.401 44.044 140.61 44.044Z" fill="#FFDECD"/>
<path d="M57.8324 10.9387C56.3205 12.0692 54.4757 13.5139 52.6709 13.1163C51.3511 12.8254 50.7732 10.7146 51.3249 9.17914C51.6515 8.27003 52.2814 7.59709 52.985 7.24248C53.3222 7.07263 53.693 6.95203 54.0544 6.95844C54.0957 6.95938 54.4452 7.03782 54.4531 7.02885C54.3971 7.09301 54.3434 6.81357 54.3888 7.01777C54.4785 7.42158 54.6304 7.64515 54.5004 8.10481C54.3686 8.57129 54.0627 8.86175 53.7138 9.00984C53.6332 9.04415 52.7753 9.2209 52.7868 9.05231C52.7873 9.04592 52.8991 9.1075 52.9139 9.12843C52.9011 9.10983 52.7575 8.92306 52.7119 8.85064C51.8571 7.49133 51.8218 5.29179 52.7788 3.98247C52.9239 3.78399 51.5712 2.47053 51.2641 2.89046C50.0717 4.52204 50.4742 7.16649 51.5969 8.62388C52.3089 9.54797 53.4072 10.3509 54.4371 10.3364C55.2693 10.3247 56.3205 9.60327 56.0457 8.29745C55.7694 6.98473 54.3846 6.1359 53.4722 5.85656C52.4957 5.55746 51.4657 5.92476 50.669 6.7266C49.8925 7.50786 49.4378 8.74854 49.6166 10.0298C49.8052 11.3821 50.6471 12.4259 51.4927 13.1219C52.6293 14.058 53.8924 14.5521 55.2425 14.3019C56.6809 14.0355 57.9846 13.0667 59.2329 12.1329C59.471 11.9548 58.9362 11.5038 58.8425 11.4234C58.6651 11.272 58.0758 10.7571 57.8324 10.9387Z" fill="#FFB28B"/>
<path d="M107.856 68.6781C105.284 68.544 102.061 68.3045 101.237 70.1776C100.635 71.5475 102.923 74.4554 105.306 75.8111C106.718 76.6138 108.049 76.9046 109.026 76.7674C109.494 76.7016 109.923 76.5521 110.182 76.2623C110.212 76.229 110.369 75.8645 110.387 75.8688C110.263 75.8379 110.583 76.205 110.353 75.932C109.9 75.3919 109.725 75.0131 109.038 74.5797C108.34 74.1399 107.74 74.0409 107.291 74.1412C107.188 74.1643 106.326 74.629 106.551 74.8162C106.56 74.8233 106.563 74.6643 106.547 74.6283C106.562 74.66 106.696 74.9896 106.755 75.1095C107.872 77.3593 110.675 79.9464 113.067 80.7223C113.43 80.8398 114.119 83.4254 113.352 83.1767C110.371 82.2099 107.267 78.818 106.222 76.2447C105.56 74.6129 105.339 72.8202 106.12 72.0323C106.75 71.3956 108.456 71.4137 109.933 73.1479C111.417 74.8915 111.485 76.9615 111.169 77.9995C110.832 79.1107 109.597 79.4881 107.976 79.1777C106.397 78.8753 104.465 77.7869 102.949 76.1562C101.348 74.4351 100.628 72.5626 100.358 71.0918C99.9948 69.1142 100.293 67.5522 101.614 66.7882C103.021 65.9743 105.231 66.0828 107.356 66.194C107.761 66.2151 107.946 67.1579 107.98 67.3247C108.044 67.6395 108.27 68.6993 107.856 68.6781Z" fill="#FFDECD"/>
<path d="M119.09 85.3552C119.133 85.0671 119.487 84.9531 119.69 85.1623L121.285 86.8077C121.365 86.8907 121.481 86.9289 121.595 86.9096L123.854 86.5289C124.141 86.4804 124.359 86.7825 124.223 87.0399L123.151 89.0643C123.097 89.1666 123.096 89.2889 123.15 89.3915L124.21 91.4224C124.345 91.6806 124.125 91.9814 123.838 91.9313L121.581 91.5374C121.467 91.5175 121.351 91.555 121.27 91.6376L119.666 93.2733C119.462 93.4813 119.108 93.3652 119.067 93.0768L118.744 90.8088C118.728 90.6943 118.656 90.5951 118.553 90.5437L116.501 89.5238C116.24 89.3941 116.241 89.0217 116.503 88.8935L118.561 87.8852C118.665 87.8343 118.737 87.7356 118.754 87.6212L119.09 85.3552Z" fill="#FFB28B"/>
<path d="M137.372 46.0881C137.658 45.8212 138.126 45.9977 138.164 46.3869L138.464 49.4481C138.479 49.6026 138.569 49.7399 138.705 49.815L141.396 51.3028C141.739 51.4921 141.715 51.9917 141.357 52.1481L138.538 53.3787C138.396 53.4408 138.293 53.569 138.264 53.7216L137.681 56.7415C137.606 57.1255 137.124 57.2577 136.864 56.9652L134.822 54.6649C134.719 54.5488 134.566 54.4908 134.412 54.5099L131.359 54.8878C130.971 54.9358 130.696 54.518 130.894 54.1808L132.451 51.5284C132.529 51.3944 132.537 51.2304 132.471 51.0897L131.169 48.3037C131.003 47.9495 131.315 47.5591 131.697 47.643L134.702 48.3036C134.853 48.3369 135.012 48.2935 135.125 48.1875L137.372 46.0881Z" fill="#FFB28B"/>
<path d="M25.0039 20.4563C25.0466 20.1682 25.4012 20.0542 25.6039 20.2633L27.1983 21.9087C27.2788 21.9918 27.3951 22.0299 27.5091 22.0107L29.7679 21.6299C30.0552 21.5815 30.2732 21.8836 30.1369 22.141L29.0646 24.1654C29.0104 24.2676 29.01 24.39 29.0636 24.4926L30.124 26.5235C30.2588 26.7817 30.039 27.0824 29.7521 27.0324L27.4949 26.6385C27.3809 26.6186 27.2645 26.6561 27.1835 26.7386L25.5796 28.3744C25.3757 28.5824 25.0218 28.4662 24.9807 28.1779L24.658 25.9099C24.6417 25.7954 24.5701 25.6962 24.4665 25.6447L22.415 24.6249C22.1542 24.4952 22.1553 24.1228 22.4168 23.9946L24.4745 22.9863C24.5783 22.9354 24.6505 22.8367 24.6675 22.7223L25.0039 20.4563Z" fill="#FFB28B"/>
<path d="M9.77708 7.56173C11.3805 7.51186 13.1583 7.42924 14.6249 8.19307C15.7126 8.75967 16.7105 9.80232 16.7141 11.0981C16.7178 12.6112 15.696 13.9463 15.8361 15.4901C15.9338 16.5699 16.5115 17.5556 17.3535 18.2305C18.3338 19.0162 19.623 19.3403 20.8437 19.0133C21.281 18.8964 21.65 18.4278 21.8248 18.0311C21.9314 17.7898 22.0257 17.2569 21.5816 17.3758C19.5291 17.9254 17.1236 16.0647 17.2555 13.9071C17.3476 12.4004 18.3159 11.0869 18.1074 9.53155C17.9425 8.30013 17.0681 7.27668 16.0066 6.68341C14.4261 5.79976 12.5587 5.84071 10.8049 5.89507C10.3711 5.90863 10.0044 6.33225 9.79394 6.67587C9.71207 6.80971 9.35612 7.57459 9.77708 7.56173Z" fill="#FFDECD"/>
</g>
<defs>
<clipPath id="clip0_1647_90027">
<rect width="146" height="119" fill="white" transform="translate(0.151367 0.561523)"/>
</clipPath>
</defs>
</svg>
