<svg width="143" height="40" viewBox="0 0 143 40" fill="none" xmlns="http://www.w3.org/2000/svg">
<path d="M18.3036 18.6119C17.9816 18.4445 17.6784 18.2924 17.3752 18.1683C16.9263 17.9641 16.4978 17.8212 16.0896 17.6987C15.2734 17.4741 14.5388 17.4537 13.7634 17.5762C13.6349 17.5905 13.4964 17.6247 13.362 17.658C13.3042 17.6723 13.2472 17.6864 13.192 17.6987C13.1318 17.7168 13.0734 17.7331 13.0157 17.7492C12.8779 17.7876 12.7441 17.8249 12.6003 17.8825C12.3221 17.966 12.044 18.0779 11.7594 18.1924L11.7589 18.1926C11.6261 18.2461 11.4918 18.3001 11.3555 18.3521C11.0588 18.4793 10.7572 18.6188 10.4457 18.7629C9.85726 19.035 9.23329 19.3236 8.53954 19.5772C8.84562 18.4746 9.45779 17.5558 10.2536 16.7594C10.6617 16.3715 11.1311 16.0244 11.6616 15.7385C11.8288 15.6484 12.004 15.5746 12.1772 15.5016C12.2788 15.4588 12.3798 15.4163 12.4778 15.371L12.9268 15.2484C13.0045 15.2262 13.0882 15.21 13.1747 15.1933C13.2472 15.1793 13.3217 15.165 13.3961 15.1463C14.0083 15.0442 14.6612 15.0647 15.2938 15.2076C15.906 15.3505 16.4978 15.616 16.9875 15.9835C17.3035 16.2207 17.5855 16.4833 17.828 16.7714C17.7657 16.6222 17.7033 16.4755 17.6402 16.3307C17.2729 15.5548 16.9056 14.8605 16.4567 14.2684C16.0078 13.6762 15.4976 13.1658 14.8243 12.6553C14.3949 12.3196 13.9037 12.0105 13.3624 11.6697C13.0806 11.4923 12.785 11.3062 12.4776 11.1035C13.4571 10.6543 14.559 10.6134 15.6405 10.8993C16.171 11.0422 16.7016 11.2668 17.1709 11.5935C17.6402 11.9202 18.0688 12.3286 18.4157 12.7982C19.1094 13.7375 19.4563 14.8401 19.5176 15.9223C19.5367 16.4205 19.5019 16.9188 19.3795 17.417C19.6006 17.1723 19.8407 16.9414 20.0893 16.7188C20.8647 16.045 21.783 15.5141 22.7624 15.167C23.2522 14.9832 23.7827 14.8607 24.3133 14.7995C24.8438 14.7382 25.3948 14.7178 25.9253 14.7791C26.4559 14.8403 26.9864 14.9832 27.4761 15.2079L27.8434 15.3916C27.9302 15.435 28.0066 15.4886 28.0874 15.5452C28.1206 15.5686 28.1546 15.5924 28.1903 15.6162C28.4148 15.7592 28.6189 15.9429 28.8025 16.1471C28.5925 16.186 28.3943 16.219 28.2046 16.2506C27.8967 16.3018 27.6111 16.3494 27.3333 16.4126C27.207 16.4413 27.0824 16.4684 26.9588 16.4952C26.6433 16.5638 26.3353 16.6308 26.0273 16.7188C25.8913 16.7597 25.7553 16.7982 25.6193 16.8368C25.3472 16.9139 25.0751 16.9911 24.803 17.0864C24.3949 17.2089 23.9868 17.3518 23.5788 17.4947L21.2909 18.3137C21.8566 18.3773 22.4413 18.5808 22.9461 18.9243C23.4766 19.2714 23.9051 19.7614 24.1908 20.2719C24.4969 20.8028 24.6806 21.3541 24.7622 21.9054L24.769 21.9529C24.7869 22.0762 24.803 22.1869 24.803 22.3138C24.8234 22.4567 24.8234 22.5792 24.8234 22.7221C24.8234 22.9876 24.803 23.253 24.7826 23.4981C24.6398 24.519 24.2929 25.4787 23.6399 26.3158C23.3996 25.6614 23.238 25.0507 23.0863 24.478C23.0061 24.175 22.9288 23.8827 22.844 23.6002C22.7828 23.396 22.7216 23.1918 22.6808 23.008C22.6604 22.9468 22.64 22.8832 22.6196 22.8197C22.5788 22.6927 22.538 22.5656 22.4972 22.4567C22.3747 22.0892 22.2319 21.7829 22.0686 21.497C21.7421 20.9457 21.3748 20.5373 20.7423 20.1494C20.4362 19.9656 20.0485 19.8023 19.6404 19.6389C19.3187 19.5316 18.9856 19.4244 18.6238 19.3171C18.2714 19.8721 17.9691 20.459 17.7198 21.0724C17.4545 21.6645 17.2505 22.2771 17.0872 22.8896C16.9036 23.5022 16.7607 24.1352 16.6791 24.7682C16.4751 26.0341 16.3934 27.3409 16.4955 28.5865C16.5567 29.2194 16.6587 29.832 16.8015 30.4446C16.9648 31.0367 17.1689 31.6289 17.4341 32.1598C17.6994 32.7111 18.0463 33.2011 18.434 33.6503C18.572 33.8191 18.7331 33.9764 18.8913 34.1308C18.9435 34.1819 18.9955 34.2326 19.0462 34.2833C19.2706 34.4671 19.4951 34.6508 19.7604 34.8142C19.9282 34.9363 20.1417 35.0471 20.3496 35.1549C20.4198 35.1913 20.4893 35.2274 20.5562 35.2634L20.7603 35.3655L20.9643 35.4472L21.3724 35.6309C21.5153 35.6922 21.6581 35.733 21.8009 35.7739L22.2295 35.9168L22.658 35.9985C22.7294 36.0087 22.8008 36.024 22.8723 36.0393C22.9437 36.0546 23.0151 36.07 23.0865 36.0802C23.1798 36.0868 23.2753 36.0979 23.3716 36.109C23.57 36.1319 23.7716 36.1552 23.9639 36.1414H24.4129L24.8414 36.1006L25.0659 36.0802L25.2903 36.0393L25.7188 35.9576L26.1474 35.8351C26.2902 35.7943 26.4331 35.7534 26.5759 35.6922C27.6982 35.2838 28.7389 34.6304 29.6775 33.8341C31.5345 32.221 33.0037 30.0975 33.9831 27.7901C34.4729 26.6263 34.8606 25.442 35.1055 24.2168C35.3503 22.9917 35.4728 21.7666 35.3707 20.5415C35.2075 18.03 34.5545 15.5797 33.4322 13.3336C32.3099 11.108 30.7386 9.10694 28.7797 7.57553C26.8616 6.02371 24.5557 4.94151 22.1478 4.41062C19.7196 3.90015 17.1688 3.92057 14.761 4.4923C13.557 4.77816 12.3735 5.20696 11.2512 5.75826C10.1289 6.30957 9.06779 6.98339 8.10872 7.75931C7.12925 8.53522 6.2518 9.43365 5.47639 10.4137C4.70097 11.3938 4.02758 12.4556 3.47662 13.5991C1.27281 18.1116 1.2524 23.6655 3.43582 28.2802C3.51744 28.4708 3.6172 28.6613 3.71696 28.8519C3.76684 28.9472 3.81672 29.0425 3.86434 29.1378C3.93594 29.2542 4.00362 29.3746 4.07253 29.4971C4.16074 29.654 4.25097 29.8145 4.35408 29.9749C4.68056 30.5263 5.04787 31.0367 5.43558 31.5676C6.2314 32.5681 7.10884 33.5278 8.10872 34.3446C9.1086 35.1613 10.1901 35.876 11.3532 36.4885C11.496 36.56 11.644 36.6314 11.7919 36.7029C11.9398 36.7744 12.0878 36.8459 12.2307 36.9173C12.3442 36.9628 12.4549 37.011 12.5648 37.0589C12.7514 37.1402 12.9359 37.2206 13.1285 37.2849C13.7407 37.5299 14.3733 37.7137 15.0058 37.8974C15.1487 37.9383 15.2303 38.0812 15.1895 38.2241C15.1487 38.3466 15.0263 38.4283 14.8834 38.4079C13.557 38.1629 12.2307 37.7953 10.9859 37.244C10.3534 36.9786 9.74118 36.6723 9.14941 36.3456C8.55765 35.9985 7.98629 35.6309 7.43534 35.2226C5.23152 33.5891 3.35419 31.4655 2.08904 28.9948C1.76255 28.3823 1.47687 27.7493 1.232 27.0959C0.987133 26.4425 0.762669 25.7891 0.599426 25.1153C0.252525 23.7676 0.0484695 22.3792 0.0076561 20.9703C-0.0739632 18.1729 0.497391 15.3551 1.64011 12.7823C2.78283 10.2096 4.53772 7.90224 6.70073 6.08497C8.82292 4.18602 11.394 2.83838 14.1692 2.16456C16.924 1.47032 19.8216 1.38864 22.6172 2.00121C25.4128 2.59335 28.0655 3.83889 30.2693 5.63575C32.4935 7.41218 34.2892 9.69909 35.5544 12.231C36.8195 14.7629 37.5133 17.5603 37.6766 20.3781C37.7582 21.8278 37.6154 23.2776 37.3093 24.6456C37.0032 26.0341 36.5543 27.3818 35.9829 28.6681C35.4115 29.9545 34.6973 31.1796 33.8607 32.3027C33.0241 33.4461 32.065 34.4875 30.9427 35.4063C29.8408 36.3048 28.5552 37.0603 27.1676 37.5299C25.7801 38.0199 24.2292 38.1425 22.7804 37.9179C22.6886 37.9076 22.5968 37.8872 22.505 37.8668C22.4131 37.8464 22.3213 37.826 22.2295 37.8158C22.0459 37.775 21.862 37.7341 21.6989 37.6932L21.1684 37.5095C21.1339 37.4965 21.0985 37.4836 21.0626 37.4705C20.9285 37.4214 20.787 37.3697 20.6582 37.3053L20.1685 37.0807L19.9236 36.9582L19.6788 36.8152C19.5853 36.7591 19.49 36.7049 19.3939 36.6503C19.1752 36.526 18.9527 36.3995 18.7401 36.2435C18.434 36.0393 18.1483 35.7943 17.8626 35.5493C17.5974 35.2838 17.3321 35.0184 17.1076 34.7325C16.6383 34.1608 16.2506 33.5278 15.9649 32.854C15.6792 32.1802 15.4548 31.4859 15.3119 30.7917C15.1691 30.0975 15.0875 29.3828 15.0671 28.6886C15.0467 27.9943 15.0875 27.2797 15.1691 26.6058C15.2507 25.9116 15.3527 25.2378 15.516 24.564C15.8221 23.2163 16.271 21.9095 16.924 20.7048C17.2505 20.0923 17.5974 19.5001 18.0259 18.9692C18.1156 18.8481 18.2082 18.7289 18.3036 18.6119Z" fill="#fd5c63"/>
<path d="M70.8978 13.4417C70.4157 12.9279 69.8303 12.9279 69.1761 12.9279C68.1775 12.9279 67.3855 13.8527 66.869 14.6405C66.4213 15.3255 66.0425 16.1133 65.7326 16.9011C65.7326 16.9011 65.1472 18.5109 64.9062 19.2302C64.8373 18.8877 64.8718 18.4424 64.8718 18.0999C64.8718 17.2094 64.8373 16.3188 64.8373 15.4283C64.8373 15.1543 64.8373 14.846 64.734 14.6062C64.6307 14.3322 64.4241 14.1267 64.1486 14.0582C63.6666 13.9897 63.5632 14.435 63.5288 14.7775C63.4599 15.394 63.3911 15.9763 63.3566 16.5928C63.2533 17.8259 63.1845 19.0589 63.1845 20.2577C63.1845 22.6896 63.3566 25.1557 63.8387 27.5533C63.8732 27.7588 64.0109 27.8958 64.2864 27.9986C64.5963 28.1013 65.1128 28.1356 65.3883 27.8958C65.6982 27.6561 65.5949 27.245 65.5949 26.9025C65.5949 26.4573 65.6293 26.012 65.6293 25.5667C65.6638 24.6419 65.7671 23.7171 65.9048 22.7924C66.1458 20.977 66.5935 19.1959 67.2133 17.4834C67.5576 16.5586 67.9709 15.6338 68.5563 14.846C68.7973 14.5035 69.1761 13.887 69.4171 14.4692C69.5893 14.8118 69.5549 15.2228 69.6237 15.5995C69.6926 16.1476 69.727 16.7298 69.6582 17.2779C69.6237 17.4491 69.5893 17.6204 69.5893 17.8259C69.6926 18.5109 70.7256 18.2369 70.9667 17.8259C71.311 17.2779 71.4487 16.5586 71.4832 15.9078C71.5176 15.5653 71.5176 15.257 71.4832 14.9145C71.3799 14.4007 71.2421 13.8527 70.8978 13.4417Z" fill="#fd5c63"/>
<path d="M99.8228 11.1811C99.685 11.4551 99.4784 11.9689 99.5473 12.3456C99.5817 12.4827 99.6162 12.5854 99.7195 12.6539C100.029 12.8594 100.511 12.6197 100.752 12.4141C101.062 12.1059 101.166 11.5921 101.303 11.1811C101.338 11.0441 101.372 10.9413 101.338 10.8043C101.131 9.98229 100.029 10.7701 99.8228 11.1811Z" fill="#fd5c63"/>
<path d="M142.418 17.4491C142.315 17.3121 142.074 17.2779 141.936 17.3121C141.764 17.3464 141.626 17.4491 141.523 17.5519C140.318 18.5109 139.216 19.7097 138.114 20.8058C137.77 20.1892 137.287 19.6412 136.84 19.0932C136.358 18.5109 135.876 17.8944 135.394 17.3121C135.049 16.8668 134.67 16.4216 134.429 15.9078C133.982 15.0173 133.844 13.2362 135.325 13.4074C135.6 13.4417 135.841 13.5102 136.117 13.5102C136.22 13.5102 136.323 13.5102 136.427 13.4417C136.53 13.4074 136.599 13.3047 136.599 13.2019C136.599 13.0307 136.392 12.9279 136.22 12.8594C135.256 12.5854 134.085 12.6197 133.362 13.4074C132.673 14.161 132.673 15.394 133.018 16.2846C133.19 16.7298 133.465 17.1409 133.706 17.5176C133.19 18.2369 132.673 18.9562 132.226 19.744C131.916 20.2235 131.571 20.8058 131.193 21.3538C130.986 21.6621 130.711 22.0388 130.538 22.2101C130.297 21.9361 130.332 21.2853 130.332 20.9428C130.332 20.5318 130.332 20.0865 130.297 19.6755C130.228 17.6546 130.16 15.7708 129.884 13.75C129.884 13.6472 129.85 13.5444 129.815 13.4417C129.712 13.2704 129.54 13.1677 129.368 13.0992C129.127 12.9964 128.748 12.9279 128.472 12.9279C127.921 12.9622 127.508 13.7842 127.37 14.2637C127.37 13.9555 127.336 13.75 127.198 13.5102C127.026 13.2019 126.819 12.8594 126.406 12.6539C125.545 12.1744 124.684 12.1744 123.789 12.4827C122.584 12.9622 121.62 13.7842 120.862 14.8118C120.38 15.4625 119.933 16.2503 119.554 17.1066C119.416 17.1066 119.313 17.2094 119.244 17.3806C118.831 18.3739 118.452 19.2644 117.97 20.1892C117.522 21.0113 117.006 21.6621 116.351 22.3128C116.179 22.4841 115.835 22.7238 115.628 22.7581C115.318 22.8266 114.974 22.6211 114.767 22.3813C114.32 21.9361 114.113 21.388 113.872 20.8058C113.528 20.018 113.218 19.1959 112.977 18.3739C112.736 17.5861 112.495 16.7983 111.944 16.2161C111.565 15.805 111.014 15.5653 110.463 15.5653C109.327 15.5995 108.776 16.3873 108.363 17.2094C108.121 17.7231 107.915 18.2712 107.743 18.7507C107.639 19.0247 107.433 19.5042 107.295 20.018C107.02 20.9085 106.779 21.8333 106.71 21.7648C106.537 21.6278 106.71 18.7849 106.744 17.2779C106.744 17.1751 106.744 17.0724 106.813 16.9696C106.847 16.9011 106.951 16.8326 106.985 16.7641C107.088 16.6271 107.088 16.4216 107.088 16.2161C107.054 15.8735 106.985 15.531 106.882 15.1885C106.847 15.12 106.847 15.0173 106.779 14.983C106.744 14.9488 106.675 14.9488 106.606 14.9488C105.883 14.8803 105.504 15.0173 105.47 15.8393C105.401 16.7641 105.367 17.6889 105.332 18.6137C104.712 19.9837 104.162 21.251 103.37 22.5868C103.232 22.8266 101.648 24.9502 101.338 24.8132C100.89 24.6077 100.821 23.4089 100.684 22.4156C100.477 21.0455 100.546 19.6755 100.615 18.2712C100.649 17.2779 100.787 16.2846 100.925 15.2913C100.959 15.1885 100.959 15.0858 100.959 14.9488C100.925 14.6747 100.684 14.435 100.408 14.4007C100.064 14.3322 99.4784 14.3665 99.1685 14.572C98.6176 14.9145 98.5831 15.9763 98.5143 16.5243C98.411 17.3464 98.411 18.0999 98.4798 18.8877C98.4798 18.9219 98.4798 18.9219 98.4798 18.9562C98.4454 19.0589 97.7911 20.4633 97.5845 21.0798C97.1369 22.2786 96.7237 23.5116 96.2071 24.6762C95.8284 25.5667 94.8298 26.971 94.3821 26.9368C94.0722 26.9025 93.7967 25.3955 93.659 24.6419C93.5901 24.2309 93.5213 23.8541 93.4868 23.4431C93.4524 23.2719 93.4524 23.1006 93.4524 22.9294C93.2113 20.018 93.2458 17.1066 93.5213 14.1952C93.5901 13.5102 93.659 12.8594 93.7623 12.1744C93.8656 11.3866 93.8656 10.7016 93.9345 9.91379C93.9689 9.43427 93.9 9.22876 94.5887 9.02325C94.8986 8.9205 95.3119 8.81774 95.6562 8.74924C96.3793 8.54373 97.1369 8.33822 97.86 8.13271C99.3407 7.72169 100.821 7.34493 102.302 6.93391C102.405 6.89966 102.543 6.86541 102.646 6.76265C102.715 6.69415 102.75 6.6599 102.75 6.55714C102.75 6.38588 102.578 6.28313 102.44 6.24888C101.923 6.04337 101.338 6.14612 100.821 6.21463C98.893 6.55714 97.068 6.96816 95.2085 7.65319C95.0019 7.72169 94.5543 7.96145 94.3477 7.89295C94.1411 7.7902 94.2444 7.48193 94.2788 7.20792C94.451 5.83786 94.6232 4.4678 94.7953 3.09774C94.8298 2.72097 94.8642 2.30996 94.6232 2.0702C94.3133 1.72768 93.7279 1.86469 93.418 2.17295C93.108 2.48121 93.0047 2.96073 92.9014 3.406C92.7981 3.81702 92.7293 4.22804 92.626 4.63906C92.3849 5.70085 92.1439 6.76265 92.075 7.8587C92.0406 8.16696 91.9717 8.68073 91.7307 8.9205C91.5585 9.09175 91.2486 9.16026 90.9731 9.19451C90.5599 9.26301 90.5599 9.29726 90.1467 9.29726C89.8023 9.29726 89.1825 9.22876 88.8726 9.22876C88.3905 9.22876 87.7018 9.29726 87.2886 9.57127C86.4966 10.1193 87.4264 10.4961 88.0117 10.4961C88.8726 10.4961 89.8368 10.4618 90.6976 10.2221C90.9042 10.1536 91.4896 9.87954 91.5929 10.085C91.7307 10.3248 91.6274 10.5988 91.5929 10.8728C91.2486 13.0307 91.0764 15.12 90.9731 17.2779C90.9731 17.5176 90.9387 17.7574 90.9387 17.9971C90.6976 18.4082 90.5599 18.9219 90.3877 19.2987C90.0089 20.0865 89.5613 20.84 89.0448 21.525C88.6316 22.0731 88.1495 22.6211 87.5985 23.0664C87.1509 23.4774 86.5311 24.0254 85.8768 23.9912C85.6358 23.9912 85.3947 23.8884 85.2225 23.6829C84.706 23.1349 84.5339 22.4498 84.5339 22.4498C84.3961 21.9361 84.3272 21.388 84.3617 20.9085C84.3617 20.6345 84.3961 20.0522 84.3961 20.0522C84.3961 20.0522 84.8093 19.8467 85.0159 19.7097C85.3603 19.47 85.6358 19.2644 85.8768 18.9904C86.4966 18.3397 86.9787 17.6889 87.3575 16.9353C87.7363 16.0106 88.0462 14.8118 86.9787 14.2637C85.257 13.3732 84.1206 15.0515 83.5008 16.3873C83.3287 16.7641 83.1565 17.1409 82.9843 17.5176C82.8121 17.9629 82.7777 18.4424 82.5711 18.8877C82.4678 19.1274 82.33 19.3672 82.1923 19.607C81.7791 20.292 81.3659 21.0113 80.8494 21.6278C80.3328 22.2786 79.7819 22.8609 79.1965 23.4431C78.8522 23.7856 78.4734 24.1282 78.0602 24.4364C77.7158 24.7104 77.2682 24.9159 76.8894 25.1215C75.2365 26.0462 74.2379 23.1006 74.4446 21.9018C75.1677 21.525 75.8564 20.8743 76.4073 20.292C76.9927 19.6755 77.5092 19.0247 77.9569 18.3054C78.6111 17.2436 79.2998 15.805 78.9555 14.5377C78.8522 14.161 78.6111 13.7842 78.2668 13.613C78.0257 13.4759 77.7503 13.4417 77.4748 13.3732C76.4762 13.2019 75.7531 13.613 75.1332 14.4007C74.4446 15.2228 73.7214 16.0448 73.3426 17.0724C73.1705 17.5176 72.9983 17.9971 72.8261 18.4767C72.654 18.9904 72.5162 19.3672 72.4129 19.881C72.3096 20.3947 72.2063 20.9428 72.1374 21.4565C72.0686 22.1073 72.344 23.4089 72.344 23.4089C72.4818 23.8884 72.654 24.3337 72.9294 24.7447C74.2724 26.7655 77.2337 27.1423 79.1621 25.7722C80.3673 24.9159 81.2626 23.6486 82.089 22.4498C82.1579 22.3471 82.2267 22.2101 82.2956 22.1073C82.3645 22.4156 82.4334 22.6553 82.4678 22.8609C82.9499 25.1215 85.6013 25.601 87.4952 24.7789C88.0117 24.5734 88.4938 24.1967 88.907 23.8199C89.7335 23.0664 90.3533 22.2443 90.8698 21.3195C90.8698 21.8333 90.9042 22.3471 90.9387 22.8609C91.042 24.0597 91.283 25.1215 91.6618 26.286C91.7307 26.56 91.834 26.834 91.9717 27.0738C92.3849 27.7931 93.0392 28.2383 93.8312 28.4096C96.5515 29.0946 97.9633 25.3612 98.7897 23.3404C98.7897 23.3061 98.8242 23.2719 98.8242 23.2376C98.893 23.4774 98.9619 23.7171 99.0652 23.9569C99.685 25.464 100.649 26.3888 102.061 25.7722C102.474 25.601 102.75 25.2242 103.025 24.9159C103.542 24.2652 103.989 23.5459 104.403 22.8266C104.712 22.2443 105.022 21.6621 105.263 21.0455C105.229 22.5183 105.195 23.9912 105.401 25.464C105.436 25.7037 105.47 25.9435 105.608 26.149C105.849 26.4915 106.331 26.5943 106.675 26.3888C107.261 26.0462 107.364 25.19 107.502 24.6077C107.708 23.7857 107.915 22.9979 108.19 22.2101C108.707 20.6688 109.327 19.1959 110.084 17.7916C110.153 17.6546 110.222 17.5176 110.394 17.5176C110.497 17.5176 110.566 17.7916 110.566 17.8601C110.911 19.0589 111.358 20.2235 111.875 21.388C112.185 22.0731 112.529 22.7581 113.046 23.3061C114.079 24.3679 116.145 24.5049 117.35 23.3404C117.798 22.9294 118.176 22.4156 118.486 21.8676C118.555 21.7306 118.624 21.6278 118.693 21.4908C118.693 21.5593 118.693 21.6278 118.693 21.6963C118.693 22.2101 118.796 22.7238 119.003 23.2034C119.554 24.4022 120.897 25.1215 122.205 25.0872C123.514 25.053 124.753 24.3337 125.649 23.3746C126.751 22.1758 127.164 20.6688 127.784 19.2302C127.99 20.292 127.956 21.5936 127.956 22.6211C127.956 23.6829 127.887 24.4022 127.921 25.464C127.921 25.6352 127.921 25.8065 127.887 25.9435C127.852 26.149 127.749 26.2175 127.646 26.3888C126.785 27.8958 125.993 29.5742 125.442 31.2525C124.891 32.8965 124.581 34.6434 124.788 36.3559C124.857 36.9725 125.098 37.6575 125.58 38C125.855 38.2055 126.234 38.3083 126.613 38.3425C126.888 38.3768 127.198 38.3425 127.474 38.2398C128.025 38 128.3 37.4177 128.541 36.904C129.23 35.1914 129.643 33.4103 129.953 31.595C130.228 29.9852 130.401 28.3754 130.469 26.7655C130.504 25.9777 130.469 25.1557 130.538 24.3679C130.573 23.6486 131.055 23.3746 131.399 22.8951C131.916 22.1758 132.294 21.7306 132.742 21.0455C133.155 20.4632 133.672 19.607 134.016 18.9904C134.12 18.7849 134.188 18.6137 134.257 18.4082C134.395 18.6137 134.533 18.8192 134.636 18.9562C135.118 19.607 135.566 20.155 136.082 20.7715C136.289 21.0455 136.496 21.2853 136.668 21.6278C136.737 21.7648 136.805 21.9361 136.805 21.9361C136.805 21.9361 136.668 22.1416 136.599 22.2443C136.392 22.5183 136.22 22.6553 135.979 22.9636C135.704 23.2719 135.497 23.5801 135.256 23.8542C134.912 24.2994 134.567 24.8132 134.292 25.327C133.844 26.0462 133.637 26.9368 133.672 27.7931C133.706 28.1356 133.81 28.4096 133.947 28.6836C134.67 30.1564 136.805 30.1907 138.079 29.5056C139.732 28.6494 140.077 27.0053 140.042 25.2927C140.042 25.19 140.008 24.8474 139.973 24.6419C139.767 23.4774 138.699 21.6278 138.699 21.6278C138.699 21.6278 139.147 21.251 139.491 20.9085C139.836 20.566 140.214 20.1207 140.559 19.7782C141.11 19.1959 141.626 18.8192 142.177 18.3054C142.281 18.2027 142.418 18.1341 142.522 17.9971C142.487 17.7916 142.522 17.5861 142.418 17.4491ZM84.6372 17.6204C84.8782 16.7983 85.3947 15.0515 85.9112 15.0515C86.1523 15.0515 86.1523 15.4625 86.1867 15.7023C86.1867 15.9078 86.1523 16.1476 86.0834 16.3531C85.7735 17.3464 85.2914 18.2027 84.5339 18.9562C84.465 18.5109 84.5339 17.9971 84.6372 17.6204ZM74.9955 18.0314C75.3054 17.0038 75.6153 15.9421 76.2351 15.0858C76.3729 14.8803 76.5451 14.6747 76.7517 14.5035C76.9927 14.298 77.1649 14.1267 77.3026 14.435C77.6125 14.983 77.2337 15.9763 76.9927 16.4558C76.4073 17.8259 75.5809 19.0589 74.5479 20.1207C74.5823 19.4015 74.7889 18.7164 74.9955 18.0314ZM126.785 15.7023C126.578 16.7298 126.096 17.6546 125.752 18.6479C125.373 19.6755 124.96 20.7373 124.375 21.6621C123.789 22.5868 122.997 23.4089 121.964 23.7856C121.826 23.8199 121.689 23.8884 121.551 23.8199C121.448 23.7856 121.379 23.7171 121.31 23.6486C120.862 23.1691 120.621 22.4841 120.587 21.7991C120.483 20.8058 120.725 19.8125 120.966 18.8534C121.275 17.6546 121.654 16.4901 122.274 15.4625C122.894 14.4007 123.824 13.613 124.994 13.1677C125.201 13.0992 125.408 13.0992 125.614 13.1334C125.786 13.1677 125.959 13.3389 126.062 13.4759C126.372 13.8185 126.716 14.3322 126.785 14.9488C126.819 15.2913 126.819 15.4625 126.785 15.7023ZM127.611 29.4029C127.577 29.7112 127.543 29.9852 127.508 30.2934C127.439 30.91 127.37 31.5265 127.267 32.1773C127.06 33.6843 126.819 35.3627 126.2 36.63C125.27 36.1162 126.131 30.6702 127.646 28.6836C127.68 28.7521 127.611 29.3344 127.611 29.4029ZM137.701 27.2793C137.529 27.7588 137.287 28.1356 136.909 28.5124C136.771 28.6494 136.633 28.7864 136.427 28.8206C136.117 28.8891 135.841 28.8891 135.635 28.6494C135.428 28.4439 135.256 28.2041 135.153 27.8958C135.084 27.6903 135.015 26.9025 135.118 26.4915C135.325 25.8065 135.6 25.1557 135.945 24.5392C136.117 24.2309 136.323 23.9569 136.53 23.6486L136.564 23.6144C136.737 23.3746 136.909 23.0664 137.184 22.8951C137.288 23.2034 137.563 23.7856 137.701 24.4022C137.873 25.053 137.873 25.7722 137.873 26.012C137.942 26.423 137.804 27.0395 137.701 27.2793Z" fill="#fd5c63"/>
<path d="M61.8415 16.4901C61.6349 16.4901 61.4283 16.5586 61.1528 16.6956C60.3953 17.1751 59.2589 17.5176 57.8127 17.7574C57.6405 17.7574 57.4339 17.7916 57.2617 17.8601C56.6419 17.9286 56.0221 17.9971 55.4367 17.9971C54.3692 18.0314 53.5084 17.9629 52.8886 17.7916C52.6475 17.7231 52.4409 17.7574 52.3032 17.8259C52.1654 17.8944 52.0966 18.0656 52.0966 18.2712C52.0966 18.4767 52.1654 18.6479 52.3032 18.8192C52.4409 18.9904 52.6131 19.1274 52.8541 19.1617C53.956 19.4015 55.1612 19.47 56.3664 19.3672C56.4353 20.566 56.2976 21.7306 55.9532 22.8609C55.6089 24.0254 55.0579 24.9502 54.3692 25.6695C53.6806 26.3888 52.923 26.7655 52.0966 26.7655C51.3734 26.7998 50.6159 26.423 49.8583 25.7037C49.1008 24.9844 48.4465 23.9569 47.93 22.6553C47.4135 21.3538 47.138 19.9152 47.0691 18.3739C47.0003 15.6338 47.379 12.9622 48.171 10.5988C48.963 8.23547 50.1338 6.31738 51.6489 4.94732C53.164 3.57726 54.9546 2.82373 57.0207 2.75523C58.6391 2.72097 59.4655 3.3375 59.5 4.63906C59.5 4.98157 59.4655 5.32409 59.3967 5.63235C59.2934 6.11187 59.2934 6.18038 59.2934 6.21463C59.2589 6.55714 59.2934 6.83115 59.4311 7.03666C59.6033 7.31068 59.8443 7.34493 59.9821 7.34493C60.2575 7.34493 60.4986 7.13942 60.7052 6.7969C60.8774 6.45439 60.9807 5.97487 60.9462 5.35834C60.9118 4.36505 60.5674 3.47451 59.8788 2.68672C59.2245 1.93319 57.9849 1.55642 56.2287 1.59067C55.8844 1.59067 55.6089 1.62493 55.4023 1.65918C53.5084 1.89894 51.6145 2.75523 49.8583 4.22804C48.1022 5.70085 46.6559 7.72169 45.5884 10.2221C44.5554 12.7224 44.0733 15.5995 44.1422 18.7849C44.1766 20.1892 44.4865 21.6278 45.0375 23.0321C45.5884 24.4707 46.5182 25.6695 47.7234 26.6285C48.8942 27.5533 50.3748 27.9986 52.0966 27.9986C52.1999 27.9986 52.3032 27.9986 52.4065 27.9986C53.6117 27.9643 54.7136 27.4848 55.7122 26.6285C56.6764 25.738 57.4339 24.6077 57.9849 23.2376C58.5014 21.9018 58.708 20.4975 58.6391 19.0932C59.9821 18.7507 61.084 18.3054 61.8415 17.7231C62.2203 17.4834 62.3925 17.2094 62.3925 16.9353C62.3925 16.7983 62.3236 16.6613 62.2203 16.5928C62.117 16.5243 61.9793 16.4901 61.8415 16.4901Z" fill="#fd5c63"/>
<path d="M70.1849 31.4956H71.783V38.411H70.1849V31.4956Z" fill="#fd5c63"/>
<path d="M80.7768 33.422C80.4127 33.2047 80.0249 33.0335 79.6136 32.9083C79.209 32.7766 78.8618 32.7107 78.5718 32.7107C78.2954 32.7107 78.0762 32.7601 77.9144 32.8589C77.7526 32.9577 77.6716 33.1026 77.6716 33.2936C77.6716 33.5373 77.7863 33.725 78.0155 33.8567C78.2515 33.9819 78.6123 34.1136 79.0978 34.2519C79.5833 34.3902 79.9811 34.5285 80.2913 34.6668C80.6082 34.8051 80.8779 35.0126 81.1004 35.2892C81.323 35.5658 81.4342 35.9314 81.4342 36.3858C81.4342 36.8271 81.3128 37.2091 81.0701 37.5318C80.8341 37.8479 80.5071 38.0883 80.089 38.253C79.6709 38.4176 79.1956 38.4999 78.6629 38.4999C78.0897 38.4999 77.5267 38.4012 76.9737 38.2036C76.4208 38.006 75.9421 37.736 75.5375 37.3935L76.1747 36.1191C76.5321 36.4352 76.9434 36.6888 77.4087 36.8798C77.8739 37.0708 78.2987 37.1663 78.6831 37.1663C79.0135 37.1663 79.2697 37.107 79.4518 36.9884C79.6406 36.8699 79.735 36.6986 79.735 36.4747C79.735 36.2969 79.6709 36.152 79.5428 36.04C79.4214 35.9215 79.263 35.826 79.0674 35.7535C78.8786 35.6811 78.6157 35.5988 78.2785 35.5065C77.793 35.3748 77.3952 35.2431 77.085 35.1114C76.7816 34.9797 76.5186 34.7788 76.2961 34.5087C76.0736 34.2387 75.9623 33.8798 75.9623 33.4319C75.9623 33.017 76.0769 32.6547 76.3062 32.3452C76.5355 32.0291 76.8557 31.7887 77.2671 31.624C77.6784 31.4528 78.1571 31.3672 78.7033 31.3672C79.1888 31.3672 79.6676 31.4363 80.1396 31.5746C80.6116 31.7129 81.0296 31.8973 81.3938 32.1279L80.7768 33.422Z" fill="#fd5c63"/>
<path d="M85.3125 31.4956H86.9106V37.0477H89.945V38.411H85.3125V31.4956Z" fill="#fd5c63"/>
<path d="M98.9204 38.411L98.3641 37.0675H95.087L94.5307 38.411H92.8821L95.9569 31.4956H97.6055L100.63 38.411H98.9204ZM95.613 35.8128H97.8483L96.7357 33.1257L95.613 35.8128Z" fill="#fd5c63"/>
<path d="M109.02 31.4956H110.537V38.411H109.081L105.652 33.9654V38.411H104.124V31.4956H105.581L109.02 35.961V31.4956Z" fill="#fd5c63"/>
<path d="M117.858 31.4956C118.579 31.4956 119.223 31.6438 119.79 31.9402C120.356 32.2299 120.795 32.6383 121.105 33.1652C121.422 33.6855 121.58 34.2815 121.58 34.9533C121.58 35.6251 121.418 36.2244 121.095 36.7513C120.778 37.2716 120.333 37.68 119.759 37.9763C119.186 38.2661 118.532 38.411 117.797 38.411H114.854V31.4956H117.858ZM117.898 37.0971C118.289 37.0971 118.64 37.0082 118.95 36.8304C119.267 36.6459 119.513 36.3924 119.689 36.0697C119.864 35.7469 119.952 35.3781 119.952 34.9632C119.952 34.5483 119.857 34.1761 119.668 33.8468C119.486 33.5175 119.234 33.264 118.91 33.0861C118.593 32.9017 118.232 32.8095 117.828 32.8095H116.452V37.0971H117.898Z" fill="#fd5c63"/>
</svg>


