<?xml version="1.0" encoding="iso-8859-1"?>
<!-- Uploaded to: SVG Repo, www.svgrepo.com, Generator: SVG Repo Mixer Tools -->
<svg fill="#000000" height="800px" width="800px" version="1.1" id="Layer_1" xmlns="http://www.w3.org/2000/svg" xmlns:xlink="http://www.w3.org/1999/xlink" 
	 viewBox="0 0 512 512" xml:space="preserve">
<g>
	<g>
		<path d="M508.232,396.615c-5.974-9.187-16.873-12.727-27.124-8.811c-15.89,6.073-32.443,10.687-49.201,13.712
			c-5.243,0.947-8.727,5.966-7.78,11.209s5.967,8.72,11.209,7.78c17.936-3.239,35.652-8.177,52.66-14.677
			c2.121-0.813,3.379,0.261,4.058,1.306c0.96,1.475,0.812,2.863-0.441,4.121c-52.26,52.524-121.843,81.449-195.931,81.449
			c-73.883,0-143.304-28.734-195.479-80.91S19.295,290.196,19.295,216.315c0-74.09,28.926-143.672,81.45-195.93
			c1.258-1.253,2.643-1.402,4.121-0.441c1.043,0.678,2.117,1.933,1.304,4.058c-12.869,33.67-19.393,69.177-19.393,105.536
			c0,78.724,30.828,152.907,86.805,208.883c55.978,55.977,130.161,86.803,208.884,86.801c5.329,0,9.648-4.32,9.648-9.648
			s-4.32-9.648-9.648-9.648c-73.57,0.001-142.908-28.818-195.24-81.149c-52.332-52.331-81.154-121.669-81.154-195.239
			c0-33.995,6.097-67.184,18.122-98.647c3.917-10.25,0.377-21.15-8.811-27.124c-9.15-5.948-20.502-4.767-28.248,2.939
			C30.946,62.612,0,137.053,0,216.315c0,79.036,30.741,153.304,86.561,209.124c55.82,55.821,130.088,86.561,209.124,86.561
			c79.261,0,153.7-30.946,209.609-87.134C513.001,417.117,514.182,405.765,508.232,396.615z"/>
	</g>
</g>
<g>
	<g>
		<path d="M459.859,111.677c-2.306-7.101-8.329-12.178-15.717-13.251l-47.307-6.874L375.68,48.687
			c-3.303-6.694-9.994-10.853-17.458-10.853s-14.155,4.159-17.46,10.853l-21.156,42.866L272.3,98.428
			c-7.388,1.073-13.41,6.151-15.717,13.251c-2.306,7.101-0.418,14.748,4.927,19.958l34.231,33.366l-8.081,47.115
			c-1.262,7.358,1.706,14.654,7.745,19.042c6.039,4.388,13.896,4.955,20.504,1.482l42.312-22.245l42.313,22.245
			c2.874,1.51,5.984,2.256,9.078,2.256c4.02,0,8.013-1.259,11.425-3.739c6.039-4.388,9.007-11.684,7.745-19.042l-8.081-47.115
			l34.23-33.365C460.277,126.425,462.166,118.778,459.859,111.677z M441.462,117.818L403.6,154.725
			c-2.274,2.216-3.311,5.41-2.775,8.539l8.956,52.196c-0.028,0.054-0.141,0.138-0.27,0.102l-46.801-24.604
			c-2.812-1.477-6.168-1.477-8.979,0l-46.872,24.648c-0.059-0.009-0.171-0.09-0.181-0.226l8.938-52.114
			c0.536-3.13-0.5-6.322-2.775-8.539l-37.925-36.963c-0.009-0.059,0.033-0.19,0.159-0.242l52.325-7.604
			c3.143-0.457,5.858-2.43,7.264-5.278l23.433-47.491c0.035-0.018,0.103-0.024,0.156-0.024c0.03,0,0.055,0.003,0.067,0.005
			c0,0,0.023,0.026,0.057,0.095l23.4,47.415c1.406,2.847,4.121,4.821,7.264,5.278l52.41,7.611
			C441.492,117.571,441.534,117.702,441.462,117.818z"/>
	</g>
</g>
</svg>