<?xml version="1.0" encoding="utf-8"?>
<!-- Generator: Adobe Illustrator 26.0.1, SVG Export Plug-In . SVG Version: 6.00 Build 0)  -->
<svg   width="40" height="50" fill="none" version="1.1" id="Layer_1" xmlns="http://www.w3.org/2000/svg" xmlns:xlink="http://www.w3.org/1999/xlink" x="0px" y="0px"
	 viewBox="0 0 36.3 40" style="enable-background:new 0 0 36.3 40;" xml:space="preserve">
<style type="text/css">
	.st0{fill:#FFE9E9;}
	.st1{fill:#FFCCCC;}
	.st2{fill:#FD5C63;}
	.st3{fill:#FFFFFF;}
</style>
<path class="st0" d="M32.7,32.1L15.2,38c-1,0.3-2-0.2-2.3-1.2L4.1,10.7c-0.3-1,0.2-2,1.2-2.3l17.5-5.9c1-0.3,2,0.2,2.3,1.2l8.8,26.2
	C34.2,30.8,33.7,31.8,32.7,32.1z"/>
<path class="st1" d="M30.9,34l-18.2,3.3c-1,0.2-2-0.5-2.2-1.5l-5-27.2c-0.2-1,0.5-2,1.5-2.2l18.2-3.3c1-0.2,2,0.5,2.2,1.5l5,27.2
	C32.6,32.8,31.9,33.8,30.9,34z"/>
<path class="st2" d="M28.2,35.9H9.7c-1,0-1.8-0.8-1.8-1.8V6.4c0-1,0.8-1.8,1.8-1.8h18.5c1,0,1.8,0.8,1.8,1.8V34
	C30.1,35.1,29.3,35.9,28.2,35.9z"/>
<g>
	<path class="st3" d="M24.9,26.8c-0.2,0.2-0.5,0.3-0.7,0.5L23,25.4v0l-1.7-3v0l-0.8-1.4c0,0-1.5-0.1-3.5,1.2c0,0-0.1,0-0.1,0.1
		c-1.2,0.7-2.1,2.1-2.1,3.6c0,2.3,1.9,4.2,4.2,4.2c0.5,0,0.9-0.1,1.3-0.2c1.2,0,2.1,1.9,2.5,2.7c-0.3,0.2-0.7,0.4-1.1,0.6
		c-1,0.5-2.2,0.8-3.4,0.8c-4.5,0-8.1-3.6-8.1-8.1c0-2.8,1.4-5.3,3.6-6.8c0.6-0.4,1.2-0.7,1.8-0.9v0c1.3-0.6,2.8-0.7,5.1-1.3v0
		c1.4-0.2,2.5-1.5,2.5-3c0-1.7-1.4-3.1-3.1-3.1c-0.2,0-0.3,0-0.5,0l0,0h0c0,0-0.9,0-1.4-1.4c-0.3-0.7-0.4-1.3-0.6-1.8
		c-0.1-0.5-0.2-0.8-0.2-0.8h3.9c3.7,0.2,6.6,3.3,6.6,7c0,2.2-1,4.2-2.6,5.4c0,0,0,0,0,0c0,0,0,0,0,0c-0.1,0.1-0.3,0.4-0.1,0.8
		l1.8,3.3C27.1,23.2,28,24.7,24.9,26.8z"/>
</g>
</svg>
