<?xml version="1.0" encoding="utf-8"?>
<!-- Generator: Adobe Illustrator 26.0.1, SVG Export Plug-In . SVG Version: 6.00 Build 0)  -->
<svg  width="160" height="42" fill="none" version="1.1" id="Layer_1" xmlns="http://www.w3.org/2000/svg" xmlns:xlink="http://www.w3.org/1999/xlink" x="0px" y="0px"
	 viewBox="0 0 143 40" style="enable-background:new 0 0 143 40;" xml:space="preserve">
<style type="text/css">
	.st0{fill:#FFE9E9;}
	.st1{fill:#FFCCCC;}
	.st2{fill:#FD5C63;}
	.st3{fill:#FFFFFF;}
</style>
<path class="st0" d="M32.7,32.1L15.2,38c-1,0.3-2-0.2-2.3-1.2L4.1,10.7c-0.3-1,0.2-2,1.2-2.3l17.5-5.9c1-0.3,2,0.2,2.3,1.2l8.8,26.2
	C34.2,30.8,33.7,31.8,32.7,32.1z"/>
<path class="st1" d="M30.9,34l-18.2,3.3c-1,0.2-2-0.5-2.2-1.5l-5-27.2c-0.2-1,0.5-2,1.5-2.2l18.2-3.3c1-0.2,2,0.5,2.2,1.5l5,27.2
	C32.6,32.8,31.9,33.8,30.9,34z"/>
<path class="st2" d="M28.2,35.9H9.7c-1,0-1.8-0.8-1.8-1.8V6.4c0-1,0.8-1.8,1.8-1.8h18.5c1,0,1.8,0.8,1.8,1.8V34
	C30.1,35.1,29.3,35.9,28.2,35.9z"/>
<g>
	<path class="st3" d="M24.9,26.8c-0.2,0.2-0.5,0.3-0.7,0.5L23,25.4v0l-1.7-3v0l-0.8-1.4c0,0-1.5-0.1-3.5,1.2c0,0-0.1,0-0.1,0.1
		c-1.2,0.7-2.1,2.1-2.1,3.6c0,2.3,1.9,4.2,4.2,4.2c0.5,0,0.9-0.1,1.3-0.2c1.2,0,2.1,1.9,2.5,2.7c-0.3,0.2-0.7,0.4-1.1,0.6
		c-1,0.5-2.2,0.8-3.4,0.8c-4.5,0-8.1-3.6-8.1-8.1c0-2.8,1.4-5.3,3.6-6.8c0.6-0.4,1.2-0.7,1.8-0.9v0c1.3-0.6,2.8-0.7,5.1-1.3v0
		c1.4-0.2,2.5-1.5,2.5-3c0-1.7-1.4-3.1-3.1-3.1c-0.2,0-0.3,0-0.5,0l0,0h0c0,0-0.9,0-1.4-1.4c-0.3-0.7-0.4-1.3-0.6-1.8
		c-0.1-0.5-0.2-0.8-0.2-0.8h3.9c3.7,0.2,6.6,3.3,6.6,7c0,2.2-1,4.2-2.6,5.4c0,0,0,0,0,0c0,0,0,0,0,0c-0.1,0.1-0.3,0.4-0.1,0.8
		l1.8,3.3C27.1,23.2,28,24.7,24.9,26.8z"/>
</g>
<g>
	<path class="st2" d="M49.9,28.5c-0.4,0-0.9-0.3-1.5-0.8c-0.6-0.5-1.2-1.2-1.8-2.1c-0.6-0.9-1.2-1.8-1.8-2.8c-0.6-1-1.2-2.1-1.7-3.1
		c-0.5-1-0.9-1.9-1.3-2.8c-0.5,1.9-1.1,3.8-1.6,5.6s-1,3.5-1.4,5c-0.5,0-0.9-0.1-1.3-0.4c-0.4-0.3-0.6-0.6-0.6-1
		c0-0.2,0-0.5,0.1-0.8c0.1-0.3,0.2-0.6,0.3-0.8c0.5-1.5,1-3,1.4-4.3c0.5-1.4,0.9-2.7,1.4-3.9c0.4-1.3,0.9-2.5,1.4-3.7s1-2.5,1.5-3.7
		c0.5-1.3,1.1-2.6,1.7-3.9c-0.8,0.1-1.5,0.3-2.1,0.6c-0.6,0.3-1.1,0.5-1.5,0.7c-0.4,0.2-0.6,0.3-0.8,0.3c-0.1,0-0.2,0-0.3-0.1
		S39.7,6.1,39.6,6c-0.1-0.1-0.2-0.2-0.2-0.3c0.5-0.2,1.1-0.4,1.8-0.7c0.7-0.3,1.4-0.5,2.2-0.6s1.7-0.3,2.5-0.3
		c0.8,0,1.7,0.1,2.5,0.3c0.9,0.2,1.7,0.5,2.4,1c0.7,0.4,1.3,1,1.8,1.7c0.4,0.7,0.7,1.5,0.7,2.5c0,0.9-0.2,1.8-0.7,2.5
		c-0.4,0.7-1,1.3-1.7,1.7s-1.5,0.8-2.3,1.1c-0.8,0.3-1.7,0.5-2.5,0.6c-0.8,0.1-1.5,0.2-2.2,0.3c-0.7,0-1.2,0.1-1.5,0.1
		c0.6,1,1.2,2,1.7,3c0.5,1,1.1,1.9,1.8,2.9c0.6,1,1.4,1.9,2.3,2.9s1.9,2,3.2,3c-0.1,0.3-0.3,0.5-0.6,0.7
		C50.4,28.4,50.2,28.5,49.9,28.5z M42.3,15.3c1-0.1,2.1-0.2,3.2-0.5c1.1-0.3,2.1-0.7,2.9-1.2c0.9-0.5,1.6-1.2,2.1-1.9
		c0.5-0.8,0.8-1.7,0.8-2.8c0-1.1-0.3-1.9-0.8-2.5s-1.2-1-1.9-1.3c-0.8-0.3-1.6-0.4-2.5-0.4c-0.7,1.3-1.3,2.9-2,4.8
		C43.5,11.3,42.9,13.3,42.3,15.3z"/>
	<path class="st2" d="M56.3,26.2c-1.2,0-2.1-0.3-2.7-1s-0.9-1.4-0.9-2.4c0-0.9,0.2-1.8,0.7-2.8c0.4-1,1-1.9,1.7-2.7
		c0.7-0.9,1.5-1.5,2.4-2.1c0.9-0.5,1.7-0.8,2.6-0.8c0.4,0,0.9,0.1,1.2,0.3s0.6,0.7,0.6,1.4c0,0.7-0.2,1.4-0.7,2.1s-1,1.2-1.7,1.7
		c-0.7,0.5-1.5,0.9-2.3,1.2s-1.7,0.5-2.5,0.6c0,0.2-0.1,0.4-0.1,0.6c0,0.2,0,0.3,0,0.5c0,0.3,0,0.6,0.1,0.9c0.1,0.3,0.2,0.6,0.4,0.8
		c0.2,0.2,0.4,0.4,0.7,0.6c0.3,0.1,0.7,0.2,1.1,0.2c0.8,0,1.7-0.2,2.5-0.7c0.8-0.5,1.6-1.1,2.3-1.9s1.3-1.6,1.8-2.6l0.3,0.3
		c-0.5,1.2-1.2,2.2-2,3c-0.8,0.9-1.7,1.5-2.6,2C58.2,26,57.3,26.2,56.3,26.2z M54.9,21.4c0.5-0.2,1.1-0.4,1.8-0.8
		c0.7-0.3,1.3-0.7,1.9-1.2c0.6-0.5,1.1-1,1.5-1.5c0.4-0.6,0.6-1.2,0.6-1.8c0-0.2,0-0.4-0.1-0.5c-0.1-0.1-0.2-0.2-0.5-0.2
		c-0.5,0-1,0.2-1.5,0.5c-0.5,0.4-1,0.8-1.5,1.4c-0.5,0.6-0.9,1.2-1.3,1.9C55.4,20,55.1,20.7,54.9,21.4z"/>
	<path class="st2" d="M64.6,25.8c-0.3,0-0.7-0.1-1-0.2c-0.3-0.2-0.6-0.4-0.8-0.8c-0.2-0.4-0.3-0.8-0.3-1.4c0-0.6,0.2-1.4,0.5-2.1
		c0.3-0.8,0.7-1.6,1.2-2.4c0.5-0.8,1.1-1.5,1.8-2.2c0.7-0.7,1.4-1.2,2.1-1.6c0.7-0.4,1.5-0.6,2.2-0.6c0.4,0,0.7,0.1,0.9,0.2
		c0.2,0.1,0.3,0.4,0.3,0.7c0,0.1,0,0.1,0,0.2s0,0.1,0,0.2c-0.1-0.2-0.2-0.3-0.4-0.3c-0.2-0.1-0.4-0.1-0.7-0.1
		c-0.6,0-1.2,0.2-1.8,0.6c-0.6,0.4-1.1,0.9-1.6,1.5s-0.9,1.3-1.3,2s-0.7,1.4-0.9,2c-0.2,0.6-0.3,1.2-0.3,1.6c0,0.4,0.1,0.8,0.3,1
		c0.2,0.3,0.4,0.4,0.8,0.4c0.5,0,1.2-0.3,1.9-1s1.5-1.6,2.3-2.8c0.8-1.2,1.5-2.6,2.1-4.2c0.4-1.1,0.9-2.3,1.3-3.4s0.9-2.3,1.4-3.4
		c0.5-1.1,0.9-2,1.4-2.9c0.4-0.8,0.9-1.5,1.2-2s0.8-0.7,1.1-0.7c0.2,0,0.3,0.1,0.4,0.2c0.1,0.1,0.2,0.3,0.2,0.5
		c0,0.3-0.2,0.8-0.5,1.6C77.9,7.1,77.4,8,76.9,9c-0.5,1-1,2.2-1.6,3.4c-0.6,1.2-1.1,2.5-1.6,3.7c-0.5,1.3-0.9,2.5-1.2,3.6
		C72.1,20.9,72,22,72,22.9c0,0.5,0,0.9,0.1,1.2c0.1,0.3,0.3,0.4,0.6,0.4c0.4,0,0.9-0.2,1.4-0.5c0.5-0.3,1.1-0.8,1.6-1.5
		c0.5-0.6,1-1.4,1.4-2.3l0.3,0.3c-0.4,1-0.9,1.9-1.5,2.7c-0.6,0.8-1.3,1.4-2,1.9c-0.7,0.5-1.4,0.7-2.1,0.7c-0.7,0-1.2-0.2-1.5-0.7
		c-0.3-0.5-0.4-1-0.4-1.5c0-0.3,0-0.8,0.1-1.3c0.1-0.5,0.2-1.1,0.4-1.8c-0.6,1-1.3,2-2,2.8c-0.7,0.8-1.4,1.5-2,1.9
		C65.8,25.6,65.2,25.8,64.6,25.8z"/>
	<path class="st2" d="M90.5,27.5c-1.4,0-2.5-0.3-3.3-1c-0.8-0.7-1.5-1.6-1.8-2.7c-0.4-1.1-0.6-2.2-0.6-3.4c0-1.5,0.2-3.1,0.7-4.6
		c0.5-1.5,1.1-3,1.9-4.4c0.8-1.4,1.7-2.7,2.7-3.7c1-1.1,2.1-2,3.2-2.6c1.1-0.6,2.2-0.9,3.4-0.9c0.8,0,1.4,0.2,1.9,0.6
		c0.5,0.4,0.7,1,0.7,1.9c0,0.6-0.1,1.2-0.3,1.9c-0.2,0.7-0.5,1.4-0.8,2s-0.7,1.2-1.1,1.6s-0.8,0.6-1.2,0.6c-0.2,0-0.3,0-0.5-0.1
		c-0.2-0.1-0.3-0.3-0.4-0.5c0.3-0.3,0.6-0.7,1-1.2c0.4-0.5,0.7-1,1-1.6c0.3-0.6,0.6-1.1,0.8-1.6s0.3-1,0.3-1.4
		c0-0.4-0.1-0.7-0.3-0.9C97.6,5.1,97.3,5,96.8,5c-0.8,0-1.7,0.3-2.6,1c-0.9,0.7-1.8,1.6-2.6,2.7s-1.6,2.4-2.3,3.8
		c-0.7,1.4-1.2,2.8-1.6,4.3c-0.4,1.5-0.6,2.8-0.6,4.2c0,0.9,0.1,1.9,0.4,2.7c0.3,0.9,0.7,1.6,1.3,2.1c0.6,0.5,1.4,0.8,2.4,0.8
		c1,0,2-0.3,3.1-0.9c1-0.6,1.9-1.3,2.8-2.3c0.9-0.9,1.5-2,2-3.1l0.4,0.3c-0.6,1.3-1.4,2.4-2.3,3.5c-0.9,1.1-1.9,1.9-3,2.5
		C93,27.2,91.8,27.5,90.5,27.5z"/>
	<path class="st2" d="M101,26.3c-0.6,0-1.1-0.2-1.5-0.6c-0.4-0.4-0.6-1-0.6-1.8c0-0.7,0.2-1.4,0.5-2.3c0.3-0.8,0.7-1.6,1.3-2.4
		c0.5-0.8,1.2-1.5,1.8-2.1c0.7-0.6,1.4-1.2,2.2-1.6c0.8-0.4,1.5-0.6,2.3-0.6s1.4,0.2,1.9,0.6c0.5,0.4,0.8,0.9,0.8,1.6
		c0,0.5-0.1,0.8-0.4,1c-0.3,0.2-0.6,0.3-1,0.3c0-0.2,0.1-0.3,0.1-0.5c0-0.2,0-0.4,0-0.5c0-0.4-0.1-0.8-0.3-1.1
		c-0.2-0.3-0.6-0.5-1.1-0.5c-0.5,0-1.1,0.2-1.7,0.6s-1.1,0.9-1.6,1.5c-0.5,0.6-1,1.3-1.4,2c-0.4,0.7-0.7,1.5-1,2.2
		c-0.2,0.7-0.3,1.4-0.3,1.9c0,0.8,0.3,1.1,0.8,1.1c0.4,0,0.9-0.2,1.5-0.6c0.5-0.4,1.1-0.9,1.6-1.6c0.6-0.6,1.1-1.3,1.6-2
		c0.5-0.7,0.9-1.3,1.3-1.9c0.1-0.1,0.1-0.2,0.1-0.2c0.1,0,0.3,0.1,0.5,0.1c0.2,0.1,0.3,0.1,0.5,0.2c0.1,0.1,0.2,0.2,0.2,0.4
		c0,0.2-0.1,0.4-0.3,0.7c-0.2,0.3-0.4,0.6-0.6,1c-0.2,0.4-0.4,0.8-0.6,1.2c-0.2,0.4-0.3,0.8-0.3,1.1c0,0.3,0.1,0.6,0.2,0.9
		c0.2,0.3,0.4,0.4,0.8,0.4c0.5,0,1.2-0.4,2.1-1.1s1.7-1.9,2.6-3.4l0.3,0.3c-0.4,1-0.9,2-1.6,2.8c-0.6,0.8-1.3,1.4-2,1.9
		s-1.4,0.7-2.1,0.7c-0.7,0-1.2-0.2-1.6-0.6s-0.5-0.9-0.5-1.4c0-0.1,0-0.2,0-0.4c0-0.1,0-0.3,0.1-0.4c-0.8,1.1-1.6,2-2.3,2.5
		C102.4,26.1,101.7,26.3,101,26.3z"/>
	<path class="st2" d="M117.3,25.7c-0.7,0-1.2-0.2-1.6-0.5c-0.4-0.3-0.6-0.8-0.6-1.4c0-0.6,0.1-1.2,0.4-1.8c0.3-0.6,0.5-1.3,0.8-1.9
		c0.3-0.6,0.4-1.2,0.4-1.7c0-0.6-0.2-1.1-0.5-1.4c-0.4-0.3-0.7-0.6-1.1-0.8c-0.4,1.1-0.9,2.2-1.4,3.3s-0.9,1.8-1.2,2.3l-0.3-0.5
		c0.3-0.5,0.6-1.2,1.1-2.2s0.9-2.1,1.3-3.3c-0.2-0.2-0.3-0.4-0.3-0.7c0-0.6,0.2-1.1,0.5-1.4s0.6-0.6,0.7-0.6c0.2,0,0.3,0.1,0.4,0.3
		s0,0.3,0,0.4c0,0.1-0.1,0.3-0.2,0.6c-0.1,0.3-0.2,0.5-0.2,0.5c0,0.3,0.2,0.5,0.5,0.7c0.3,0.2,0.6,0.5,1,0.8c0.4,0.3,0.7,0.6,1,1
		c0.3,0.4,0.5,0.9,0.5,1.5c0,0.6-0.1,1.2-0.4,1.8c-0.2,0.6-0.5,1.2-0.7,1.7s-0.4,1-0.4,1.4c0,0.3,0.1,0.6,0.3,0.7s0.4,0.2,0.6,0.2
		c0.5,0,0.9-0.1,1.4-0.4c0.5-0.3,1-0.7,1.4-1.1c0.5-0.4,0.9-0.9,1.2-1.4c0.4-0.5,0.6-1,0.8-1.4l0.4,0.3c-0.4,0.8-0.9,1.6-1.5,2.4
		s-1.4,1.4-2.1,1.9C118.9,25.5,118.1,25.7,117.3,25.7z"/>
	<path class="st2" d="M124.1,25.8c-0.3,0-0.7-0.1-1-0.2s-0.6-0.4-0.8-0.8c-0.2-0.4-0.3-0.8-0.3-1.4c0-0.6,0.2-1.4,0.5-2.1
		c0.3-0.8,0.7-1.6,1.2-2.4c0.5-0.8,1.1-1.5,1.8-2.2c0.7-0.7,1.4-1.2,2.1-1.6c0.7-0.4,1.5-0.6,2.2-0.6c0.4,0,0.7,0.1,0.9,0.2
		c0.2,0.1,0.3,0.4,0.3,0.7c0,0.1,0,0.1,0,0.2s0,0.1,0,0.2c-0.1-0.2-0.2-0.3-0.4-0.3c-0.2-0.1-0.4-0.1-0.7-0.1
		c-0.6,0-1.2,0.2-1.8,0.6c-0.6,0.4-1.1,0.9-1.6,1.5c-0.5,0.6-0.9,1.3-1.3,2c-0.4,0.7-0.7,1.4-0.9,2c-0.2,0.6-0.3,1.2-0.3,1.6
		c0,0.4,0.1,0.8,0.3,1c0.2,0.3,0.4,0.4,0.8,0.4c0.5,0,1.2-0.3,1.9-1s1.5-1.6,2.3-2.8c0.8-1.2,1.5-2.6,2.1-4.2
		c0.4-1.1,0.9-2.3,1.3-3.4s0.9-2.3,1.4-3.4c0.5-1.1,0.9-2,1.4-2.9c0.4-0.8,0.9-1.5,1.2-2s0.8-0.7,1.1-0.7c0.2,0,0.3,0.1,0.4,0.2
		c0.1,0.1,0.2,0.3,0.2,0.5c0,0.3-0.2,0.8-0.5,1.6S137,8,136.5,9c-0.5,1-1,2.2-1.6,3.4c-0.6,1.2-1.1,2.5-1.6,3.7
		c-0.5,1.3-0.9,2.5-1.2,3.6c-0.3,1.2-0.5,2.2-0.5,3.2c0,0.5,0,0.9,0.1,1.2c0.1,0.3,0.3,0.4,0.6,0.4c0.4,0,0.9-0.2,1.4-0.5
		c0.5-0.3,1.1-0.8,1.6-1.5c0.5-0.6,1-1.4,1.4-2.3l0.3,0.3c-0.4,1-0.9,1.9-1.5,2.7c-0.6,0.8-1.3,1.4-2,1.9c-0.7,0.5-1.4,0.7-2.1,0.7
		c-0.7,0-1.2-0.2-1.5-0.7c-0.3-0.5-0.4-1-0.4-1.5c0-0.3,0-0.8,0.1-1.3c0.1-0.5,0.2-1.1,0.4-1.8c-0.6,1-1.3,2-2,2.8
		c-0.7,0.8-1.4,1.5-2,1.9C125.3,25.6,124.7,25.8,124.1,25.8z"/>
</g>
<g>
	<path class="st2" d="M61,38.2v-7.3h1.6v6h3v1.3H61z"/>
	<path class="st2" d="M68.7,38.2v-7.3h1.6v7.3H68.7z"/>
	<path class="st2" d="M77,38.2l-1.8-5.7h0c0,0.1,0,0.3,0,0.6c0,0.3,0,0.6,0,0.9c0,0.3,0,0.6,0,0.8v3.4h-1.4v-7.3H76l1.7,5.6h0
		l1.8-5.6h2.1v7.3h-1.4v-3.5c0-0.2,0-0.5,0-0.8c0-0.3,0-0.6,0-0.9c0-0.3,0-0.5,0-0.6h0l-1.9,5.7H77z"/>
	<path class="st2" d="M85.4,38.2v-7.3H87v7.3H85.4z"/>
	<path class="st2" d="M93.5,38.2h-1.6v-6h-2v-1.3h5.5v1.3h-2V38.2z"/>
	<path class="st2" d="M102.6,38.2h-4.2v-7.3h4.2v1.3H100v1.6h2.5v1.3H100v1.9h2.7V38.2z"/>
	<path class="st2" d="M112.1,34.5c0,0.8-0.2,1.5-0.5,2.1c-0.3,0.6-0.8,1-1.4,1.2c-0.6,0.3-1.3,0.4-2.2,0.4H106v-7.3h2.3
		c0.8,0,1.4,0.1,2,0.4c0.6,0.3,1,0.7,1.3,1.2S112.1,33.7,112.1,34.5z M110.5,34.5c0-0.5-0.1-1-0.2-1.3c-0.2-0.3-0.4-0.6-0.7-0.8
		s-0.7-0.2-1.1-0.2h-0.8v4.8h0.7c0.8,0,1.3-0.2,1.7-0.6C110.3,35.9,110.5,35.3,110.5,34.5z"/>
</g>
</svg>
