<svg
  width="35"
  height="35"
  viewBox="0 0 28 28"
  fill="none"
  xmlns="http://www.w3.org/2000/svg"
>
  <rect width="28" height="28" rx="14" fill="#8d51e7"></rect>
  <path
    d="M9.77313 18.2515L9.6145 19.1609C9.58315 19.3534 9.61597 19.5503 9.70712 19.7231C9.93899 20.1598 10.4807 20.3261 10.9175 20.0942L13.5834 18.7125C13.8459 18.5769 14.1572 18.5769 14.4197 18.7125L17.0841 20.0935C17.2562 20.1847 17.453 20.2175 17.6455 20.1869C18.1341 20.1081 18.4666 19.6487 18.3878 19.1602L17.8774 16.2348C17.8264 15.946 17.9234 15.6522 18.1355 15.4502L20.2924 13.3779C20.4361 13.2394 20.5287 13.0556 20.5549 12.858C20.6184 12.3746 20.2786 11.9305 19.7951 11.867L18.304 11.6523M16.1369 10.9531L14.804 8.28945C14.7179 8.12321 14.583 7.98831 14.4175 7.903C13.9742 7.67331 13.4288 7.84612 13.1991 8.28945L11.864 10.9538C11.7313 11.2163 11.4782 11.3972 11.1873 11.438L8.20501 11.8675C8.00667 11.8937 7.82294 11.9863 7.6844 12.13C7.34606 12.4814 7.35699 13.04 7.70772 13.3783L9.86678 15.4506M12.8094 15.84C13.1028 16.1728 13.4859 16.412 13.9837 16.4172C14.5042 16.4224 14.8782 16.176 15.1904 15.84M12.63 13.4367V13.444M15.3715 13.4367V13.444"
    stroke="white"
    stroke-width="1.5"
    stroke-linecap="round"
    stroke-linejoin="round"
  ></path>
</svg>
