<?xml version="1.0" encoding="utf-8"?>
<svg xmlns="http://www.w3.org/2000/svg" width="480" height="472" viewBox="0 0 480 472" fill="none">
<g clip-path="url(#clip0_3614_9365)">
<rect width="480" height="472" transform="translate(-0.178711)" fill="#FFCDDA"/>
<path opacity="0.5" d="M104.794 22.3717C109.845 16.7397 116.584 12.7647 124.825 12.6215C159.326 11.9898 152.897 50.9598 140.06 76.0221C137.697 80.6053 107.833 136.16 104.94 135.351C90.791 131.472 73.5841 123.863 62.9935 115.988C49.7209 106.147 37.6211 93.8373 37.9499 76.017C38.1172 67.4394 41.9029 56.5253 51.8328 49.0359C61.7 41.5921 73.1462 40.3871 81.1428 43.5243C88.3004 46.3005 92.7027 51.9389 96.3801 57.8326C91.7127 50.3194 95.0569 33.2795 104.809 22.3916L104.794 22.3717Z" fill="#FFEEF3"/>
<path opacity="0.5" d="M505.163 304.034C516.26 307.691 526.059 314.765 531.365 326.337C553.628 374.764 494.505 389.804 451.092 387.162C443.144 386.658 346.039 378.809 345.392 374.215C342.117 351.792 342.227 322.732 346.81 302.87C352.515 277.994 362.438 253.249 387.856 242.677C400.097 237.601 417.884 236.198 434.632 245.61C451.276 254.961 460.07 270.411 460.584 283.669C461.089 295.516 455.838 305.237 449.776 314.091C457.516 302.833 483.698 297.011 505.144 304.066L505.163 304.034Z" fill="#FFEEF3"/>
<g opacity="0.5">
<path d="M583.655 -302.154C702.581 -228.204 739.043 -71.8528 665.097 47.0665C591.151 165.986 434.799 202.442 315.873 128.493C196.947 54.5432 160.485 -101.808 234.431 -220.728C308.377 -339.647 464.729 -376.103 583.655 -302.154Z" stroke="#FFEEF3" stroke-width="27.3285"/>
<path d="M571.246 -282.198C690.669 -207.939 729.109 -55.8779 658.893 57.0445C588.676 169.967 435.296 202.752 315.873 128.493C196.45 54.234 158.01 -97.8271 228.227 -210.75C298.443 -323.672 451.823 -356.457 571.246 -282.198Z" stroke="#FFEEF3" stroke-width="27.3285"/>
<path d="M314.524 444.632C521.305 573.212 584.704 845.067 456.131 1051.84C327.558 1258.61 55.6997 1322 -151.082 1193.42C-357.863 1064.84 -421.262 792.983 -292.689 586.212C-164.115 379.441 107.743 316.053 314.524 444.632Z" stroke="#FFEEF3" stroke-width="27.3285"/>
<path d="M300.533 467.132C507.64 595.914 573.645 862.851 449.135 1063.09C324.625 1263.32 56.0256 1322.2 -151.082 1193.42C-358.189 1064.64 -424.194 797.699 -299.684 597.462C-175.174 397.225 93.426 338.35 300.533 467.132Z" stroke="#FFEEF3" stroke-width="27.3285"/>
<path d="M133.314 197.863C387.605 39.7421 443.925 -334.094 254.744 -638.336C65.562 -942.578 -294.627 -1057.42 -548.918 -899.301C-803.209 -741.18 -859.529 -367.343 -670.348 -63.1016C-481.166 241.14 -120.977 355.985 133.314 197.863Z" stroke="#FFEEF3" stroke-width="18.2046"/>
<path d="M123.076 181.399C377.065 23.4656 435.47 -346.413 249.23 -645.924C62.9893 -945.436 -294.572 -1056.66 -548.561 -898.727C-802.55 -740.794 -860.955 -370.915 -674.714 -71.4035C-488.474 228.108 -130.913 339.333 123.076 181.399Z" stroke="#FFEEF3" stroke-width="19.5559"/>
</g>
<path opacity="0.5" d="M36.5828 334.044L41.1661 342.427L49.5484 347.034L41.1661 351.618L36.5828 360L31.9995 351.618L23.6172 347.034L31.9995 342.427L36.5828 334.044Z" fill="#FFEEF3"/>
<path opacity="0.5" d="M87.6912 446.044L92.2745 454.427L100.657 459.034L92.2745 463.618L87.6912 472L83.1079 463.618L74.7256 459.034L83.1079 454.427L87.6912 446.044Z" fill="#FFEEF3"/>
<path opacity="0.5" d="M407.003 41.1505L411.586 49.5327L419.968 54.1406L411.586 58.7238L407.003 67.1062L402.419 58.7238L394.037 54.1406L402.419 49.5327L407.003 41.1505Z" fill="#FFEEF3"/>
<path opacity="0.5" d="M436.798 19.1062L441.381 27.4884L449.763 32.0962L441.381 36.6795L436.798 45.0619L432.214 36.6795L423.832 32.0962L432.214 27.4884L436.798 19.1062Z" fill="#FFEEF3"/>
<path opacity="0.5" d="M434.855 426.399L439.439 434.781L447.821 439.389L439.439 443.972L434.855 452.355L430.272 443.972L421.89 439.389L430.272 434.781L434.855 426.399Z" fill="#FFEEF3"/>
<path opacity="0.5" d="M80.9978 254.161L85.5811 262.543L93.9634 267.151L85.5811 271.734L80.9978 280.116L76.4145 271.734L68.0322 267.151L76.4145 262.543L80.9978 254.161Z" fill="#FFEEF3"/>
<path d="M397 107.509C396.586 107.306 396.283 107.222 396.071 107.044C394.114 105.389 394.212 104.456 396.693 103.092C404.624 98.7338 403.189 92.4526 406.623 87.4313C409.263 83.5707 413.42 82.6588 417.178 85.0326C419.532 86.5183 418.974 86.2992 419.551 86.2038C420.221 85.4291 420.12 84.4187 420.421 83.5028C421.097 81.4606 422.107 79.6647 424.189 78.3719C430.018 74.7494 435.216 79.1893 439.089 83.8356C441.998 87.3243 446.257 85.3591 448.153 84.9763C450.308 84.5426 450.939 86.5939 449.844 87.6673C448.717 88.7742 447.64 89.9571 446.368 90.9017C440.071 95.5722 442.378 101.526 438.986 107.946C434.936 115.608 424.446 119.774 416.547 116.853C405.77 112.867 403.602 104.372 398.092 107.25C397.819 107.392 397.476 107.402 396.997 107.511L397 107.509ZM405.146 101.283C417.387 100.212 428.572 96.8847 438.56 89.1889C435.462 85.9808 432.677 82.8364 430.382 81.5597C427.813 80.129 425.407 81.0267 424.55 83.8719C423.939 85.8949 423.788 89.8365 423.437 91.0543C423.003 92.558 421.432 93.3376 419.974 92.7639C418.074 92.0147 417.035 90.2631 415.874 89.2973C414.043 87.7756 411.806 86.5965 410.423 88.7663C407.979 92.6029 407.799 96.3208 405.306 100.328C405.207 100.486 405.237 100.701 405.146 101.283ZM438.548 94.0021C432.557 97.3979 428.156 100.237 421.041 102.178C416.922 103.303 412.765 104.174 408.563 104.663C408.104 104.717 407.476 104.596 407.266 105.358C407.686 105.985 406.767 105.267 412.255 109.87C413.95 111.29 415.957 112.299 418.057 113.173C420.727 114.285 423.615 114.407 426.555 113.377C431.654 111.59 435.328 108.496 436.5 103.424C437.183 100.471 437.79 97.5091 438.548 94.0021Z" fill="#FF8BAA"/>
<path d="M20.1323 314.374C19.7183 314.171 19.415 314.088 19.2031 313.909C17.2462 312.254 17.3438 311.321 19.8248 309.957C27.7557 305.599 26.3206 299.318 29.7548 294.297C32.3945 290.436 36.5518 289.524 40.3097 291.898C42.664 293.383 42.106 293.164 42.6833 293.069C43.3532 292.294 43.2518 291.284 43.5529 290.368C44.2284 288.326 45.2385 286.53 47.3204 285.237C53.1498 281.615 58.3476 286.055 62.2208 290.701C65.1295 294.19 69.3887 292.224 71.2851 291.842C73.4402 291.408 74.0704 293.459 72.9759 294.533C71.8486 295.639 70.7714 296.822 69.4995 297.767C63.2024 302.437 65.5096 308.391 62.1174 314.811C58.068 322.474 47.5776 326.64 39.679 323.718C28.9017 319.732 26.7339 311.238 21.2239 314.116C20.951 314.257 20.6076 314.267 20.1283 314.376L20.1323 314.374ZM28.2775 308.149C40.5184 307.078 51.7037 303.75 61.6919 296.054C58.5941 292.846 55.8093 289.702 53.5142 288.425C50.9451 286.994 48.5388 287.892 47.6815 290.737C47.0705 292.76 46.9202 296.702 46.5689 297.92C46.1348 299.423 44.5637 300.203 43.1063 299.629C41.2062 298.88 40.1668 297.128 39.0061 296.163C37.1746 294.641 34.9378 293.462 33.5553 295.631C31.111 299.468 30.9311 303.186 28.4379 307.193C28.3389 307.352 28.3689 307.566 28.2775 308.149ZM61.6802 300.867C55.689 304.263 51.2878 307.102 44.1726 309.043C40.0542 310.168 35.8967 311.039 31.6952 311.529C31.2357 311.583 30.6073 311.461 30.3982 312.224C30.818 312.851 29.8986 312.132 35.3871 316.735C37.0818 318.155 39.0888 319.165 41.1887 320.038C43.8589 321.15 46.7464 321.272 49.6871 320.242C54.7854 318.455 58.4598 315.361 59.6322 310.29C60.3146 307.336 60.9216 304.374 61.6802 300.867Z" fill="#FF8BAA"/>
<path d="M409.172 388.238C403.836 387.161 399.133 386.25 398.907 380.763C398.803 378.213 399.905 376.334 402.037 375.059C404.901 373.344 406.974 373.782 409.394 374.063C408.64 370.963 407.838 368.596 408.761 365.535C410.015 361.372 413.292 359.031 417.154 360.384C421.67 361.966 422.721 365.362 423.778 367.822C426.242 365.999 428.13 364.19 431.308 364.537C434.338 364.867 436.359 367.174 436.104 370.207C435.923 372.362 434.409 375.069 434.106 375.688C435.031 375.965 435.821 376.187 436.601 376.437C440.546 377.698 442.027 380.981 440.363 384.798C438.833 388.308 436.08 389.039 432.923 390.24C433.157 390.909 433.338 391.43 433.519 391.951C436.067 399.347 430.929 404.95 424.507 402.371C421.971 401.351 420.883 399.443 419.439 397.365C417.547 399.06 416.443 400.296 413.887 400.913C408.693 402.166 404.73 396.905 407.948 390.866C408.378 390.061 409.237 389.438 409.174 388.236L409.172 388.238ZM418.83 379.187C420.433 374.244 420.299 370.975 419.645 367.871C419.313 366.292 418.321 365.156 416.948 364.353C415.128 363.286 413.594 363.728 412.704 365.6C411.69 367.734 411.865 369.908 412.869 371.948C414.221 374.694 416.119 377.071 418.34 379.181C418.39 379.228 418.521 379.187 418.83 379.187ZM422.144 387.318C421.47 390.519 421.934 393.265 423.112 395.917C424.847 399.821 429.377 400.66 430.371 396.848C431.002 394.434 429.35 390.65 427.085 389.519C425.572 388.762 423.994 388.136 422.142 387.316L422.144 387.318ZM424.197 382.558C424.37 382.865 424.419 383.091 424.554 383.173C426.089 384.106 427.631 385.028 429.185 385.925C430.316 386.58 433.027 386.605 435.167 385.307C437.224 384.057 438.786 380.48 434.841 379.845C430.894 379.209 427.452 380.468 424.195 382.558H424.197ZM415.989 383.039C410.111 378.761 407.787 376.549 404.553 377.947C403.426 378.437 402.599 379.193 402.583 380.476C402.567 381.715 403.188 382.625 404.365 383.134C406.579 384.09 408.887 384.589 411.288 384.356C412.769 384.212 414.329 384.214 415.989 383.037V383.039ZM417.568 387.224C414.865 388.354 411.846 390.907 410.639 393.901C410.205 394.982 410.382 395.972 411.144 396.829C412.05 397.844 414.869 397.359 416.521 394.546C417.828 392.32 418.348 389.97 417.568 387.226V387.224ZM423.613 377.743C427.036 377.904 432.026 373.631 432.371 370.007C432.528 368.364 430.525 367.514 428.246 369.115C426.401 370.411 425.146 372.16 424.431 374.274C424.053 375.391 423.338 376.468 423.611 377.743H423.613Z" fill="#FF8BAA"/>
<path d="M42.4405 124.238C37.1048 123.161 32.4016 122.25 32.1757 116.763C32.0716 114.213 33.1737 112.334 35.3052 111.059C38.1695 109.344 40.2422 109.782 42.6625 110.063C41.9081 106.963 41.1066 104.596 42.0299 101.535C43.2833 97.3724 46.5601 95.0307 50.4225 96.3843C54.939 97.9657 55.99 101.362 57.0469 103.822C59.5105 101.999 61.3984 100.19 64.577 100.537C67.6064 100.867 69.6279 103.174 69.3725 106.207C69.1918 108.362 67.6771 111.069 67.3746 111.688C68.2999 111.965 69.0896 112.187 69.8695 112.437C73.8144 113.698 75.2956 116.981 73.6317 120.798C72.1013 124.308 69.3489 125.039 66.1919 126.24C66.4257 126.909 66.6064 127.43 66.7872 127.951C69.3352 135.347 64.1979 140.95 57.7758 138.371C55.2395 137.351 54.1512 135.443 52.7072 133.365C50.8154 135.06 49.7113 136.296 47.1554 136.913C41.9611 138.166 37.9986 132.905 41.2166 126.866C41.6468 126.061 42.5053 125.438 42.4424 124.236L42.4405 124.238ZM52.0982 115.187C53.7013 110.244 53.5677 106.975 52.9135 103.871C52.5815 102.292 51.5894 101.156 50.2162 100.353C48.397 99.2859 46.8627 99.7279 45.9727 101.6C44.959 103.734 45.1339 105.908 46.1378 107.948C47.4894 110.694 49.3871 113.071 51.6091 115.181C51.6582 115.228 51.7898 115.187 52.0982 115.187ZM55.4124 123.318C54.7386 126.519 55.2022 129.265 56.3809 131.917C58.1156 135.821 62.6459 136.66 63.64 132.848C64.2706 130.434 62.6184 126.65 60.3532 125.519C58.8405 124.762 57.263 124.136 55.4105 123.316L55.4124 123.318ZM57.4654 118.558C57.6382 118.865 57.6874 119.091 57.8229 119.173C59.3572 120.106 60.8994 121.028 62.4534 121.925C63.5849 122.58 66.296 122.605 68.4354 121.307C70.4923 120.057 72.0541 116.48 68.1093 115.845C64.1625 115.209 60.7206 116.468 57.4634 118.558H57.4654ZM49.2575 119.039C43.3795 114.761 41.0555 112.549 37.8218 113.947C36.6942 114.437 35.8671 115.193 35.8514 116.476C35.8357 117.715 36.4565 118.625 37.6332 119.134C39.8473 120.09 42.1556 120.589 44.5563 120.356C46.0376 120.212 47.5974 120.214 49.2575 119.037V119.039ZM50.837 123.224C48.1338 124.354 45.1142 126.907 43.908 129.901C43.4738 130.982 43.6507 131.972 44.4129 132.829C45.3186 133.844 48.1377 133.359 49.7899 130.546C51.0963 128.32 51.6169 125.97 50.837 123.226V123.224ZM56.8819 113.743C60.3042 113.904 65.2941 109.631 65.6399 106.007C65.797 104.364 63.7932 103.514 61.5143 105.115C59.6696 106.411 58.4143 108.16 57.6992 110.274C57.322 111.391 56.6069 112.468 56.8799 113.743H56.8819Z" fill="#FF8BAA"/>
</g>
<defs>
<clipPath id="clip0_3614_9365">
<rect width="480" height="472" fill="white" transform="translate(-0.178711)"/>
</clipPath>
</defs>
</svg>