<?xml version="1.0" encoding="UTF-8"?>
<svg xmlns="http://www.w3.org/2000/svg" width="480" height="472" viewBox="0 0 480 472" fill="none">
<g clip-path="url(#clip0_3776_7915)">
<rect width="480" height="472" transform="translate(-0.178711)" fill="#CBD5F8"/>
<g opacity="0.5">
<path d="M373.474 499.743C381.66 485.67 384.844 469.804 383.216 454.209C383.116 454.291 383.005 454.351 382.875 454.398C369.401 458.457 358.227 450.547 349.962 440.701C347.584 441.807 344.698 441.65 342.406 440.028C339.005 437.62 338.197 432.9 340.605 429.499C343.013 426.098 347.733 425.29 351.134 427.698C354.535 430.106 355.343 434.825 352.935 438.227C352.516 438.818 352.018 439.326 351.475 439.76C359.321 449.06 369.789 456.498 382.575 452.645C382.752 452.591 382.909 452.605 383.049 452.662C382.02 444.414 379.652 436.273 375.948 428.531C370.498 417.139 362.938 407.043 354.51 397.664C354.597 398.031 354.486 398.424 354.028 398.599C348.522 400.695 342.688 401.116 337.097 399.822C336.871 400.689 336.496 401.533 335.953 402.301C333.545 405.702 328.825 406.509 325.424 404.101C322.022 401.694 321.215 396.974 323.623 393.573C326.03 390.171 330.75 389.364 334.152 391.772C336.259 393.263 337.364 395.641 337.344 398.041C342.61 399.285 348.093 398.948 353.304 396.977C353.526 396.898 353.724 396.913 353.904 396.971C349.969 392.632 345.848 388.439 341.662 384.337C339.133 387.126 334.867 387.644 331.725 385.42C328.323 383.012 327.516 378.292 329.924 374.891C332.331 371.489 337.051 370.682 340.453 373.09C343.623 375.334 344.532 379.557 342.705 382.884C349.748 389.77 356.636 396.935 362.777 404.625C362.797 404.557 362.809 404.482 362.852 404.401C365.338 399.89 364.437 392.773 363.424 387.894C362.425 383.052 360.287 378.722 357.36 374.763C353.3 369.267 348.081 364.782 342.756 360.527C340.197 362.475 336.569 362.641 333.806 360.685C330.405 358.277 329.597 353.557 332.005 350.156C334.413 346.754 339.126 345.956 342.527 348.364C345.929 350.772 346.736 355.492 344.328 358.893C344.23 359.032 344.129 359.154 344.022 359.286C350.792 364.717 357.449 370.581 361.69 378.231C365.724 385.526 368.517 397.77 364.29 405.447C364.141 405.716 363.924 405.826 363.707 405.839C370.002 413.861 375.446 422.459 379.404 431.92C386.477 426.73 390.413 418.778 390.355 410.315C389.098 410.188 387.87 409.749 386.77 408.97C383.368 406.562 382.561 401.842 384.969 398.441C387.376 395.04 392.096 394.232 395.498 396.64C398.899 399.048 399.706 403.768 397.299 407.169C396.036 408.953 394.146 410.015 392.137 410.286C392.206 419.283 388.005 427.825 380.511 433.315C380.36 433.43 380.196 433.466 380.045 433.484C388.755 455.577 386.909 480.215 374.95 500.775C374.379 501.758 372.928 500.73 373.499 499.747L373.474 499.743Z" fill="#EEF1FD"/>
<path d="M385.158 478.102C397.171 479.987 407.753 469.663 414.268 459.166C413.939 459.003 413.615 458.815 413.3 458.592C409.899 456.185 409.092 451.465 411.499 448.063C413.907 444.662 418.627 443.855 422.028 446.262C425.43 448.67 426.237 453.39 423.829 456.791C422.004 459.37 418.85 460.454 415.957 459.779C409.129 470.915 397.869 481.882 385.021 479.864C383.895 479.691 384.039 477.92 385.174 478.099L385.158 478.102Z" fill="#EEF1FD"/>
</g>
<g opacity="0.5">
<g clip-path="url(#clip1_3776_7915)">
<path fill-rule="evenodd" clip-rule="evenodd" d="M-577.169 -229.467C-600.783 -210.96 -618.678 -186.375 -627.557 -160.264H-627.503C-636.682 -133.227 -637.935 -105.181 -631.153 -79.1787C-624.48 -53.7764 -608.954 -30.6635 -588.554 -15.7274C-570.959 -2.64468 -548.815 4.55078 -526.236 4.55078C-524.302 4.55078 -522.341 4.49628 -520.435 4.38727C-497.773 2.99722 -476.284 -5.53381 -459.887 -19.6523C-444.825 -32.4352 -434.23 -50.4784 -430.09 -70.4568C-425.868 -89.8629 -427.148 -108.015 -433.767 -122.897C-440.167 -138.105 -454.766 -149.171 -470.074 -150.425C-471.272 -150.534 -472.498 -150.589 -473.723 -150.589C-486.198 -150.589 -498.373 -144.293 -504.746 -134.535C-512.999 -122.215 -509.812 -109.078 -508.069 -103.981C-507.96 -103.709 -507.66 -103.573 -507.361 -103.627C-507.061 -103.709 -506.898 -104.009 -506.979 -104.308C-508.26 -109.242 -510.357 -121.861 -502.05 -132.573C-496.166 -140.395 -486.034 -145.246 -475.603 -145.246C-473.968 -145.246 -472.307 -145.137 -470.7 -144.892C-457.545 -143.066 -445.778 -133.254 -440.739 -119.926C-435.455 -106.543 -434.965 -89.7811 -439.378 -72.7463C-443.817 -54.9756 -453.704 -39.2218 -467.186 -28.4013C-481.976 -16.4633 -501.096 -9.4859 -521.061 -8.77725C-521.987 -8.72272 -522.94 -8.72272 -523.866 -8.72272C-544.349 -8.72272 -564.177 -15.4276 -579.675 -27.6109C-596.97 -40.8027 -609.99 -61.0536 -615.382 -83.1853C-620.884 -105.671 -619.277 -130.964 -610.861 -154.377C-602.772 -177.217 -586.702 -198.613 -565.648 -214.612C-545.765 -229.739 -520.87 -240.75 -491.727 -247.346C-466.042 -253.152 -437.062 -255.741 -405.658 -254.951C-354.262 -253.997 -298.29 -243.558 -224.179 -221.072C-180.412 -207.903 -137.099 -192.784 -91.3051 -176.799L-89.928 -176.318L-86.7189 -175.197C-70.234 -169.441 -53.2574 -163.513 -36.353 -157.73C-10.4779 -148.98 23.6499 -137.615 58.731 -127.094C50.8868 -120.308 42.9064 -113.521 34.9804 -107.007L-8.97995 -69.9662C-11.8126 -67.595 -14.6725 -65.1965 -17.5323 -62.798C-18.9548 -61.5969 -20.3773 -60.4039 -21.7955 -59.2146C-22.984 -58.2178 -24.1695 -57.2236 -25.3493 -56.2294C-58.3877 -71.9014 -94.6128 -83.9757 -132.99 -92.0706C-163.44 -98.3394 -192.884 -101.501 -220.556 -101.501C-230.552 -101.501 -240.548 -101.092 -250.244 -100.275C-272.797 -98.2577 -292.08 -93.7605 -309.212 -86.5377C-331.601 -77.1073 -348.161 -63.6702 -358.402 -46.5536C-364.285 -36.469 -367.527 -25.2124 -367.799 -14.0103C-368.044 -3.29883 -365.783 7.35815 -360.881 18.642C-352.737 37.4757 -334.897 53.5838 -313.162 61.7605C-295.894 68.6017 -276.828 71.9541 -253.132 72.3902H-249.809C-231.696 72.3902 -212.848 70.4823 -193.81 66.6665C-159.437 60.0706 -125.173 44.7257 -85.9242 18.3694C-66.5316 5.23218 -46.8392 -9.70392 -22.1354 -30.0639C-0.590973 -19.0254 19.4282 -6.21521 37.4045 8.03952C64.2329 29.5715 84.3065 52.5208 97.0806 76.2878C110.835 101.418 118.897 130.39 120.423 160.099C121.839 189.426 116.473 217.799 104.979 242.139C93.1585 267.268 74.7736 288.337 53.2292 301.447C35.1711 312.049 13.436 317.664 -9.66086 317.664C-13.0927 317.664 -16.5518 317.528 -19.9564 317.283C-45.205 315.32 -69.0373 306.68 -87.0137 292.889C-105.317 279.07 -117.791 259.364 -122.177 237.423C-126.48 216.954 -123.784 194.577 -114.714 176.044C-105.971 157.864 -90.9357 144.018 -73.5042 138.022C-68.4481 136.188 -63.187 134.937 -57.7723 134.281V123.347C-64.4379 123.843 -70.9436 125.128 -77.1812 127.201C-97.5271 133.497 -115.966 149.551 -126.507 170.129C-137.484 191.28 -141.133 216.191 -136.748 240.258C-132.39 265.606 -117.928 289.454 -97.0641 305.699C-76.7181 321.889 -49.8625 332.219 -21.4817 334.808C-16.7697 335.244 -11.976 335.462 -7.26401 335.462C17.8757 335.462 42.0075 329.302 62.5169 317.637C87.82 302.674 108.656 279.533 122.765 250.724C135.893 223.468 142.185 191.852 140.959 159.254C139.597 126.356 130.882 94.1402 115.765 66.0669C101.602 39.4653 79.8124 14.1993 50.9957 -8.9953C33.891 -22.5414 15.4243 -34.7247 -3.96832 -45.2726C-2.55826 -46.4216 -1.16312 -47.6004 0.22821 -48.776C0.718109 -49.1899 1.20752 -49.6034 1.69693 -50.0151L5.29221 -53.0405L49.0347 -89.9719C60.6376 -99.4569 72.404 -109.432 83.9524 -119.653C122.193 -108.86 154.523 -101.256 185.709 -95.7229C222.697 -89.236 256.226 -86.1016 288.229 -86.1016C292.859 -86.1016 297.544 -86.1834 302.12 -86.3197C337.637 -87.5462 379.2 -91.3075 418.122 -109.705C439.04 -119.79 455.491 -132.709 467.012 -148.108C481.066 -166.506 486.895 -189.946 482.592 -210.824C478.779 -231.347 465.623 -250.699 446.476 -263.945C430.869 -274.929 411.449 -282.37 388.706 -286.049C378.302 -287.63 367.461 -288.421 356.539 -288.421C329.52 -288.421 301.412 -283.787 270.607 -274.22C230.269 -261.955 195.733 -238.761 167.243 -217.719C137.37 -195.488 109.179 -170.96 81.9024 -147.229L81.0653 -146.5L78.6412 -144.402C45.2487 -154.077 11.6929 -165.17 -20.7735 -175.936L-29.3531 -178.771C-46.8392 -184.74 -64.4615 -190.872 -81.5118 -196.814L-82.1454 -197.035C-128.813 -213.279 -172.905 -228.628 -218.023 -241.977C-252.451 -252.225 -283.065 -259.911 -311.636 -265.471C-343.64 -271.658 -375.18 -275.065 -405.359 -275.61C-407.674 -275.665 -410.016 -275.665 -412.331 -275.665C-443.381 -275.665 -470.863 -272.694 -496.412 -266.562C-528.252 -259.012 -555.407 -246.529 -577.169 -229.467ZM189.659 -117.609C163.048 -122.379 135.103 -128.811 104.189 -137.206V-137.261C128.376 -158.247 154.142 -180.297 180.507 -199.921C207.499 -219.9 240.129 -241.841 277.307 -253.152C305.388 -261.846 332.217 -266.262 357.057 -266.262C366.753 -266.262 376.232 -265.58 385.247 -264.218C404.476 -261.138 420.791 -254.923 433.729 -245.793C448.192 -235.681 458.051 -221.426 460.802 -206.681C463.798 -191.717 459.549 -175.2 449.172 -161.382C439.884 -148.926 425.857 -137.996 408.562 -129.792C373.372 -113.057 332.843 -109.596 301.439 -108.424C297.272 -108.288 292.968 -108.233 288.719 -108.233C257.806 -108.233 225.421 -111.313 189.659 -117.609ZM-98.3987 -0.0826721C-134.978 24.5565 -166.709 38.8384 -198.249 44.8619H-198.304C-216.416 48.596 -234.801 50.3403 -252.941 50.1223C-273.015 49.877 -290.582 46.8244 -305.127 41.1279C-322.068 34.5593 -334.706 23.3572 -340.671 9.53857C-347.807 -6.05167 -347.317 -21.969 -339.309 -35.2698C-329.967 -51.1598 -313.189 -60.7811 -300.742 -66.0414C-286.061 -72.174 -268.466 -76.2351 -248.42 -78.0885C-239.322 -78.8789 -229.871 -79.2605 -220.393 -79.2605C-194.245 -79.2605 -166.382 -76.2623 -137.593 -70.3478C-105.044 -63.4794 -73.6948 -53.4766 -44.4424 -40.5846C-64.8156 -23.9314 -81.9749 -11.0395 -98.3987 -0.0826721Z" fill="#EEF1FD"/>
</g>
<g clip-path="url(#clip2_3776_7915)">
<path fill-rule="evenodd" clip-rule="evenodd" d="M1656.17 483.453C1690.91 456.284 1717.24 420.193 1730.3 381.861H1730.22C1743.72 342.168 1745.57 300.996 1735.59 262.824C1729 237.796 1716.55 214.282 1699.99 194.895V235.637C1705.38 246.092 1709.59 257.226 1712.39 268.705C1720.48 301.716 1718.12 338.847 1705.74 373.218C1704.05 377.961 1702.14 382.661 1699.99 387.303V407.441H1689.09C1676.36 427.792 1659.34 446.39 1639.22 461.646C1609.97 483.853 1573.34 500.018 1530.47 509.701C1492.68 518.224 1450.04 522.025 1403.84 520.865C1328.23 519.464 1245.88 504.139 1136.85 471.129C1072.46 451.796 1008.74 429.601 941.364 406.134L939.338 405.428L934.61 403.781C910.359 395.331 885.386 386.63 860.518 378.14C822.451 365.296 772.242 348.61 720.63 333.166C732.171 323.202 743.911 313.239 755.572 303.676L820.247 249.299C824.414 245.818 828.622 242.297 832.829 238.776C834.921 237.014 837.012 235.263 839.097 233.518C840.847 232.054 842.592 230.594 844.329 229.133C892.936 252.14 946.23 269.866 1002.69 281.749C1047.49 290.952 1090.81 295.594 1131.52 295.594C1146.22 295.594 1160.93 294.994 1175.2 293.793C1208.37 290.832 1236.75 284.23 1261.95 273.627C1294.89 259.783 1319.25 240.056 1334.32 214.928C1342.97 200.124 1347.74 183.599 1348.14 167.153C1348.5 151.428 1345.18 135.784 1337.96 119.218C1325.98 91.5697 1299.74 67.9223 1267.76 55.9185C1242.36 45.8754 1214.31 40.9538 1179.44 40.3136H1174.55C1147.91 40.3136 1120.18 43.1145 1092.17 48.7162C1041.6 58.3993 991.19 80.9264 933.447 119.619C904.917 138.905 875.945 160.831 839.601 190.721C807.905 174.516 778.453 155.71 752.006 134.783C712.536 103.173 683.003 69.4828 664.21 34.5918C643.974 -2.29974 632.113 -44.8331 629.869 -88.4468C627.785 -131.5 635.679 -173.153 652.589 -208.885C669.98 -245.776 697.028 -276.706 728.724 -295.952C755.292 -311.517 787.268 -319.759 821.248 -319.759C826.297 -319.759 831.386 -319.559 836.395 -319.199C873.541 -316.318 908.603 -303.634 935.05 -283.388C961.978 -263.102 980.331 -234.173 986.782 -201.962C993.113 -171.913 989.146 -139.063 975.802 -111.854C962.94 -85.1658 940.82 -64.8395 915.175 -56.0367C903.675 -51.8754 891.453 -49.7547 878.791 -49.7547C865.327 -49.7547 851.502 -52.2755 838.84 -56.957C815.398 -65.4396 796.124 -81.2046 785.906 -100.211C772.923 -123.778 777.331 -147.545 781.137 -159.629C786.707 -177.595 797.286 -192.88 810.91 -202.723C821.409 -210.405 834.231 -214.646 847.054 -214.646C848.817 -214.646 850.54 -214.566 852.263 -214.406C852.784 -214.326 853.145 -214.687 853.185 -215.127C853.265 -215.567 852.945 -215.967 852.504 -216.047C849.218 -216.607 845.812 -216.927 842.366 -216.927C833.951 -216.927 821.168 -215.167 808.145 -206.804C792.798 -197.161 780.456 -181.316 773.364 -162.19C764.949 -139.783 765.91 -115.375 776.008 -95.249C786.587 -73.202 807.624 -54.4362 833.67 -43.7528C849.218 -37.4708 866.168 -34.1498 882.717 -34.1498C895.781 -34.1498 908.523 -36.1505 920.585 -40.1517C950.518 -49.3946 977.646 -72.962 993.153 -103.172C1009.3 -134.221 1014.67 -170.793 1008.22 -206.124C1001.81 -243.336 980.531 -278.346 949.836 -302.194C919.903 -325.961 880.393 -341.126 838.639 -344.927C831.707 -345.568 824.654 -345.888 817.722 -345.888C780.737 -345.888 745.234 -336.845 715.06 -319.719C677.834 -297.753 647.18 -263.782 626.423 -221.489C607.109 -181.476 597.852 -135.061 599.656 -87.2065C601.659 -38.9113 614.482 8.38361 636.721 49.5966C657.558 88.6488 689.615 125.74 732.01 159.791C757.175 179.677 784.343 197.563 812.874 213.048C810.799 214.735 808.746 216.466 806.699 218.192C805.978 218.799 805.259 219.406 804.539 220.01L799.249 224.451L734.895 278.668C717.825 292.593 700.514 307.237 683.524 322.242C627.265 306.397 579.7 295.234 533.819 287.111C479.402 277.588 430.075 272.987 382.991 272.987C376.179 272.987 369.287 273.107 362.555 273.307C310.303 275.107 249.154 280.629 191.893 307.638C161.118 322.442 136.915 341.408 119.965 364.015C99.2885 391.024 90.7133 425.435 97.0445 456.084C102.654 486.214 122.009 514.623 150.179 534.069C173.139 550.194 201.71 561.117 235.169 566.519C250.477 568.84 266.425 570 282.493 570C322.244 570 363.597 563.198 408.917 549.153C468.263 531.148 519.073 497.097 560.987 466.207C604.936 433.571 646.412 397.563 686.541 362.723L687.772 361.655L691.338 358.574C740.465 372.778 789.833 389.063 837.597 404.868L850.22 409.029C875.945 417.792 901.871 426.795 926.956 435.518L927.885 435.841C996.543 459.689 1061.41 482.221 1127.79 501.819C1178.44 516.863 1223.48 528.147 1265.52 536.309C1312.6 545.392 1359 550.394 1403.4 551.194C1406.81 551.274 1410.25 551.274 1413.66 551.274C1459.34 551.274 1499.77 546.913 1537.36 537.91C1584.2 526.826 1624.15 508.501 1656.17 483.453ZM528.009 319.241C567.158 326.243 608.271 335.686 653.752 348.01V348.09C618.168 378.9 580.261 411.27 541.472 440.079C501.762 469.408 453.757 501.619 399.06 518.224C357.747 530.988 318.277 537.47 281.732 537.47C267.467 537.47 253.522 536.469 240.258 534.469C211.968 529.947 187.966 520.825 168.932 507.42C147.654 492.576 133.149 471.649 129.101 450.002C124.694 428.035 130.945 403.788 146.212 383.501C159.876 365.216 180.512 349.171 205.958 337.127C257.729 312.559 317.355 307.478 363.557 305.757C369.688 305.557 376.019 305.477 382.27 305.477C427.751 305.477 475.395 309.998 528.009 319.241ZM951.8 146.707C1005.62 110.536 1052.3 89.5691 1098.7 80.7263H1098.78C1125.43 75.2446 1152.48 72.6838 1179.16 73.0039C1208.7 73.364 1234.54 77.8454 1255.94 86.208C1280.86 95.851 1299.46 112.296 1308.23 132.583C1318.73 155.47 1318.01 178.837 1306.23 198.363C1292.48 221.691 1267.8 235.815 1249.49 243.537C1227.89 252.54 1202 258.502 1172.51 261.223C1159.13 262.383 1145.22 262.944 1131.28 262.944C1092.81 262.944 1051.82 258.542 1009.46 249.859C961.577 239.776 915.455 225.092 872.419 206.166C902.392 181.718 927.637 162.792 951.8 146.707Z" fill="#EEF1FD"/>
</g>
</g>
<path d="M74.1262 358.31C75.6714 359.945 76.05 362.065 75.8831 364.192C79.5565 363.859 82.9155 361.275 84.1972 357.386C84.5117 356.429 85.8883 357.04 85.6209 357.971C84.2944 362.647 80.1218 365.569 75.6661 365.78C75.5513 366.387 75.4029 366.981 75.2378 367.556C74.1412 371.356 72.5588 375.367 69.5783 378.094C67.0699 380.385 63.6865 381.66 60.1996 381.945C60.1089 383.669 59.8186 385.309 59.354 386.699C57.1232 393.437 50.5035 398.315 43.4407 398.649C43.3167 399.13 43.163 399.604 42.9648 400.068C39.6604 407.894 29.8066 409.207 23.2413 404.815C22.8111 404.526 23.2207 403.802 23.6905 404.027C28.3125 406.2 34.1461 406.859 38.2772 403.287C39.7478 402.015 40.7726 400.357 41.2423 398.606C38.0875 398.311 34.9277 397.026 32.8514 394.583C31.2706 392.727 29.99 389.162 32.2976 387.299C35.0816 385.051 39.6139 387.666 41.4883 389.916C42.9795 391.705 43.7457 393.903 43.7592 396.131C47.4856 395.84 51.0988 394.051 53.6724 391.36C56.1249 388.799 57.5023 385.452 57.7446 381.986C54.7547 381.84 51.8156 380.976 49.405 379.413C46.694 377.655 44.8977 374.584 45.7553 371.318C46.5856 368.154 49.8605 366.685 52.9079 367.625C57.8074 369.133 59.9413 374.491 60.2035 379.685C60.7116 379.66 61.1932 379.613 61.6323 379.547C67.4455 378.686 70.6843 374.612 72.7522 369.427C73.2002 368.308 73.702 367.034 74.0233 365.732C72.5181 365.574 71.0182 365.102 69.6208 364.274C67.3364 362.919 64.5497 360.116 66.9979 357.574C69.0328 355.461 72.3247 356.396 74.1273 358.305L74.1262 358.31ZM38.6386 390.467C37.076 389.226 32.4804 387.871 33.7822 391.41C34.7223 393.956 37.737 395.457 40.2293 395.941C40.6624 396.024 41.0969 396.076 41.5335 396.118C41.4556 394.022 40.5472 391.979 38.6436 390.468L38.6386 390.467ZM57.4133 377.476C56.8659 374.984 55.5863 371.993 53.3536 370.566C50.587 368.802 47.3414 370.738 48.1507 374.037C49.0689 377.793 53.6776 379.353 57.7326 379.656C57.6772 378.925 57.5752 378.194 57.4144 377.471L57.4133 377.476ZM68.1756 361.04C68.5232 361.617 69.275 362.146 69.8103 362.524C71.237 363.53 72.7708 364.061 74.2961 364.198C74.4327 362.959 74.3276 361.736 73.7799 360.62C73.0609 359.167 71.3682 357.856 69.6775 358.031C68.141 358.187 67.1782 359.387 68.1795 361.046L68.1756 361.04Z" fill="#859EEE"/>
<path d="M415.014 374.737C411.454 373.137 407.69 371.171 403.868 370.345C403.554 370.28 403.266 370.297 402.995 370.376C402.362 369.734 401.357 370.599 401.746 371.375C401.766 371.417 401.787 371.459 401.81 371.495C401.548 372.194 401.702 373.025 402.536 373.517C402.691 373.609 402.854 373.69 403.013 373.776C406.694 380.43 411.511 386.467 415.076 393.179C415.721 394.397 417.456 394.328 418.148 393.218C420.524 389.42 423.404 386.203 426.9 383.402C427.86 382.637 427.572 380.903 426.536 380.36C422.754 378.36 418.915 376.484 415.014 374.737ZM413.621 378.419C416.491 379.716 419.336 381.08 422.162 382.477C420.007 384.528 418.108 386.782 416.454 389.256C413.165 384.921 410.336 380.214 407.185 375.774C409.33 376.673 411.528 377.483 413.612 378.421L413.621 378.419Z" fill="#859EEE"/>
<path d="M64.8598 75.6137C67.0653 72.17 69.6823 68.5721 71.1265 64.7384C71.2425 64.4234 71.2687 64.1227 71.2285 63.8291C71.9918 63.2724 71.2493 62.0972 70.3854 62.3811C70.3389 62.3956 70.2924 62.4102 70.2511 62.429C69.5678 62.0499 68.6824 62.0814 68.0442 62.8699C67.925 63.017 67.8164 63.1727 67.7025 63.3241C60.2406 66.115 53.243 70.178 45.7387 72.8388C44.3766 73.3198 44.1812 75.1279 45.2251 76.0164C48.7956 79.0632 51.6859 82.5425 54.0502 86.5965C54.695 87.7101 56.5363 87.6779 57.2592 86.6883C59.9132 83.0769 62.4485 79.3868 64.8598 75.6137ZM61.2582 73.6033C59.4728 76.3778 57.6211 79.1161 55.7379 81.8288C53.9441 79.2806 51.9008 76.9654 49.5923 74.8706C54.5902 72.1298 59.9033 69.9226 64.9899 67.3406C63.7281 69.4252 62.5503 71.5779 61.2572 73.5938L61.2582 73.6033Z" fill="#859EEE"/>
<g opacity="0.5">
<path d="M525.915 85.8143C510.417 90.8037 494.237 90.5234 479.35 85.6004C479.452 85.5205 479.534 85.4242 479.607 85.3071C486.452 73.0125 481.113 60.4057 473.261 50.2282C474.849 48.1414 475.313 45.2884 474.218 42.7024C472.593 38.8651 468.154 37.0677 464.317 38.6929C460.48 40.3181 458.682 44.7564 460.308 48.5937C461.933 52.431 466.371 54.2284 470.208 52.6032C470.876 52.3205 471.478 51.9424 472.018 51.5046C479.427 61.1568 484.455 72.9728 477.96 84.6398C477.868 84.8015 477.848 84.9575 477.874 85.1063C470.037 82.3383 462.59 78.2858 455.818 73.0124C445.855 65.2541 437.607 55.7113 430.246 45.4734C430.586 45.6369 430.993 45.6119 431.263 45.2027C434.487 40.2709 436.145 34.6618 436.076 28.9234C436.971 28.8885 437.876 28.7021 438.741 28.3355C442.579 26.7103 444.376 22.2721 442.751 18.4347C441.126 14.5974 436.687 12.8001 432.85 14.4252C429.013 16.0504 427.215 20.4887 428.841 24.326C429.847 26.7035 431.934 28.2915 434.283 28.7848C434.373 34.1947 432.872 39.4789 429.832 44.1483C429.708 44.3485 429.68 44.5446 429.699 44.7335C426.301 39.9623 423.085 35.0401 419.973 30.0738C423.238 28.1993 424.656 24.1431 423.154 20.5977C421.529 16.7604 417.091 14.963 413.253 16.5882C409.416 18.2134 407.619 22.6517 409.244 26.489C410.759 30.0656 414.69 31.8564 418.33 30.782C423.552 39.1342 429.079 47.394 435.28 55.0367C435.209 55.0423 435.133 55.0375 435.045 55.0624C430.107 56.5268 423.347 54.1262 418.796 52.0934C414.28 50.0831 410.507 47.0693 407.265 43.3633C402.764 38.223 399.498 32.1661 396.479 26.0538C398.929 23.9706 399.866 20.4625 398.546 17.3446C396.921 13.5073 392.482 11.71 388.645 13.3351C384.808 14.9603 383.021 19.3942 384.646 23.2315C386.271 27.0688 390.709 28.8662 394.547 27.241C394.703 27.1748 394.845 27.1025 394.997 27.0258C398.855 34.7997 403.16 42.5562 409.727 48.3343C415.992 53.8345 427.356 59.1796 435.759 56.6907C436.054 56.6027 436.208 56.4146 436.267 56.2051C442.758 64.0691 449.994 71.224 458.391 77.1125C451.809 82.9132 443.199 85.0592 434.944 83.1935C435.089 81.9391 434.922 80.6448 434.397 79.4039C432.772 75.5666 428.333 73.7692 424.496 75.3944C420.659 77.0196 418.861 81.4579 420.486 85.2952C422.112 89.1325 426.55 90.9298 430.387 89.3047C432.4 88.4523 433.842 86.8333 434.535 84.9285C443.31 86.9184 452.552 84.6397 459.517 78.4927C459.661 78.3699 459.732 78.2171 459.782 78.0731C479.503 91.3035 503.966 94.7656 526.606 87.4767C527.689 87.129 526.995 85.4918 525.913 85.8396L525.915 85.8143Z" fill="#EEF1FD"/>
<path d="M502.276 92.6038C501.55 104.742 489.204 112.873 477.557 116.994C477.467 116.638 477.353 116.281 477.203 115.926C475.578 112.089 471.139 110.292 467.302 111.917C463.465 113.542 461.667 117.98 463.293 121.818C464.918 125.655 469.356 127.452 473.193 125.827C476.103 124.595 477.835 121.746 477.794 118.775C490.132 114.484 503.253 105.828 504.026 92.8462C504.098 91.709 502.337 91.471 502.27 92.6186L502.276 92.6038Z" fill="#EEF1FD"/>
</g>
<g opacity="0.5">
<path d="M-3.35197 245.023C-6.11604 228.978 -3.56683 212.998 3.39756 198.95C3.46239 199.061 3.54619 199.156 3.65189 199.245C14.8636 207.749 28.0952 204.232 39.2743 197.887C41.1175 199.752 43.877 200.612 46.5912 199.891C50.6187 198.821 53.0214 194.679 51.9511 190.651C50.8808 186.624 46.7388 184.221 42.7113 185.291C38.6838 186.362 36.2811 190.504 37.3515 194.531C37.5376 195.232 37.8274 195.881 38.185 196.477C27.5883 202.457 15.1833 205.777 4.54386 197.708C4.39661 197.594 4.24492 197.553 4.09392 197.558C7.93493 190.186 12.9929 183.382 19.1648 177.418C28.2452 168.642 38.8514 161.817 50.0214 155.966C49.8118 156.279 49.7793 156.686 50.1467 157.01C54.577 160.895 59.8977 163.324 65.589 164.061C65.4978 164.953 65.5553 165.875 65.7967 166.783C66.8671 170.811 71.009 173.213 75.0365 172.143C79.064 171.073 81.4667 166.931 80.3964 162.903C79.3261 158.876 75.1841 156.473 71.1566 157.543C68.6613 158.206 66.796 160.05 65.9778 162.306C60.6089 161.635 55.5878 159.408 51.3915 155.742C51.2107 155.591 51.0204 155.536 50.8307 155.528C56.0318 152.833 61.3568 150.34 66.7108 147.957C68.1083 151.452 71.9253 153.425 75.6464 152.437C79.6739 151.366 82.0766 147.224 81.0062 143.197C79.9359 139.169 75.794 136.767 71.7665 137.837C68.0126 138.835 65.6876 142.475 66.2403 146.23C57.2376 150.228 48.2836 154.541 39.8461 159.607C39.8505 159.536 39.8659 159.461 39.8536 159.371C39.0971 154.276 42.423 147.92 45.0745 143.7C47.699 139.511 51.2127 136.199 55.3371 133.509C61.0584 129.774 67.5139 127.39 73.9896 125.259C75.7081 127.978 79.05 129.398 82.3223 128.529C86.3498 127.458 88.7525 123.316 87.6822 119.289C86.6118 115.261 82.4728 112.87 78.4453 113.94C74.4178 115.01 72.0151 119.152 73.0854 123.18C73.1291 123.344 73.1807 123.494 73.2353 123.655C64.9967 126.384 56.7126 129.558 50.0697 135.249C43.7444 140.679 36.8567 151.18 38.1411 159.849C38.1868 160.154 38.3515 160.332 38.5506 160.42C29.8532 165.743 21.7532 171.903 14.7441 179.39C9.92503 172.058 9.00907 163.232 12.0153 155.321C13.2369 155.641 14.5419 155.657 15.8442 155.311C19.8717 154.241 22.2744 150.099 21.2041 146.072C20.1338 142.044 15.9918 139.641 11.9643 140.712C7.93684 141.782 5.53414 145.924 6.60446 149.951C7.16579 152.064 8.56639 153.719 10.3549 154.673C7.15275 163.081 8.11119 172.552 13.2195 180.31C13.3207 180.471 13.4622 180.562 13.5978 180.632C-2.27045 198.3 -9.13296 222.035 -5.09502 245.474C-4.90268 246.595 -3.18443 246.138 -3.37678 245.017L-3.35197 245.023Z" fill="#EEF1FD"/>
<path d="M-6.75523 220.665C-18.6709 218.242 -24.9883 204.876 -27.4333 192.766C-27.0685 192.728 -26.6986 192.665 -26.3265 192.566C-22.299 191.495 -19.8963 187.353 -20.9666 183.326C-22.037 179.298 -26.1789 176.896 -30.2064 177.966C-34.2339 179.036 -36.6366 183.178 -35.5663 187.206C-34.7548 190.259 -32.1773 192.375 -29.2299 192.751C-26.714 205.569 -19.986 219.775 -7.24104 222.364C-6.12518 222.595 -5.64228 220.885 -6.76909 220.657L-6.75523 220.665Z" fill="#EEF1FD"/>
</g>
<path d="M445.56 118.908C447.828 122.151 448.663 126.114 447.786 129.993C447.381 131.792 446.615 133.555 445.475 135.023C445.283 134.709 445.078 134.402 444.845 134.11C442.99 131.752 439.313 129.926 436.514 131.81C433.894 133.569 434.252 137.391 436.192 139.536C438.199 141.753 441.182 141.68 443.702 140.557C443.7 140.79 443.688 141.02 443.662 141.248C443.184 145.696 439.067 149.904 434.84 151.136C434.505 151.235 434.166 151.307 433.82 151.367C433.382 148.657 432.319 145.792 429.955 144.447C427.518 143.058 423.771 143.94 423.128 146.965C422.426 150.272 425.934 153.163 428.669 154.143C429.398 154.405 430.132 154.575 430.874 154.669C430.824 157.447 430.008 160.256 428.639 162.517C427.178 164.923 424.729 166.934 421.983 167.845C421.499 166.322 420.661 164.868 419.412 163.573C417.48 161.57 413.788 159.633 411.33 161.906C408.787 164.254 410.193 167.945 412.606 169.711C414.653 171.212 416.986 171.772 419.328 171.644C419.262 176.017 415.74 179.745 411.626 181.18C406.665 182.911 400.958 181.55 396.956 178.259C395.951 177.435 394.651 178.789 395.567 179.727C401.018 185.313 409.982 186.603 416.542 182.093C420.236 179.556 422.527 175.288 422.485 171.067C425.896 170.02 429.032 167.691 430.963 164.891C433.017 161.917 434.063 158.243 434.068 154.629C439.513 153.793 444.553 149.275 446.302 144.207C446.94 142.348 447.11 140.354 446.765 138.454C452.451 133.073 452.693 123.447 448.316 117.191C447.117 115.477 444.342 117.19 445.548 118.916L445.56 118.908ZM415.205 167.501C413.828 166.763 412.022 163.7 415.444 164.559C416.946 164.937 418.097 166.765 418.719 168.345C418.523 168.341 418.326 168.337 418.132 168.323C417.108 168.237 416.116 167.987 415.205 167.501ZM428.739 150.602C428.119 150.251 425.636 148.344 426.623 147.239C427.189 146.613 428.587 147.398 428.922 147.724C429.413 148.206 429.726 148.942 429.981 149.566C430.211 150.123 430.39 150.698 430.528 151.29C429.907 151.147 429.304 150.924 428.739 150.602ZM438.935 137.629C438.317 137.175 437.563 135.922 437.924 135.123C438.66 133.515 440.961 134.773 441.749 135.521C442.287 136.028 442.699 136.627 443.01 137.28C441.697 138.107 440.169 138.536 438.935 137.629Z" fill="#859EEE"/>
<path d="M427.472 334.361C425.111 333.876 422.755 333.392 420.392 332.917C419.596 332.753 418.788 333.289 418.619 334.083C417.841 337.819 417.059 341.554 416.281 345.29C415.99 346.705 417.543 347.401 418.53 346.892C421.978 347.885 425.739 347.88 429.282 348.313C430.058 348.406 430.735 348.011 430.932 347.228C431.543 344.8 432.013 342.338 432.536 339.893C432.812 338.597 433.485 336.909 432.411 335.788C431.326 334.65 428.894 334.658 427.471 334.366L427.472 334.361ZM430.183 338.448C429.531 339.143 429.627 340.363 429.456 341.172C429.154 342.641 428.753 344.094 428.475 345.573C425.479 345.548 422.447 345.082 419.461 345.059C420.071 342.092 420.667 339.117 421.277 336.15C422.558 336.408 423.987 336.697 425.264 336.954C426.403 337.183 429.2 338.251 430.281 337.949L430.179 338.447L430.183 338.448Z" fill="#859EEE"/>
<path d="M423.372 358.773C422.718 359.594 422.066 360.413 421.412 361.234C420.995 361.759 420.341 362.352 420.28 363.082C419.735 363.096 419.454 363.852 419.99 364.284C421.486 365.489 423.093 366.548 424.594 367.753C424.886 367.986 425.483 367.936 425.72 367.667C426.505 366.783 427.224 365.842 427.949 364.913C428.47 364.246 429.493 363.393 429.441 362.45C429.392 361.573 428.501 361.118 427.858 360.659C426.828 359.93 425.801 359.203 424.77 358.477C424.278 358.128 423.686 358.38 423.37 358.776L423.372 358.773ZM423.625 361.758C423.734 361.622 423.845 361.483 423.952 361.345C423.985 361.385 424.015 361.424 424.048 361.464C424.036 361.484 424.021 361.508 424.015 361.531C423.802 361.66 423.649 361.86 423.587 362.101C423.513 362.087 423.436 362.076 423.36 362.065C423.456 361.957 423.549 361.854 423.625 361.758Z" fill="#859EEE"/>
<path d="M66.4403 89.3355C66.0246 90.2995 65.6098 91.2603 65.194 92.2243C64.9298 92.8401 64.4539 93.5843 64.5868 94.304C64.0643 94.4604 63.9914 95.2642 64.6215 95.5401C66.3812 96.3112 68.2101 96.9117 69.9742 97.6806C70.3176 97.8287 70.8803 97.624 71.0386 97.3026C71.5638 96.2436 72.0114 95.1474 72.4674 94.0607C72.7955 93.2797 73.5589 92.1887 73.2609 91.2924C72.9846 90.4592 72.0053 90.2531 71.2637 89.9795C70.079 89.5457 68.8976 89.113 67.7119 88.6826C67.1462 88.4754 66.6402 88.8741 66.4394 89.3387L66.4403 89.3355ZM67.4673 92.1491C67.537 91.9891 67.6077 91.8259 67.674 91.6649C67.7166 91.6953 67.7559 91.7247 67.7985 91.7551C67.7917 91.7779 67.784 91.8039 67.784 91.8287C67.6126 92.008 67.5172 92.2418 67.5207 92.4909C67.4451 92.4967 67.3686 92.5059 67.2921 92.515C67.3565 92.3854 67.4189 92.2622 67.4673 92.1491Z" fill="#859EEE"/>
<path d="M442.089 364.313C440.777 365.184 439.468 366.052 438.156 366.922C437.32 367.48 436.112 368.025 435.69 369.038C434.905 368.807 434.155 369.757 434.721 370.62C436.3 373.031 438.107 375.283 439.694 377.694C440.004 378.162 440.879 378.365 441.341 378.091C442.868 377.191 444.329 376.18 445.792 375.188C446.844 374.475 448.697 373.73 449.056 372.359C449.392 371.086 448.33 370.025 447.622 369.073C446.489 367.558 445.359 366.047 444.221 364.534C443.68 363.811 442.718 363.897 442.085 364.316L442.089 364.313ZM441.074 368.69C441.293 368.546 441.516 368.399 441.731 368.251C441.759 368.324 441.785 368.393 441.813 368.466C441.786 368.489 441.755 368.516 441.735 368.547C441.373 368.632 441.061 368.847 440.862 369.163C440.762 369.109 440.658 369.058 440.555 369.006C440.742 368.896 440.921 368.793 441.074 368.69Z" fill="#859EEE"/>
<path d="M35.703 78.0227C34.6651 79.2071 33.6302 80.3873 32.5923 81.5717C31.9312 82.3289 30.9089 83.1718 30.7668 84.2604C29.9488 84.2428 29.4743 85.3565 30.2466 86.0408C32.4029 87.9527 34.7367 89.6529 36.9002 91.5636C37.3221 91.9334 38.2197 91.9006 38.5938 91.5148C39.8316 90.2453 40.976 88.8869 42.1277 87.5459C42.9562 86.5823 44.5488 85.377 44.5365 83.9602C44.5263 82.6435 43.2234 81.8978 42.291 81.1654C40.7999 80.0002 39.3131 78.838 37.819 77.677C37.107 77.1205 36.201 77.4563 35.7001 78.0269L35.703 78.0227ZM35.8719 82.5123C36.0451 82.3161 36.2212 82.1157 36.3901 81.9165C36.4369 81.9795 36.4794 82.0395 36.5262 82.1026C36.5061 82.132 36.483 82.1656 36.4716 82.201C36.1443 82.3779 35.9004 82.6677 35.7905 83.0248C35.68 82.9983 35.5665 82.9761 35.4531 82.9539C35.6048 82.7985 35.7507 82.6515 35.8719 82.5123Z" fill="#859EEE"/>
</g>
<defs>
<clipPath id="clip0_3776_7915">
<rect width="480" height="472" fill="white" transform="translate(-0.178711)"/>
</clipPath>
<clipPath id="clip1_3776_7915">
<rect width="1119.49" height="481.091" fill="white" transform="matrix(-1 0 0 1 484.491 -59)"/>
</clipPath>
<clipPath id="clip2_3776_7915">
<rect width="1647" height="558" fill="white" transform="matrix(1 0 0 -1 95 570)"/>
</clipPath>
</defs>
</svg>