<svg class="relative left-1" height="2.5rem" viewBox="50 20 360 40" width="8rem" xmlns="http://www.w3.org/2000/svg" data-testid="paperless-post-pro-logo"><title>Paperless Pro logo</title><defs><g id="hermes"><g fill-rule="evenodd" clip-rule="evenodd"><path d="M49.67 53.18c-.08 0-.15 0-.22-.02-7.3-1.73-11.14-.1-11.18-.08-.55.22-1.1.16-1.3-.23-.24-.45.15-.85.54-1.2.14-.12 3.88-3.17 12.38-.02.56.2.8.61.68 1-.1.35-.47.58-.9.55m-5.59-8.84c2-.4 5.33-1.05 9.16-3.65 7.3-4.96 8.26-14.02 8.3-14.4.27-2.38.27-2.38.3-5.79.02-1.4-.02-2.93-.06-4.4-.05-1.78-.1-3.46-.04-4.81.18-4.53 1.44-6.83 3.75-6.83.28 0 1.11.1 1.11.1.1 0 .19-.02.25-.05.28-.13.16-.47.16-.47C66.9 3.88 64.17 0 59.81 0c-.77 0-1.58.14-2.37.4-5.09 1.66-6.9 4.85-9.93 10.14-.8 1.4-1.7 2.99-2.76 4.71a38 38 0 0 1-5.34 6.68l.02.03c-4.26 4.43-15.46 11.7-15.57 11.77-.69.45-1.48.93-2.34 1.43-4.24 2.3-10.73 5.1-10.8 5.14C5.15 42.64.3 44.3.25 44.32c0 0-.24.08-.24.25 0 .25.33.29.33.29 4.53.2 9.49.3 14.73.3 25.6.04 29.02-.82 29.02-.82M80.58 5.99l-5.9 9.57a1.23 1.23 0 0 1-1.63.4l-6.7-3.76a1.15 1.15 0 0 1-.55-.68 1.1 1.1 0 0 1 .12-.87l5.9-9.57a1.24 1.24 0 0 1 1.63-.4l6.7 3.75c.58.33.76 1.02.43 1.56"></path><path d="M36.1 44.65c5.05 5.2 6.5 7.02 6.5 7.02l2.7.12c-.9-1.16-3.83-4.74-3.28-6.3.3-.85 1.92-1.12 2.27-1.19"></path></g></g><g id="text"><path d="M94.4 35.03h-1.78V22.89h7.04c2.15 0 3.55 1.29 3.55 3.47 0 2.15-1.42 3.51-3.55 3.51H94.4v5.16Zm0-10.36v3.41h5.26c1.14 0 1.8-.55 1.8-1.72 0-1.2-.63-1.7-1.8-1.7H94.4Zm15.3 10.36h-1.92l5.52-12.12h1.95l5.43 12.12h-1.98l-1.74-3.95h-5.45l-1.8 3.95Zm4.54-9.97-1.92 4.23h3.84l-1.92-4.23Zm14.98 9.97h-1.77V22.89h7.04c2.15 0 3.55 1.29 3.55 3.47 0 2.15-1.42 3.51-3.55 3.51h-5.27v5.16Zm0-10.36v3.41h5.27c1.14 0 1.8-.55 1.8-1.72 0-1.2-.63-1.7-1.8-1.7h-5.27Zm26.38 10.36h-10.3V22.89h9.99v1.8h-8.22v3.16h4.14v1.76h-4.14v3.65h8.53v1.77Zm9 0h-1.77V22.89h7.2c2.2 0 3.82 1.27 3.82 3.58 0 1.84-1.04 3.04-2.8 3.47l2.52 5.09h-2L169.13 30h-4.52v5.03Zm0-10.38v3.58h5.42c1.2 0 2.07-.57 2.07-1.86 0-1.26-.91-1.72-2.07-1.72h-5.41Zm25.9 10.38h-9.16V22.89h1.77v10.37h7.39v1.77Zm17.2 0h-10.3V22.89h9.98v1.8h-8.21v3.16h4.13v1.76h-4.13v3.65h8.52v1.77Zm12.39.27a7.83 7.83 0 0 1-6.07-2.48l1.23-1.2c1.56 1.46 2.96 1.9 5.08 1.9 1.35 0 3.76-.43 3.76-2.18 0-.6-.31-1.06-.82-1.39-.63-.4-1.23-.44-3.02-.47l-1.82-.03c-1.9-.03-3.62-1.03-3.62-3.1 0-1.78 1.48-2.97 3.03-3.47a8.3 8.3 0 0 1 7.14 1.35l-1 1.41c-1.3-.81-2.24-1.27-3.81-1.27-1.2 0-3.57.38-3.57 1.96 0 1.18 1.1 1.4 2.05 1.4h1.8c1.36 0 2.47.01 3.67.73a3.45 3.45 0 0 1 1.7 3.02c0 2.95-3.36 3.83-5.73 3.83Zm18.09 0a7.83 7.83 0 0 1-6.07-2.48l1.23-1.2c1.56 1.46 2.96 1.9 5.08 1.9 1.35 0 3.76-.43 3.76-2.18 0-.6-.31-1.06-.82-1.39-.63-.4-1.23-.44-3.02-.47l-1.82-.03c-1.9-.03-3.62-1.03-3.62-3.1 0-1.78 1.48-2.97 3.03-3.47a8.3 8.3 0 0 1 7.14 1.35l-1 1.41c-1.3-.81-2.24-1.27-3.81-1.27-1.2 0-3.57.38-3.57 1.96 0 1.18 1.1 1.4 2.05 1.4h1.8c1.36 0 2.47.01 3.67.73a3.45 3.45 0 0 1 1.7 3.02c0 2.95-3.36 3.83-5.73 3.83Zm24.82-.27h-1.77V22.89h7.04c2.15 0 3.55 1.29 3.55 3.47 0 2.15-1.42 3.51-3.55 3.51H263v5.16Zm0-10.36v3.41h5.27c1.14 0 1.8-.55 1.8-1.72 0-1.2-.63-1.7-1.8-1.7H263Zm17.96 10.36h-1.77V22.89h7.19c2.21 0 3.82 1.27 3.82 3.58 0 1.84-1.04 3.04-2.8 3.47l2.53 5.09h-2L285.49 30h-4.53v5.03Zm0-10.38v3.58h5.42c1.2 0 2.07-.57 2.07-1.86 0-1.26-.91-1.72-2.07-1.72h-5.42Zm22.49 10.67a6.45 6.45 0 0 1-6.52-6.54c0-3.56 3.06-6.24 6.54-6.24 3.6 0 6.52 2.8 6.52 6.44a6.46 6.46 0 0 1-6.54 6.34Zm.02-1.79c2.6 0 4.76-2.02 4.76-4.65 0-2.67-2.2-4.56-4.78-4.56a4.6 4.6 0 0 0-4.78 4.67c0 2.62 2.26 4.54 4.8 4.54Zm13.38-15.41v-.77h4.25v.77h-1.7v4.73h-.85v-4.73h-1.7Zm5.74 4.73v-5.5h.9l1.86 4.66 1.87-4.66h.9v5.5h-.82v-3.81c-.04.14-.28.77-.28.77l-1.26 3.04h-.81l-1.26-3.04-.29-.77v3.81h-.81Z"></path></g></defs><use href="#hermes" fill="#000" transform="translate(185,0) scale(0.8)"></use><use href="#text" fill="#000" transform="translate(-85,30) scale(1.5)"></use></svg>