<svg width="600" height="564" viewBox="0 0 600 564" fill="none" xmlns="http://www.w3.org/2000/svg">
<g clip-path="url(#clip0_1199_8463)">
<path d="M-57.4669 379.578C-46.9059 416.567 -21.3794 448.776 13.0387 472.428C47.5278 496.13 96.7337 517.944 142.139 509.355C163.687 505.28 179.896 493.005 189.794 476.298C200.142 458.856 204.972 439.095 212.763 420.764C229.362 381.723 254.853 345.959 296.979 324.034C336.074 303.691 388.855 297.748 430.993 314.771C474.516 332.357 490.298 377.229 489.552 415.923C488.83 453.525 473.557 499.286 434.829 520.834C398.09 541.268 337.708 530.045 320.126 493.577C311.175 475.022 317.509 453.811 326.519 436.246C337.802 414.269 354.106 394.325 369.106 374.166C400.612 331.826 432.224 289.537 463.623 247.136C475.996 230.429 488.202 211.75 489.055 191.428C489.931 170.564 478.896 151.488 457.893 140.878C435.93 129.777 408.592 128.827 384.001 131.993C359.41 135.159 335.872 141.786 313.519 150.375C273.749 165.663 237.129 188.375 210.407 218.256C197.904 232.236 187.828 247.534 180.606 264.057C172.318 283.032 163.687 302.721 139.807 310.462C90.3876 326.485 62.2327 272.656 54.1343 240.008C44.1771 199.833 55.0105 158.412 80.2883 123.976C104.299 91.2665 140.328 65.062 179.813 47.1089C224.283 26.8886 276.78 14.5216 327.265 20.0567C378.862 25.7142 421.118 51.7146 464.878 73.7219C506.175 94.4936 552.456 110.639 601.094 103.378C620.251 100.519 639.431 93.8604 653.023 81.5343C655.924 78.8995 655 73.6811 654.018 70.597C653.426 68.7179 650.998 62.1821 647.423 63.234C644.51 64.0918 641.598 64.9496 638.685 65.8177C631.806 67.8499 637.099 86.4464 643.09 84.6694C646.002 83.8116 648.915 82.9538 651.827 82.0857L646.227 63.7854C614.733 92.3388 558.968 89.8879 519.258 78.1847C470.23 63.7446 430.128 34.2006 383.208 15.982C359.22 6.66844 333.871 1.03129 307.54 0.112186C281.019 -0.817127 254.403 2.74694 229.031 9.28277C183.022 21.129 139.463 42.7789 105.471 72.1288C72.8411 100.294 49.1261 136.262 42.2591 175.926C34.7645 219.226 45.2782 267.07 73.9777 303.62C85.9595 318.877 103.719 331.744 126.001 332.081C150.001 332.439 169.536 317.743 179.659 300.045C185.034 290.65 188.385 280.53 193.204 270.93C197.265 262.842 202.143 255.05 207.66 247.626C219.204 232.093 233.849 218.256 249.999 206.215C285.767 179.551 330.154 161.088 376.376 152.703C402.258 148.006 430.413 146.995 454.755 157.248C464.026 161.149 473.912 167.409 477.475 176.14C480.66 183.953 477.251 193.491 473.995 200.864C464.475 222.422 447.628 241.58 433.278 260.871C417.318 282.327 401.346 303.783 385.386 325.239C369.462 346.644 353.229 367.906 337.672 389.515C323.749 408.857 310.547 429.679 306.723 452.524C302.899 475.369 307.232 497.601 321.606 516.31C333.942 532.363 354.283 543.474 375.855 547.865C398.268 552.43 421.367 549.571 440.903 538.94C458.556 529.34 471.508 514.165 480.341 498.071C503.381 456.058 505.713 406.641 489.765 362.524C482.815 343.294 471.887 324.555 454.577 310.707C437.268 296.859 415.767 289.874 393.236 287.331C345.936 281.99 298.802 295.838 263.626 323.36C225.491 353.19 207.411 394.621 192.233 435.929C185.958 453.004 178.641 470.712 161.177 481.68C141.488 494.047 114.86 493.822 92.1162 489.268C47.3857 480.301 4.88108 454.852 -22.3029 423.133C-33.9177 409.582 -43.2356 394.304 -47.9241 377.873C-48.6108 375.483 -50.6235 368.529 -54.8977 369.274C-59.1718 370.02 -58.0826 377.372 -57.4669 379.527V379.578Z" fill="#FFB28B"></path>
<g opacity="0.5">
<path d="M10.6384 440.167L10.6893 438.291L11.2883 438.307L11.2733 438.863C15.8577 434.642 14.9365 427.041 13.9458 422.794C13.7116 421.789 13.4511 420.777 13.1899 419.76C11.9226 414.832 10.6115 409.737 12.1166 404.882C12.9929 402.055 14.7556 399.626 16.4608 397.276C17.5144 395.824 18.6032 394.322 19.4687 392.747C22.854 386.582 22.8654 378.609 19.4975 372.434L20.0228 372.147C23.4865 378.497 23.4751 386.695 19.994 393.035C19.11 394.645 18.0097 396.161 16.9459 397.627C15.2695 399.938 13.5361 402.327 12.6892 405.06C11.2344 409.752 12.5239 414.764 13.7703 419.611C14.0327 420.632 14.2944 421.648 14.5298 422.658C15.5875 427.191 16.5542 435.443 11.1427 439.764L10.6384 440.167Z" fill="#FFB28B"></path>
<path d="M18.6127 368.175C18.723 369.945 18.1899 371.749 17.1351 373.176C18.6678 374.218 20.8516 374.262 22.4215 373.278C21.2757 371.874 20.6803 370.003 20.8444 368.198C20.3311 368.209 19.126 368.164 18.6127 368.175Z" fill="#FFB28B"></path>
<path d="M21.4171 371.616C20.9512 370.543 20.7391 369.358 20.8451 368.199C20.3318 368.21 19.1262 368.165 18.6129 368.176C18.6805 369.261 18.5038 370.359 18.1157 371.375C19.1675 371.751 20.3193 371.831 21.4171 371.616Z" fill="#FFB28B"></path>
<path d="M44.4503 333.94C44.73 347.992 33.7566 369.251 19.7053 369.531C5.65331 369.811 -6.15618 349.004 -6.43529 334.953C-6.715 320.901 4.45002 309.283 18.502 309.004C32.5533 308.724 44.1711 319.888 44.4503 333.94Z" fill="#FFB28B"></path>
</g>
<g opacity="0.5">
<path d="M595.622 399.086L595.363 396.376L594.623 396.453L594.699 397.256C588.58 391.556 588.929 380.473 589.714 374.238C589.9 372.763 590.117 371.276 590.335 369.78C591.392 362.535 592.485 355.044 590.115 348.152C588.735 344.139 586.298 340.78 583.94 337.531C582.484 335.524 580.978 333.448 579.742 331.245C574.906 322.624 574.061 311.086 577.591 301.85L576.91 301.481C573.28 310.979 574.148 322.844 579.121 331.708C580.384 333.959 581.905 336.056 583.376 338.083C585.694 341.278 588.09 344.581 589.424 348.461C591.715 355.121 590.64 362.49 589.6 369.616C589.381 371.117 589.163 372.611 588.977 374.094C588.138 380.749 587.8 392.778 594.955 398.548L595.622 399.086Z" fill="#FFB28B"></path>
<path d="M578.243 295.605C578.291 298.178 579.139 300.741 580.595 302.712C578.804 304.357 576.103 304.616 574.056 303.33C575.329 301.196 575.872 298.436 575.481 295.839C576.118 295.809 577.606 295.636 578.243 295.605Z" fill="#FFB28B"></path>
<path d="M575.127 300.835C575.592 299.241 575.732 297.507 575.48 295.839C576.117 295.809 577.606 295.637 578.243 295.606C578.272 297.184 578.605 298.756 579.192 300.193C577.928 300.831 576.509 301.049 575.127 300.835Z" fill="#FFB28B"></path>
<path d="M542.666 248.364C543.783 268.725 559.593 298.514 577.031 297.666C594.47 296.818 606.934 265.653 605.816 245.291C604.699 224.929 589.656 209.111 572.217 209.96C554.779 210.808 541.548 228.002 542.666 248.364Z" fill="#FFB28B"></path>
</g>
<g opacity="0.5">
<path d="M254.414 164.108L254.579 162.48L255.099 162.532L255.05 163.015C259.311 159.636 258.997 152.963 258.408 149.204C258.269 148.314 258.107 147.417 257.945 146.515C257.159 142.146 256.346 137.628 257.967 133.5C258.911 131.096 260.601 129.096 262.236 127.16C263.246 125.965 264.29 124.728 265.145 123.413C268.486 118.265 269.008 111.328 266.475 105.739L266.95 105.523C269.556 111.271 269.02 118.404 265.583 123.697C264.71 125.041 263.656 126.29 262.636 127.497C261.029 129.4 259.367 131.368 258.454 133.692C256.887 137.681 257.687 142.125 258.46 146.423C258.623 147.328 258.785 148.229 258.925 149.123C259.554 153.136 259.865 160.378 254.879 163.79L254.414 164.108Z" fill="#FFB28B"></path>
<path d="M265.978 101.975C265.96 103.523 265.381 105.059 264.371 106.232C265.638 107.238 267.535 107.416 268.965 106.66C268.058 105.365 267.66 103.699 267.919 102.14C267.471 102.116 266.426 101.999 265.978 101.975Z" fill="#FFB28B"></path>
<path d="M268.198 105.15C267.861 104.186 267.753 103.141 267.919 102.14C267.472 102.116 266.426 101.999 265.978 101.976C265.968 102.925 265.743 103.869 265.34 104.728C266.231 105.123 267.228 105.266 268.198 105.15Z" fill="#FFB28B"></path>
<path d="M290.661 73.846C290.001 86.0915 279.087 103.885 266.842 103.226C254.596 102.567 245.657 83.703 246.317 71.4576C246.976 59.2121 257.438 49.8201 269.683 50.48C281.928 51.1393 291.321 61.6006 290.661 73.846Z" fill="#FFB28B"></path>
</g>
<path opacity="0.5" d="M421.866 9.21856C422.244 8.58868 423.197 8.74107 423.36 9.4574L424.186 13.0966C424.255 13.4016 424.493 13.6401 424.798 13.7103L428.435 14.5475C429.151 14.7123 429.3 15.6656 428.669 16.0417L425.463 17.9521C425.195 18.1123 425.041 18.4121 425.069 18.7237L425.396 22.4411C425.461 23.1728 424.6 23.6096 424.048 23.1257L421.24 20.6673C421.005 20.4612 420.672 20.408 420.384 20.5304L416.95 21.9907C416.274 22.2781 415.593 21.5947 415.882 20.9196L417.353 17.4898C417.476 17.2023 417.424 16.8696 417.219 16.6336L414.769 13.8187C414.286 13.2646 414.726 12.4055 415.457 12.4721L419.174 12.8108C419.485 12.8392 419.785 12.6867 419.946 12.4185L421.866 9.21856Z" fill="#FFB28B"></path>
<path opacity="0.5" d="M308.4 519.142C309.29 518.187 310.892 518.805 310.909 520.111L310.998 526.748C311.005 527.305 311.33 527.808 311.835 528.043L317.851 530.847C319.035 531.399 318.942 533.113 317.704 533.533L311.42 535.668C310.893 535.847 310.515 536.312 310.447 536.864L309.639 543.453C309.48 544.749 307.821 545.19 307.039 544.144L303.067 538.826C302.734 538.381 302.175 538.165 301.629 538.271L295.113 539.538C293.831 539.788 292.899 538.346 293.653 537.279L297.482 531.858C297.803 531.403 297.835 530.805 297.566 530.319L294.347 524.514C293.713 523.371 294.796 522.039 296.044 522.426L302.384 524.393C302.915 524.558 303.494 524.404 303.873 523.997L308.4 519.142Z" fill="#FFB28B"></path>
<path opacity="0.5" d="M24.9482 159.675C23.3999 160.845 22.5545 162.047 22.6756 163.793C22.6923 164.238 22.812 164.72 22.9651 165.246C23.098 165.76 23.2315 166.298 23.3241 166.861C23.4834 167.961 23.3387 169.119 22.352 169.897C21.8719 170.242 21.3438 170.423 20.817 170.504C20.2673 170.558 19.7197 170.517 19.1936 170.449C18.6537 170.36 18.1255 170.228 17.6364 170.152C17.1423 170.07 16.6539 169.977 16.2064 170.041C14.6394 170.17 13.5769 171.101 12.5304 172.576C12.2221 173.025 12.1943 174.111 12.1031 174.671C12.0739 174.876 11.9584 176.004 12.0537 175.901C13.6361 174.326 15.4501 173.404 17.5974 173.392C18.1186 173.376 18.6676 173.452 19.2521 173.551C19.8262 173.635 20.4148 173.708 21.0313 173.746C22.2372 173.795 23.5099 173.567 24.4875 172.549C24.9475 172.072 25.2028 171.507 25.3733 170.96C25.5334 170.402 25.548 169.804 25.5417 169.242C25.5431 168.684 25.445 168.099 25.3956 167.557C25.3684 167.284 25.3483 167.017 25.3441 166.758C25.3239 166.488 25.3176 166.225 25.3364 165.968C25.5 163.868 26.5764 162.197 28.2193 160.775C28.0627 160.909 27.4072 160.442 26.7044 160.084C26.0016 159.717 25.2564 159.457 24.9482 159.675Z" fill="#FFB28B"></path>
<g opacity="0.5">
<path d="M22.2575 131.231C23.5565 131.188 24.6332 130.499 25.7509 129.935C26.2938 129.659 26.8332 129.352 27.4149 129.173C27.5756 129.124 27.8174 129.105 28.0774 129.086C28.939 128.899 29.8235 129.055 30.5681 129.327C30.6583 129.359 30.7378 129.405 30.8285 129.439C30.3832 128.968 29.6883 128.604 28.9602 128.29C28.2476 127.97 27.4646 127.724 26.8444 127.551C25.7207 127.222 24.682 127.374 23.6654 127.711C22.647 128.046 21.652 128.568 20.571 128.9C20.1991 129.027 19.8143 129.11 19.4252 129.142C19.674 129.78 20.0562 130.384 20.5032 130.905C21.0931 131.131 21.7072 131.246 22.2575 131.231Z" fill="#FFB28B"></path>
<path d="M28.0774 129.086C28.0869 129.1 28.0942 129.111 28.1041 129.125C28.1732 129.356 28.2021 129.595 28.1918 129.842C28.2039 130.427 28.0609 131.018 27.7897 131.573C27.1833 132.831 25.9948 133.708 24.8098 134.416C24.8115 134.417 25.2053 134.628 25.6208 134.85C26.0289 135.072 26.479 135.275 26.558 135.303C26.9074 135.432 28.0791 136.018 28.4176 135.768C29.3427 135.107 30.3581 134.138 30.9778 133.089C31.601 132.031 31.8122 130.942 31.1808 129.867C31.0871 129.714 30.9674 129.572 30.8275 129.438C30.7368 129.404 30.6578 129.359 30.5671 129.327C29.823 129.055 28.939 128.899 28.0774 129.086Z" fill="#FFB28B"></path>
<path d="M20.2785 117.918C21.0567 118.052 21.8704 118.042 22.6547 118.131C23.125 118.186 23.4765 118.227 23.7361 118.257C24.497 118.384 25.1867 118.669 25.822 119.041C25.4161 118.598 24.9419 118.159 24.418 117.763C23.8911 117.369 23.3742 117.001 22.947 116.703C22.0656 116.096 21.0956 115.778 20.0124 115.572C19.3171 115.44 18.6037 115.38 17.9079 115.21C17.701 115.159 17.3037 114.969 16.9137 114.789C17.1513 115.581 17.4756 116.344 17.9597 117.005C18.6693 117.51 19.4497 117.776 20.2785 117.918Z" fill="#FFB28B"></path>
<path d="M23.6608 119.065C23.5921 119.313 23.4954 119.542 23.3486 119.76C23.0346 120.309 22.5729 120.784 22.043 121.174C20.9547 121.982 19.6068 122.344 18.4278 122.971C17.4094 123.516 16.5664 124.379 16.2304 125.413C16.0542 125.932 16.0378 126.478 16.1786 127.035C16.3232 127.59 16.6152 128.16 17.1542 128.672C17.5977 129.1 18.1073 129.553 18.6852 129.943C19.2682 130.332 19.8891 130.671 20.5032 130.905C20.0562 130.384 19.674 129.78 19.4252 129.142L19.4176 129.141C19.3952 129.06 19.3632 128.967 19.3127 128.851C19.2915 128.459 19.3382 128.083 19.4539 127.724C19.846 126.412 20.9616 125.632 22.0706 125.013C22.9828 124.508 24.2654 123.873 25.2177 123.076C26.1562 122.28 26.8213 121.332 26.465 120.153C26.3665 119.766 26.135 119.396 25.8232 119.042C25.1879 118.67 24.4982 118.385 23.7372 118.258C23.767 118.522 23.7463 118.79 23.6608 119.065Z" fill="#FFB28B"></path>
<path d="M14.5744 112.365C14.7424 113.264 15.2538 114.184 15.8662 114.989C16.5144 115.791 17.2292 116.485 17.9094 116.972L17.9597 117.005C17.4756 116.344 17.1513 115.581 16.9137 114.789C16.8895 114.567 16.9096 114.342 16.9411 114.12C17.0089 113.494 17.1968 112.907 17.4961 112.374C18.2048 111.166 19.2944 110.336 20.403 109.587C20.5274 109.509 20.0096 108.733 19.5185 107.949C19.0189 107.17 18.4665 106.38 18.3697 106.439C17.4235 107.03 16.3278 107.779 15.553 108.762C15.1726 109.252 14.8616 109.8 14.6694 110.404C14.4863 111.007 14.4531 111.664 14.5744 112.365Z" fill="#FFB28B"></path>
</g>
<path opacity="0.5" d="M368.142 53.3002C366.666 55.4019 365.642 55.6575 364.876 55.318C364.108 54.9552 363.56 53.9438 362.986 52.8849C362.155 56.0351 361.039 58.7049 359.972 60.6771C358.898 62.6748 357.863 63.964 357.009 64.8286C357.612 65.9082 357.932 68.1924 357.361 70.6512C358.724 69.3833 360.18 67.7996 361.937 65.2837C363.682 62.7361 365.794 59.3241 368.142 53.3002Z" fill="#FFB28B"></path>
<path opacity="0.5" d="M564.728 22.6587C566.504 20.2769 566.6 18.252 566.219 16.6091C565.813 14.9524 564.866 13.5621 563.892 12.0974C566.382 11.3661 568.441 9.81713 569.849 8.17428C571.285 6.52099 572.064 4.75219 572.504 3.26172C573.69 4.60954 575.818 5.70826 577.801 4.98668C577.506 6.26562 577.062 7.54664 576.523 8.90421C575.978 10.2618 575.289 11.6792 574.373 13.1773C573.458 14.6754 572.322 16.2633 570.795 17.895C569.263 19.5177 567.321 21.1738 564.728 22.6587Z" fill="#FFB28B"></path>
<path opacity="0.5" d="M410.437 5.73039C409.353 6.48817 408.422 7.12862 407.743 7.92698C407.053 8.71657 406.609 9.63282 406.284 10.6593C404.068 9.16839 402.573 7.411 401.509 5.75287C400.443 4.08815 399.851 2.47718 399.502 1.10198C400.669 1.78245 402.008 1.26976 402.84 0.418213C403.228 1.61795 403.936 2.85716 405.195 3.91598C405.821 4.44127 406.581 4.91613 407.471 5.25883C408.358 5.59989 409.386 5.78467 410.437 5.73039Z" fill="#FFB28B"></path>
<path opacity="0.5" d="M247.851 419.884C247.928 419.206 248.792 418.968 249.205 419.511L251.305 422.269C251.48 422.501 251.773 422.611 252.058 422.553L255.454 421.861C256.123 421.724 256.616 422.473 256.227 423.033L254.253 425.882C254.087 426.121 254.073 426.433 254.216 426.686L255.924 429.702C256.26 430.296 255.701 430.996 255.047 430.8L251.728 429.802C251.45 429.719 251.148 429.802 250.952 430.016L248.611 432.572C248.15 433.075 247.312 432.76 247.296 432.078L247.219 428.613C247.213 428.322 247.041 428.061 246.776 427.941L243.622 426.504C243.001 426.222 243.042 425.326 243.686 425.101L246.958 423.957C247.232 423.861 247.427 423.617 247.46 423.328L247.851 419.884Z" fill="#FFB28B"></path>
<path opacity="0.5" d="M320.917 48.7851C321.171 48.152 322.067 48.152 322.321 48.7851L323.613 52.0014C323.721 52.271 323.974 52.4548 324.264 52.4745L327.722 52.7089C328.403 52.7551 328.68 53.6075 328.156 54.0449L325.496 56.2671C325.273 56.4534 325.177 56.7509 325.248 57.0326L326.093 60.3938C326.26 61.0554 325.535 61.5822 324.957 61.2194L322.021 59.3766C321.775 59.2221 321.463 59.2221 321.216 59.3766L318.281 61.2194C317.703 61.5822 316.978 61.0554 317.145 60.3938L317.99 57.0326C318.061 56.7509 317.964 56.4534 317.742 56.2671L315.082 54.0449C314.558 53.6075 314.835 52.7551 315.516 52.7089L318.974 52.4745C319.264 52.4548 319.517 52.271 319.625 52.0014L320.917 48.7851Z" fill="#FFB28B"></path>
<path opacity="0.5" d="M531.544 43.8023C530.476 44.9664 529.842 46.5886 529.79 48.2954C529.734 49.999 530.275 51.7685 531.383 53.1283C532.523 54.5315 534.284 55.2598 535.867 55.954C537.467 56.6606 538.869 57.3188 539.708 58.8635C540.515 60.3198 540.61 61.9301 540.827 63.6484C541.042 65.3496 541.383 67.1562 542.65 68.6212C543.742 69.88 545.226 70.6995 546.756 71.0113C548.288 71.3282 549.854 71.1396 551.174 70.5352C551.984 70.1564 552.559 68.6959 552.944 67.9834C553.091 67.7226 553.727 66.2308 553.571 66.3256C552.346 67.1063 550.813 67.3562 549.374 67.0218C547.936 66.6951 546.615 65.7847 545.854 64.4663C545.104 63.1723 545.01 61.509 544.923 60.014C544.827 58.504 544.743 57.1786 543.856 56.1967C543.022 55.2637 541.758 54.9418 540.358 54.5531C538.971 54.1708 537.453 53.7307 536.409 52.6993C535.328 51.6418 534.785 50.1636 534.819 48.7168C534.845 47.2664 535.439 45.8653 536.458 44.8595C536.267 45.0552 535.214 44.6633 534.146 44.2333C533.071 43.8133 531.945 43.3559 531.544 43.8023Z" fill="#FFB28B"></path>
<g opacity="0.5">
<path d="M261.343 466.271C261.831 465.543 262.274 464.673 262.538 463.811L262.539 463.81C262.614 463.555 262.675 463.301 262.718 463.055C263.002 461.323 262.6 460.313 261.967 459.844C261.336 459.366 260.482 459.38 259.773 459.513C259.581 459.556 259.276 460.155 259.058 460.581C258.977 460.74 258.908 460.876 258.862 460.948C258.848 460.971 258.815 461.036 258.768 461.125C258.686 461.284 258.562 461.522 258.437 461.748C258.248 462.102 258.061 462.427 258.061 462.427C258.897 462.451 259.787 462.515 260.356 463.384C260.602 463.766 260.751 464.289 260.785 464.918C260.808 465.175 260.802 465.449 260.769 465.738C260.766 465.75 260.763 465.76 260.76 465.771L260.754 465.793C260.582 465.895 260.421 465.979 260.315 465.995C259.994 466.042 259.693 465.973 259.395 465.906C259.336 465.892 259.277 465.879 259.218 465.866C259.104 465.841 258.992 465.813 258.879 465.786C258.262 465.635 257.646 465.484 256.98 465.694C256.639 465.795 256.297 465.998 255.951 466.234L255.95 466.235C255.241 466.737 254.541 467.382 254.035 467.903C253.429 468.527 253.255 469.243 253.303 470.053C253.361 470.861 253.637 471.745 254.057 472.484C254.217 472.768 254.393 473.029 254.57 473.291C254.926 473.819 255.282 474.346 255.498 475.054C255.652 475.571 255.727 476.183 255.653 476.852C255.635 477.123 255.587 477.407 255.502 477.691C255.41 478.005 255.282 478.298 255.127 478.57C255.585 478.705 256.135 478.628 256.695 478.315C257.07 477.964 257.4 477.531 257.66 477.065C258.454 475.581 258.388 474.338 258.025 473.415C257.712 472.613 257.177 471.998 256.744 471.5C256.675 471.421 256.609 471.346 256.547 471.272C255.982 470.617 255.477 469.843 255.316 468.766C255.273 468.476 255.257 468.178 255.279 467.877C255.312 467.788 255.334 467.717 255.349 467.655L255.353 467.654C255.393 467.522 255.436 467.391 255.483 467.262C255.436 467.391 255.393 467.522 255.353 467.653C255.586 467.676 255.81 467.726 256.029 467.809C256.33 467.908 256.62 468.042 256.907 468.174C257.228 468.322 257.546 468.469 257.87 468.562C258.487 468.733 259.138 468.712 259.912 467.989C260.329 467.595 260.856 467.004 261.343 466.271Z" fill="#FFB28B"></path>
<path d="M253.799 477.809C253.625 477.68 253.452 477.552 253.27 477.44C252.82 477.16 252.366 476.985 251.864 476.955L251.83 476.95C251.355 476.939 250.784 476.937 250.241 476.995C249.696 477.051 249.176 477.167 248.746 477.445C248.079 477.881 247.638 478.71 247.244 479.711C246.941 480.499 246.671 481.389 246.412 482.245C246.339 482.485 246.267 482.723 246.196 482.955C246.161 483.055 246.673 483.337 247.242 483.47C247.808 483.617 248.428 483.62 248.461 483.481C248.535 483.181 248.606 482.88 248.677 482.579C248.914 481.575 249.149 480.577 249.496 479.666C249.694 479.135 249.928 478.664 250.201 478.241C250.294 478.083 250.398 477.951 250.503 477.818C250.573 477.865 250.644 477.911 250.712 477.955C250.849 478.043 250.973 478.122 251.039 478.187C251.183 478.331 251.321 478.488 251.458 478.644C251.635 478.845 251.812 479.046 252.003 479.222C252.539 479.713 253.119 479.977 253.877 479.814C254.617 479.663 255.754 479.226 256.695 478.315C256.135 478.628 255.585 478.705 255.127 478.57C254.976 478.512 254.771 478.42 254.509 478.282C254.259 478.15 254.029 477.979 253.799 477.809Z" fill="#FFB28B"></path>
</g>
<path opacity="0.5" d="M253.237 270.214C251.785 269.696 250.574 269.445 249.435 269.517C248.296 269.58 247.251 269.953 246.198 270.466C245.31 265.235 245.835 261.223 246.412 258.419C247.234 259.559 248.77 259.807 250.004 259.342C249.788 260.783 249.763 262.379 250.19 264.227C250.615 266.057 251.505 268.181 253.237 270.214Z" fill="#FFB28B"></path>
</g>
<defs>
<clipPath id="clip0_1199_8463">
<rect width="600" height="564" fill="white"></rect>
</clipPath>
</defs>
</svg>