<svg width="600" height="572" viewBox="0 0 600 572" fill="none" xmlns="http://www.w3.org/2000/svg">
<g clip-path="url(#clip0_1199_8553)">
<path d="M39.5409 642.806C106.727 644.924 185.601 635.754 236.027 584.166C246.502 573.45 255.257 561.017 260.363 546.603C267.53 526.373 268.644 504.003 264.178 482.983C259.469 460.807 248.884 441.413 232.785 426.037C215.903 409.929 192.129 396.717 183.241 373.534C175.501 353.327 192.151 333.074 208.592 324.373C230.061 313.004 255.048 317.527 276.109 327.613C317.591 347.476 351.521 386.379 370.586 429.002C380.444 451.041 389.287 477.911 381.161 501.976C374.611 521.382 356.78 538.967 335.708 535.658C327.118 534.307 317.889 529.751 313.004 522.011C308.13 514.283 312.85 504.541 317.911 498.152C334.374 477.384 362.228 479.193 384.877 485.696C408.893 492.6 431.696 503.625 457.168 502.434C479.089 501.415 500.36 492.817 518.157 479.697C556.1 451.728 574.47 403.815 577.04 356.784C578.495 330.166 574.967 303.445 568.395 277.743C561.823 252.04 553.244 227.174 541.093 204.551C532.227 188.054 516.547 167.549 495.728 173.205C475.969 178.563 464.942 203.486 467.103 223.247C468.47 235.783 472.286 248.938 480.512 258.52C487.039 266.122 498.011 271.537 507.726 267.462C524.442 260.455 524.85 235.943 523.13 220.396C520.704 198.403 513.459 176.067 505.575 155.585C497.261 133.982 486.488 113.511 474.943 93.6022C452.779 55.3751 418.817 21.4412 376.518 9.40867C338.73 -1.34163 293.763 7.9089 266.648 38.5341C250.99 56.2223 244.539 79.2684 235.861 100.964C227.183 122.659 214.943 140.107 196.573 153.296C179.184 165.775 158.112 172.907 136.962 173.262C112.339 173.674 89.5031 162.306 65.134 160.577C44.4037 159.111 22.5597 165.958 12.4923 186.268C2.59027 206.246 6.40553 230.654 8.67704 251.994C11.2132 275.865 9.71355 298.213 -0.552351 320.126C-10.4875 341.34 -26.785 359.097 -46.9088 370.133C-66.768 381.021 -89.9352 385.726 -112.264 383.002C-118.45 382.246 -115.958 400.278 -110.897 400.896C-65.941 406.38 -21.5032 384.341 1.73019 343.813C13.3744 323.514 19.0312 299.804 18.5019 276.231C18.0277 254.994 11.4006 232.6 15.8113 211.512C20.6521 188.351 41.647 178.505 62.7963 178.494C87.0772 178.471 109.803 190.08 134.018 191.282C175.247 193.343 216.079 168.992 235.685 131.429C246.998 109.768 251.607 84.5692 265.336 64.2134C276.55 47.59 293.41 35.775 311.802 29.3751C352.094 15.362 394.823 27.0053 427.495 53.944C444.763 68.1861 459.142 85.8285 470.687 105.291C481.824 124.056 492.2 143.736 500.018 164.263C504.032 174.785 507.34 185.581 510.24 196.48C512.655 205.57 515.202 214.855 515.356 224.357C515.477 232.177 514.209 241.267 508.233 246.705C500.327 253.918 488.131 250.415 481.802 242.687C468.007 225.823 478.847 197.533 498.474 191.557C519.965 185.008 533.892 208.89 541.423 225.777C561.966 271.846 575.485 323.457 565.528 374.243C556.431 420.668 527.607 462.581 483.401 478.358C460.873 486.395 438.411 485.593 415.762 478.518C392.011 471.099 367.598 459.525 342.181 463.967C321.495 467.584 303.753 484.437 302.485 506.888C301.338 527.232 313.081 546.718 332.224 552.465C351.708 558.315 370.277 547.759 381.094 530.976C394.514 510.162 394.613 483.429 389.32 459.788C379.099 414.188 353.318 371.759 319.587 340.939C287.918 311.997 237.669 282.62 197.267 310.99C179.944 323.159 170.605 343.55 173.317 365.165C176.416 389.871 192.294 408.567 210.169 423.793C227.117 438.219 245.19 451.728 253.35 473.744C260.186 492.199 259.966 513.276 253.438 531.8C244.473 557.262 223.544 576.541 201.656 590.2C172.579 608.357 138.693 617.459 105.271 621.798C82.2916 624.775 59.1023 625.45 35.9793 624.729C31.3811 624.58 33.4431 642.657 39.4968 642.841L39.5409 642.806Z" fill="#859EEE"></path>
<path opacity="0.5" d="M36.9056 450.239C35.3024 449.337 33.2456 449.901 32.5943 451.621C30.9285 456.02 30.6954 460.866 31.98 465.451C33.5661 471.111 37.336 475.91 42.4603 478.792C47.5846 481.673 53.6436 482.4 59.3043 480.814C63.8891 479.53 67.9084 476.813 70.8015 473.104C71.9328 471.654 71.3456 469.603 69.7424 468.702L65.8874 466.534C64.2842 465.633 62.2796 466.254 60.944 467.518C59.6485 468.745 58.0636 469.652 56.3142 470.142C53.4838 470.935 50.4543 470.572 47.8921 469.131C45.33 467.69 43.445 465.291 42.652 462.461C42.1618 460.711 42.1136 458.886 42.4885 457.141C42.8749 455.343 42.3637 453.308 40.7606 452.406L36.9056 450.239Z" fill="#859EEE"></path>
<path opacity="0.5" d="M582.383 454.611C580.779 453.71 578.723 454.273 578.071 455.994C576.406 460.393 576.172 465.239 577.457 469.823C579.043 475.484 582.813 480.283 587.937 483.164C593.062 486.045 599.121 486.773 604.781 485.187C609.366 483.902 613.385 481.185 616.279 477.476C617.41 476.026 616.823 473.976 615.219 473.074L611.364 470.907C609.761 470.006 607.757 470.626 606.421 471.891C605.126 473.117 603.541 474.025 601.791 474.515C598.961 475.308 595.931 474.944 593.369 473.504C590.807 472.063 588.922 469.663 588.129 466.833C587.639 465.084 587.591 463.258 587.966 461.514C588.352 459.716 587.841 457.68 586.238 456.779L582.383 454.611Z" fill="#859EEE"></path>
<path opacity="0.5" d="M187.622 27.6763C188.228 28.3298 189.261 28.3743 189.817 27.6769C191.237 25.8933 192.062 23.6912 192.149 21.3849C192.255 18.5373 191.226 15.764 189.288 13.6752C187.349 11.5864 184.661 10.3531 181.813 10.2467C179.507 10.1605 177.249 10.8192 175.364 12.1025C174.628 12.6042 174.595 13.6375 175.201 14.291L176.659 15.8624C177.266 16.5159 178.283 16.5263 179.087 16.1405C179.866 15.7663 180.732 15.5823 181.612 15.6152C183.036 15.6684 184.38 16.285 185.35 17.3294C186.319 18.3738 186.833 19.7605 186.78 21.1843C186.747 22.0643 186.499 22.914 186.068 23.6635C185.623 24.4362 185.557 25.4514 186.164 26.1049L187.622 27.6763Z" fill="#859EEE"></path>
<path opacity="0.5" d="M315.849 168.782C314.118 169.597 313.355 171.68 314.42 173.269C317.142 177.333 321.108 180.453 325.767 182.13C331.52 184.2 337.859 183.9 343.391 181.296C348.923 178.692 353.193 173.997 355.263 168.244C356.94 163.585 357.062 158.541 355.664 153.852C355.118 152.019 353.026 151.28 351.296 152.095L347.134 154.054C345.404 154.869 344.721 156.942 344.987 158.836C345.245 160.673 345.058 162.563 344.418 164.341C343.383 167.218 341.247 169.565 338.482 170.867C335.716 172.169 332.546 172.319 329.67 171.284C327.892 170.644 326.316 169.584 325.064 168.215C323.774 166.803 321.741 166.008 320.01 166.823L315.849 168.782Z" fill="#859EEE"></path>
<path opacity="0.5" d="M582.356 96.421C584.575 95.6419 585.77 93.1908 584.667 91.1137C581.848 85.8015 577.39 81.4882 571.903 78.8531C565.127 75.5994 557.337 75.1705 550.245 77.6608C543.153 80.1511 537.341 85.3566 534.088 92.1321C531.453 97.6196 530.67 103.773 531.791 109.682C532.229 111.992 534.694 113.158 536.913 112.379L542.248 110.506C544.466 109.726 545.562 107.277 545.474 104.927C545.39 102.648 545.856 100.36 546.861 98.266C548.488 94.8783 551.394 92.2756 554.94 91.0304C558.486 89.7853 562.381 89.9997 565.769 91.6265C567.863 92.6321 569.657 94.1263 571.016 95.9583C572.417 97.8469 574.803 99.0736 577.022 98.2945L582.356 96.421Z" fill="#859EEE"></path>
<rect opacity="0.5" x="195.823" y="517.832" width="21.3582" height="21.3582" rx="6" transform="rotate(21.2389 195.823 517.832)" fill="#859EEE"></rect>
<rect opacity="0.5" x="558.28" y="117.943" width="29.9808" height="29.9808" rx="6" transform="rotate(21.2389 558.28 117.943)" fill="#859EEE"></rect>
<path opacity="0.5" d="M158.508 51.5595C159.379 49.3177 161.903 48.2067 164.145 49.078L170.476 51.5386C172.718 52.4099 173.829 54.9336 172.957 57.1754L170.497 63.5064C169.626 65.7483 167.102 66.8593 164.86 65.988L158.529 63.5274C156.287 62.6561 155.176 60.1324 156.047 57.8906L158.508 51.5595Z" fill="#859EEE"></path>
<path opacity="0.5" d="M348.451 235.715C349.062 234.949 350.296 235.359 350.326 236.338L350.519 242.568C350.529 242.877 350.674 243.166 350.915 243.358L355.788 247.245C356.554 247.855 356.144 249.089 355.165 249.119L348.935 249.313C348.626 249.322 348.337 249.467 348.145 249.708L344.258 254.582C343.648 255.347 342.414 254.937 342.384 253.958L342.19 247.728C342.181 247.419 342.036 247.13 341.795 246.938L336.921 243.051C336.156 242.441 336.566 241.207 337.545 241.177L343.775 240.984C344.084 240.974 344.373 240.829 344.565 240.588L348.451 235.715Z" fill="#859EEE"></path>
<path opacity="0.5" d="M137.061 4.19047C137.187 3.21944 138.455 2.93287 138.987 3.75501L142.374 8.98803C142.542 9.24729 142.815 9.41977 143.121 9.45976L149.302 10.267C150.273 10.3938 150.56 11.6618 149.737 12.1939L144.504 15.5804C144.245 15.7482 144.073 16.0214 144.033 16.3276L143.225 22.5084C143.099 23.4794 141.831 23.766 141.299 22.9439L137.912 17.7108C137.744 17.4516 137.471 17.2791 137.165 17.2391L130.984 16.4319C130.013 16.3051 129.726 15.037 130.549 14.505L135.782 11.1184C136.041 10.9506 136.213 10.6775 136.253 10.3712L137.061 4.19047Z" fill="#859EEE"></path>
<circle opacity="0.5" cx="61.5387" cy="72.9388" r="4.64456" fill="#859EEE"></circle>
<circle opacity="0.5" cx="156.278" cy="546.269" r="4.64456" fill="#859EEE"></circle>
<circle opacity="0.5" cx="26.6954" cy="424.93" r="3.68854" fill="#859EEE"></circle>
<circle opacity="0.5" cx="348.964" cy="118.941" r="7.08337" fill="#859EEE"></circle>
<circle opacity="0.5" cx="335.325" cy="96.6236" r="3.68854" fill="#859EEE"></circle>
<path opacity="0.5" d="M131.104 613.001C128.693 610.774 102.031 579.982 99.7779 577.578C99.5819 577.37 99.3912 577.156 99.2006 576.941C103.486 574.499 106.814 570.535 108.277 565.791C110.072 559.976 109.302 553.73 111.239 547.924C111.36 547.564 110.909 547.126 110.565 547.368C105.534 550.923 98.9961 553.734 96.3179 559.655C94.1798 564.373 94.6773 569.27 96.6033 573.772C95.5075 572.291 94.5004 570.746 93.5964 569.136C90.9185 564.36 89.1178 559.056 88.2662 553.628C90.6384 552.914 92.1079 549.984 93.0474 547.24C93.0875 547.233 93.1268 547.229 93.1693 547.216C96.1494 546.308 99.0856 545.258 101.954 544.038C103.506 543.376 106.352 542.519 106.499 540.416C106.705 537.487 102.534 538.495 99.1211 539.836C102.391 536.453 106.36 531.52 103.228 530.202C101.177 529.34 98.2698 531.818 96.7809 532.953C96.144 533.443 95.5392 533.965 94.9604 534.514C96.0336 531.456 96.593 528.231 96.6159 524.938C96.6197 524.573 96.3217 524.223 95.9431 524.226C93.2785 524.257 91.7388 526.463 90.7943 528.721C89.8399 530.999 89.1117 533.41 88.4916 535.843C88.4225 534.01 88.2945 532.182 88.1008 530.357C87.8005 527.538 87.4696 524.618 85.4557 522.454C85.2001 522.178 84.6702 522.189 84.4742 522.546C82.3809 526.401 82.2208 530.636 82.8764 534.81C80.8457 530.829 78.2767 527.166 74.3097 524.863C74.0021 524.682 73.4844 524.791 73.4076 525.196C72.6706 529.069 73.8149 532.564 75.7398 535.712C73.1417 533.889 70.2075 532.571 67.0054 531.847C66.6348 531.762 66.1858 532.072 66.3161 532.497C68.3583 539.003 74.307 543.322 80.456 545.727C81.3008 549.203 83.3723 553.753 87.1101 553.793C87.1907 553.791 87.2648 553.786 87.342 553.783C87.789 559.412 89.477 564.861 92.2385 569.865C95.4456 575.676 114.722 597.93 130.66 613.71C131.054 613.883 131.407 613.284 131.104 613.001Z" fill="#859EEE"></path>
<path opacity="0.5" d="M322.817 352.426C324.578 350.799 344.062 328.297 345.709 326.54C345.852 326.388 345.992 326.231 346.131 326.075C343 324.29 340.567 321.393 339.498 317.926C338.186 313.677 338.749 309.112 337.334 304.869C337.245 304.606 337.575 304.286 337.826 304.464C341.503 307.061 346.28 309.115 348.238 313.442C349.8 316.89 349.437 320.469 348.029 323.759C348.83 322.677 349.566 321.547 350.226 320.371C352.183 316.88 353.499 313.004 354.122 309.038C352.388 308.516 351.314 306.375 350.628 304.369C350.598 304.364 350.57 304.362 350.539 304.352C348.361 303.689 346.215 302.921 344.119 302.029C342.985 301.546 340.905 300.92 340.798 299.383C340.647 297.243 343.695 297.979 346.189 298.959C343.799 296.487 340.899 292.882 343.188 291.919C344.686 291.288 346.811 293.1 347.899 293.929C348.365 294.287 348.807 294.668 349.23 295.07C348.445 292.835 348.037 290.478 348.02 288.072C348.017 287.805 348.235 287.549 348.512 287.551C350.459 287.574 351.584 289.187 352.274 290.837C352.972 292.501 353.504 294.263 353.957 296.041C354.007 294.701 354.101 293.365 354.243 292.032C354.462 289.972 354.704 287.838 356.175 286.257C356.362 286.055 356.75 286.063 356.893 286.324C358.423 289.141 358.54 292.236 358.06 295.286C359.544 292.377 361.422 289.7 364.321 288.017C364.545 287.885 364.924 287.965 364.98 288.26C365.519 291.091 364.682 293.645 363.276 295.945C365.174 294.613 367.319 293.65 369.659 293.121C369.929 293.059 370.257 293.285 370.162 293.595C368.67 298.35 364.323 301.507 359.829 303.264C359.212 305.804 357.698 309.129 354.967 309.158C354.908 309.157 354.853 309.154 354.797 309.151C354.47 313.265 353.237 317.247 351.219 320.904C348.875 325.15 334.788 341.413 323.141 352.944C322.853 353.071 322.595 352.633 322.817 352.426Z" fill="#859EEE"></path>
<path opacity="0.5" d="M158.595 105.067C156.85 103.454 137.542 81.1562 135.91 79.4151C135.768 79.2643 135.63 79.1091 135.492 78.9538C138.595 77.1856 141.005 74.3145 142.065 70.879C143.365 66.6683 142.807 62.1449 144.21 57.9408C144.297 57.6801 143.971 57.3628 143.722 57.5385C140.078 60.1124 135.344 62.1482 133.405 66.4356C131.856 69.8525 132.217 73.3987 133.611 76.6591C132.818 75.5867 132.088 74.4675 131.434 73.3019C129.495 69.8429 128.191 66.002 127.574 62.0716C129.292 61.5542 130.356 59.4323 131.036 57.4453C131.065 57.4403 131.094 57.4378 131.124 57.4278C133.283 56.7707 135.409 56.0098 137.486 55.1264C138.61 54.6469 140.671 54.0266 140.777 52.5035C140.926 50.3831 137.906 51.1129 135.435 52.0838C137.803 49.6338 140.677 46.0614 138.408 45.1074C136.924 44.4827 134.818 46.2775 133.74 47.0995C133.279 47.4539 132.841 47.8321 132.422 48.23C133.199 46.0155 133.604 43.6798 133.62 41.2951C133.623 41.0309 133.407 40.7774 133.133 40.7796C131.204 40.8018 130.089 42.3998 129.405 44.035C128.714 45.6845 128.186 47.4307 127.737 49.1923C127.687 47.8648 127.594 46.5409 127.454 45.2192C127.237 43.1779 126.997 41.0635 125.539 39.4967C125.354 39.2966 124.97 39.3047 124.828 39.5628C123.312 42.3545 123.196 45.4214 123.671 48.4444C122.2 45.5614 120.34 42.9084 117.467 41.2408C117.244 41.1097 116.87 41.1891 116.814 41.4818C116.28 44.2868 117.109 46.8175 118.503 49.0971C116.621 47.7773 114.496 46.8231 112.178 46.2988C111.909 46.2368 111.584 46.4612 111.679 46.7689C113.157 51.4807 117.465 54.6085 121.918 56.3496C122.53 58.8668 124.03 62.162 126.737 62.1908C126.795 62.1891 126.849 62.1861 126.905 62.1839C127.228 66.2602 128.451 70.2061 130.45 73.8298C132.773 78.0378 146.732 94.1531 158.274 105.58C158.559 105.705 158.815 105.272 158.595 105.067Z" fill="#859EEE"></path>
</g>
<defs>
<clipPath id="clip0_1199_8553">
<rect width="600" height="572" fill="white"></rect>
</clipPath>
</defs>
</svg>