<svg width="600" height="585" viewBox="0 0 600 585" fill="none" xmlns="http://www.w3.org/2000/svg">
<g clip-path="url(#clip0_1199_8521)">
<path opacity="0.5" d="M376.228 459.692C376.446 458.846 377.647 458.846 377.864 459.692L379.982 467.939C380.059 468.237 380.291 468.47 380.59 468.546L388.836 470.665C389.682 470.882 389.682 472.083 388.836 472.3L380.59 474.418C380.291 474.495 380.059 474.728 379.982 475.026L377.864 483.272C377.647 484.118 376.446 484.118 376.228 483.272L374.11 475.026C374.034 474.728 373.801 474.495 373.503 474.418L365.256 472.3C364.41 472.083 364.41 470.882 365.256 470.665L373.503 468.546C373.801 468.47 374.034 468.237 374.11 467.939L376.228 459.692Z" fill="#76DCB1"></path>
<path opacity="0.5" d="M23.894 198.309C24.1112 197.463 25.3123 197.463 25.5295 198.309L27.6476 206.556C27.7242 206.854 27.9571 207.087 28.2553 207.163L36.5019 209.281C37.3476 209.499 37.3476 210.7 36.5019 210.917L28.2553 213.035C27.9571 213.112 27.7242 213.345 27.6476 213.643L25.5295 221.889C25.3123 222.735 24.1112 222.735 23.894 221.889L21.7759 213.643C21.6993 213.345 21.4665 213.112 21.1682 213.035L12.9216 210.917C12.0759 210.7 12.0759 209.499 12.9216 209.281L21.1682 207.163C21.4665 207.087 21.6993 206.854 21.7759 206.556L23.894 198.309Z" fill="#76DCB1"></path>
<path opacity="0.5" d="M409.459 441.115C409.592 440.599 410.325 440.599 410.458 441.115L411.752 446.152C411.798 446.334 411.941 446.476 412.123 446.523L417.159 447.816C417.675 447.949 417.675 448.682 417.159 448.815L412.123 450.108C411.941 450.155 411.798 450.297 411.752 450.48L410.458 455.516C410.325 456.032 409.592 456.032 409.459 455.516L408.166 450.48C408.119 450.297 407.977 450.155 407.795 450.108L402.759 448.815C402.242 448.682 402.242 447.949 402.759 447.816L407.795 446.523C407.977 446.476 408.119 446.334 408.166 446.152L409.459 441.115Z" fill="#76DCB1"></path>
<path opacity="0.5" d="M582.283 150.661C582.415 150.144 583.149 150.144 583.282 150.661L584.575 155.697C584.622 155.879 584.764 156.021 584.946 156.068L589.982 157.361C590.499 157.494 590.499 158.227 589.982 158.36L584.946 159.654C584.764 159.7 584.622 159.843 584.575 160.025L583.282 165.061C583.149 165.577 582.415 165.577 582.283 165.061L580.989 160.025C580.943 159.843 580.8 159.7 580.618 159.654L575.582 158.36C575.066 158.227 575.066 157.494 575.582 157.361L580.618 156.068C580.8 156.021 580.943 155.879 580.989 155.697L582.283 150.661Z" fill="#76DCB1"></path>
<path opacity="0.5" d="M428.819 503.237C427.311 508.402 426.597 513.746 425.593 519.035C425.488 519.334 425.378 519.63 425.275 519.932C424.195 523.092 422.471 527.773 422.058 532.198C421.477 530.176 420.968 528.136 420.552 526.079C419.09 518.84 418.844 511.538 418.322 504.249C419.351 502.877 420.24 501.348 421.187 499.969C424.048 495.86 423.597 490.453 423.171 485.497C422.974 482.723 422.486 470.705 417.863 476.104C413.83 480.724 411.905 487.748 413.701 494.018C414.298 496.036 415.895 498.481 416.88 500.875C417.205 506.499 417.441 512.125 418.012 517.737C416.756 514.804 414.66 512.283 412.172 510.104C411.332 508.733 410.516 507.353 409.609 506.085C407.581 503.14 394.735 487.841 391.71 493.132C389.394 497.257 398.003 504.543 400.584 506.455C404.224 509.07 408.227 511.035 412.255 512.808C414.665 515.155 416.775 517.835 418.348 521.38C418.376 521.441 418.415 521.485 418.456 521.522C418.73 523.575 419.058 525.628 419.471 527.675C419.888 529.736 420.411 531.778 421.02 533.801C420.15 532.782 419.189 531.808 418.193 530.874C417.397 528.913 415.908 526.933 414.899 525.181C414.075 523.753 413.221 522.229 412.181 520.892C412.57 520.546 412.875 520.1 413.032 519.569C414.034 516.183 408.12 514.041 406.826 517.163C406.446 518.078 406.71 518.978 407.278 519.691C407.66 520.546 408.374 521.209 409.385 521.514C410.127 521.736 410.875 521.647 411.512 521.339C412.492 522.965 413.607 524.536 414.56 526.168C415.05 527.008 415.511 527.972 416.014 528.914C415.013 528.044 414.022 527.207 413.099 526.399C410.198 523.862 406.81 522.296 403.346 520.899C403.94 519.474 403.66 517.535 402.483 516.444C400.961 515.032 398.795 515.311 397.306 516.34C395.87 517.332 395.18 519.561 395.835 521.291C395.997 521.72 396.268 522.048 396.592 522.308C396.892 522.975 397.487 523.463 398.457 523.618C400.146 523.887 401.892 522.918 402.895 521.692C403.013 521.549 403.108 521.386 403.198 521.221C406.549 522.796 409.752 524.624 412.669 527.048C414.686 528.722 416.289 530.898 417.927 533.015C416.978 532.703 415.92 532.582 414.905 532.549C414.536 530.149 411.732 528.206 409.43 529.262C407.946 529.943 407.634 531.819 407.915 533.348C408.145 534.597 409.015 535.509 410.163 535.893C410.473 536.075 410.82 536.214 411.207 536.281C412.876 536.568 414.293 535.67 414.793 534.1C414.875 533.842 414.914 533.581 414.932 533.323C415.372 533.38 415.813 533.447 416.252 533.543C417.62 533.841 418.587 534.566 419.728 535.25C420.551 536.208 421.42 537.104 422.381 537.883C425.299 545.886 429.535 553.513 434.299 560.565C434.596 561.004 434.9 561.443 435.203 561.881C431.973 558.818 428.363 556.19 424.603 553.746C423.393 552.402 422.208 551.032 420.955 549.774C417.699 546.531 414.96 542.951 411.698 539.808C408.863 537.066 399.462 528.834 395.391 531.397C393.327 532.751 394.452 536.739 395.042 538.71C396.411 542.777 399.069 546.047 402.618 548.475C409.449 553.255 418.157 556.045 426.219 557.435C430.935 560.674 435.537 564.089 439.683 568.198C439.748 568.262 439.817 568.298 439.887 568.323C442.964 572.339 446.275 576.266 449.783 580.045C449.147 579.801 448.496 579.588 447.84 579.391C444.976 578.529 442.097 577.715 439.227 576.874C438.547 576.675 437.856 576.472 437.159 576.269C437.131 576.235 437.111 576.199 437.073 576.169C435.667 575.027 434.338 573.821 433.061 572.549C434.252 571.757 434.897 570.101 434.324 568.668C432.906 565.125 426.501 565.65 426.608 569.604C426.643 570.913 427.63 571.818 428.878 572.286C429.785 572.871 430.875 573.151 431.941 572.998C431.995 572.99 432.043 572.965 432.097 572.953C432.908 573.877 433.766 574.75 434.678 575.569C431.456 574.684 428.131 573.937 424.885 573.7C424.982 572.39 424.353 571.073 423.255 570.263C421.904 569.268 420.258 569.707 419.225 570.749C418.168 571.814 417.565 573.379 418.511 574.812C418.733 575.15 419.046 575.404 419.399 575.598C419.825 576.233 420.434 576.72 421.252 576.849C422.753 577.086 424.097 576.092 424.642 574.757C429.172 575.634 433.684 576.364 438.196 577.626C439.799 578.075 441.396 578.553 442.997 579.02C440.752 579.41 438.504 580.489 436.366 581.301C435.612 579.751 433.611 578.712 431.916 578.932C429.086 579.3 428.739 583.66 431.214 585.077C431.601 585.298 432.052 585.432 432.521 585.49C432.603 585.515 432.679 585.55 432.765 585.57C434.381 585.946 435.867 585.206 436.458 583.707C436.7 583.093 436.72 582.499 436.591 581.947C437.58 581.706 438.555 581.421 439.538 581.097C441.491 580.453 443.481 580.181 445.455 579.715C445.527 579.734 445.599 579.757 445.67 579.776C447.466 580.247 449.437 580.633 451.146 581.496C459.246 590.011 468.358 597.709 478.099 603.874C475.627 603.091 473.143 602.437 470.785 601.807C470.721 601.789 470.653 601.772 470.589 601.754C468.862 600.394 467.197 598.94 465.379 597.696C463.557 596.45 461.665 595.258 459.743 594.19C456.351 592.304 452.76 591.324 449.075 590.406C445.974 589.633 442.414 588.958 439.795 591.057C432.304 597.062 443.939 604.462 449.442 605.723C456.864 607.397 464.758 606.478 471.336 603.232C476.72 604.662 481.744 606.665 486.82 608.881C488.752 609.88 490.982 610.889 492.95 611.753C492.278 611.028 491.996 610.746 491.817 610.518C490.805 610.028 490.879 610.004 489.881 609.484C489.872 609.415 489.835 609.347 489.758 609.289C488.246 608.162 486.924 606.911 485.737 605.575C485.755 605.535 485.756 605.489 485.731 605.434C483.869 601.47 484.436 598.025 485.262 594.344C485.795 594.432 486.352 594.449 486.911 594.382C489.796 594.046 491.993 590.809 490.361 587.956C489.041 585.646 485.697 585.174 483.662 586.317C482.424 587.011 481.829 588.318 481.815 589.757C481.813 589.914 481.84 590.064 481.864 590.214C481.57 592.251 482.806 593.622 484.508 594.162C483.503 597.541 483.409 601.327 484.941 604.637C479.868 598.398 477.687 590.365 475.699 582.618C477.017 582.672 478.293 582.107 479.182 581.11C480.327 579.825 480.282 577.655 479.392 576.133C478.347 574.343 476.43 573.911 474.658 574.446C473.027 574.938 472.039 576.393 471.931 578.042C471.462 579.541 472.264 581.2 473.763 582.064C474.225 582.329 474.703 582.494 475.183 582.576C475.602 587.071 477.09 591.642 478.889 595.856C477.293 593.907 475.433 592.069 473.404 590.54C474.263 589.197 474.227 587.311 472.817 585.981C471.007 584.273 467.921 584.239 466.426 586.07C465.602 587.078 465.668 588.756 466.395 589.881C466.526 590.081 466.737 590.315 466.99 590.547C467.827 591.962 469.791 592.535 471.467 592.023C471.981 591.866 472.425 591.599 472.797 591.261C475.216 593.336 477.526 595.481 479.735 597.884C479.761 597.913 479.79 597.932 479.82 597.949C481.382 601.246 483.418 604.537 486.067 607.103C485.148 606.615 484.202 606.171 483.237 605.759C476.883 601.931 470.814 597.536 465.089 592.679C462.604 589.025 460.953 585.163 459.783 581.178C460.246 579.893 461.053 578.746 461.578 577.509C463.132 573.642 464.365 569.287 465.483 565.217C466.825 560.675 467.137 555.86 466.253 551.101C465.653 547.526 464.163 541.094 460.487 539.152C452.124 534.696 450.482 559.315 450.858 563.363C451.498 569.861 454.604 574.225 457.689 579.308C458.844 583.329 460.438 587.159 462.609 590.51C454.733 583.535 447.527 575.736 441.101 567.492C440.263 564.439 439.563 561.412 439.047 558.363C439.886 557.224 440.313 555.665 440.928 554.397C441.459 553.299 442.152 552.308 442.795 551.287C443.595 551.967 444.713 552.082 445.683 551.958C448.182 551.636 450.032 549.217 448.639 546.699C447.592 544.805 445.289 543.997 443.364 544.569C441.509 545.12 440.702 547.278 441.51 549.094C441.623 549.347 441.775 549.571 441.942 549.782C441.973 550.002 442.043 550.213 442.136 550.417C441.288 551.414 440.609 552.578 439.945 553.697C439.513 554.427 439.038 555.259 438.704 556.129C438.442 554.222 438.252 552.304 438.162 550.355C437.957 545.899 438.515 541.587 438.912 537.226C439.345 537.307 439.794 537.315 440.229 537.268C442.308 537.041 444.387 535.324 444.654 533.192C444.812 531.933 443.972 530.777 442.995 530.036C441.568 528.953 439.69 528.648 438.167 529.417C436.605 530.206 435.669 532.008 436.357 533.805C436.387 533.882 436.436 533.95 436.472 534.025C436.466 534.845 436.644 535.665 437.233 536.322C437.45 536.563 437.696 536.748 437.958 536.893C437.141 540.838 436.817 545.055 436.955 549.309C435.979 546.793 434.449 544.203 432.635 542.317C432.743 542.24 432.849 542.159 432.944 542.069C435.195 539.981 433.032 535.492 430.15 534.957C427.555 534.477 426.472 537.95 426.95 539.972C427.109 540.646 427.459 541.257 427.945 541.708C428.289 542.146 428.734 542.509 429.303 542.76C430.122 543.119 431.064 543.058 431.87 542.733C432.658 544.096 433.594 545.379 434.408 546.727C435.317 548.231 436.091 549.801 437.05 551.275C437.376 556.269 438.324 561.257 439.839 565.853C438.598 564.223 437.377 562.585 436.198 560.926C431.238 553.952 427.078 546.358 424.101 538.389C423.492 532.215 424.758 526.579 426.634 521.096C427.647 519.687 428.981 518.49 430.046 517.19C432.337 514.412 434.866 511.814 436.918 508.858C438.923 505.846 446.187 494.91 441.204 491.41C435.075 487.076 429.911 499.666 428.819 503.237ZM432.415 570.639C432.428 570.617 432.435 570.595 432.447 570.573C432.452 570.58 432.456 570.587 432.462 570.594C432.447 570.609 432.431 570.623 432.415 570.639ZM421.344 571.601C421.295 571.601 421.246 571.603 421.197 571.606C421.281 571.45 421.208 571.48 421.344 571.601ZM487.169 587.39C487.163 587.388 487.156 587.386 487.151 587.382C487.18 587.39 487.208 587.396 487.237 587.404C487.215 587.398 487.192 587.395 487.169 587.39ZM483.767 588.444C483.751 588.45 483.737 588.457 483.721 588.465C483.73 588.451 483.742 588.441 483.751 588.427C483.757 588.432 483.761 588.438 483.767 588.444ZM470.153 586.226C470.15 586.225 470.147 586.224 470.144 586.223C470.148 586.223 470.153 586.223 470.157 586.224L470.153 586.226Z" fill="#76DCB1"></path>
<path opacity="0.5" d="M40.2263 536.029C45.4448 537.34 50.4158 539.429 55.4859 541.238C55.7972 541.299 56.1083 541.354 56.4206 541.417C59.6931 542.084 64.6026 542.965 68.6288 544.848C67.1789 543.323 65.6762 541.852 64.1119 540.453C58.6074 535.53 52.4334 531.624 46.4102 527.486C44.7062 527.679 42.9373 527.673 41.2688 527.793C36.2765 528.181 31.8407 525.057 27.7815 522.183C25.488 520.609 15.3688 514.109 22.3642 512.852C28.3901 511.71 35.4228 513.603 39.922 518.324C41.3617 519.86 42.6623 522.474 44.229 524.535C48.9157 527.661 53.6495 530.71 58.2013 534.042C56.3068 531.475 55.1932 528.391 54.5717 525.143C53.8138 523.724 53.0369 522.323 52.4016 520.9C50.8874 517.66 44.1888 498.839 50.2829 498.906C55.0129 498.996 56.9427 510.107 57.2856 513.301C57.7001 517.764 57.3704 522.21 56.8624 526.583C57.668 529.849 58.9121 533.025 61.174 536.175C61.2123 536.23 61.2311 536.285 61.2415 536.34C62.8746 537.615 64.4794 538.936 66.036 540.328C67.6032 541.73 69.0999 543.215 70.536 544.763C70.0978 543.497 69.7439 542.176 69.4415 540.844C68.1528 539.165 67.1981 536.879 66.1982 535.122C65.3826 533.69 64.4999 532.182 63.8729 530.609C63.3774 530.769 62.8383 530.806 62.301 530.673C58.8733 529.824 60.0176 523.64 63.3657 524.102C64.3472 524.238 64.9892 524.921 65.3178 525.771C65.8614 526.533 66.0725 527.485 65.8236 528.511C65.6399 529.264 65.185 529.864 64.5972 530.258C65.5039 531.926 66.2943 533.682 67.2203 535.329C67.6973 536.177 68.2949 537.062 68.8541 537.973C68.6091 536.669 68.3885 535.391 68.1589 534.186C67.438 530.4 67.8013 526.686 68.3485 522.991C66.8186 522.782 65.2877 521.56 64.9418 519.993C64.4939 517.966 65.8307 516.238 67.471 515.474C69.0539 514.737 71.3256 515.27 72.4864 516.71C72.7742 517.067 72.9199 517.466 72.9806 517.878C73.4038 518.474 73.5242 519.234 73.1669 520.149C72.5449 521.742 70.8251 522.758 69.261 523.003C69.0774 523.032 68.8889 523.032 68.7006 523.026C68.3645 526.713 68.3209 530.401 68.9358 534.143C69.3595 536.73 70.4257 539.213 71.4233 541.697C71.6344 540.721 72.0648 539.747 72.5501 538.855C70.6665 537.323 70.4088 533.921 72.4848 532.47C73.8226 531.534 75.5985 532.213 76.7757 533.23C77.7361 534.06 78.0834 535.272 77.8335 536.456C77.8339 536.816 77.7784 537.185 77.6402 537.553C77.0431 539.138 75.5518 539.906 73.9448 539.544C73.6802 539.483 73.436 539.385 73.2039 539.27C73.0308 539.678 72.8654 540.093 72.7261 540.52C72.2912 541.85 72.4273 543.051 72.4405 544.382C72.8504 545.577 73.1837 546.779 73.3694 548.002C78.7969 554.568 83.2327 562.08 86.9056 569.757C87.134 570.236 87.3592 570.72 87.5838 571.203C86.5751 566.867 86.1345 562.424 85.9284 557.944C85.3812 556.22 84.799 554.504 84.348 552.788C83.1981 548.338 81.4952 544.164 80.434 539.761C79.5034 535.928 77.158 523.654 81.4289 521.439C83.6406 520.344 86.5109 523.332 87.9132 524.838C90.7286 528.076 92.205 532.024 92.5034 536.313C93.1717 544.624 91.173 553.546 88.2931 561.204C88.7017 566.911 89.3193 572.608 90.7662 578.263C90.7887 578.351 90.7842 578.429 90.7707 578.501C92.6784 583.188 94.3911 588.031 95.8761 592.969C95.9874 592.297 96.1333 591.627 96.2952 590.962C96.9996 588.055 97.7543 585.159 98.4811 582.258C98.6532 581.571 98.8275 580.873 99.0051 580.169C98.9903 580.127 98.9688 580.092 98.9624 580.044C98.689 578.253 98.3203 576.497 97.8693 574.752C96.5832 575.379 94.829 575.097 93.8828 573.878C91.5436 570.862 95.237 565.603 98.5932 567.696C99.7051 568.388 99.986 569.697 99.7588 571.011C99.8045 572.089 99.4942 573.171 98.823 574.013C98.789 574.056 98.7429 574.084 98.7056 574.125C99.0922 575.292 99.4117 576.473 99.6559 577.674C100.523 574.447 101.561 571.201 102.998 568.282C101.819 567.703 101.001 566.493 100.858 565.137C100.683 563.468 101.895 562.27 103.316 561.906C104.77 561.534 106.425 561.805 107.182 563.346C107.361 563.709 107.422 564.107 107.41 564.51C107.743 565.198 107.855 565.97 107.553 566.741C106.998 568.155 105.46 568.812 104.033 568.607C102.497 572.958 100.845 577.22 99.6512 581.75C99.2272 583.36 98.8318 584.979 98.4247 586.596C99.897 584.857 101.965 583.464 103.747 582.031C102.791 580.596 102.907 578.344 103.955 576.993C105.704 574.739 109.64 576.645 109.61 579.496C109.605 579.942 109.493 580.398 109.305 580.833C109.286 580.916 109.277 580.999 109.251 581.084C108.758 582.668 107.368 583.575 105.776 583.327C105.124 583.225 104.602 582.942 104.191 582.551C103.482 583.283 102.743 583.979 101.966 584.663C100.422 586.022 99.1812 587.601 97.781 589.068C97.7603 589.14 97.7444 589.213 97.7241 589.284C97.2221 591.071 96.5586 592.967 96.4384 594.878C99.6853 606.173 101.716 617.927 102.107 629.449C102.682 626.92 103.374 624.447 104.023 622.094C104.041 622.03 104.06 621.963 104.077 621.898C103.777 619.72 103.365 617.548 103.212 615.351C103.058 613.149 102.988 610.914 103.039 608.715C103.128 604.835 104.1 601.242 105.171 597.599C106.074 594.533 107.292 591.121 110.427 589.924C119.398 586.499 119.895 600.28 118.198 605.665C115.888 612.914 111.101 619.258 104.974 623.29C103.483 628.657 102.67 634.005 102.013 639.504C101.897 641.676 101.64 644.11 101.39 646.245C101.105 645.299 101.004 644.912 100.897 644.643C100.987 643.522 100.929 643.574 100.985 642.449C100.93 642.407 100.89 642.34 100.879 642.245C100.672 640.371 100.262 638.597 99.7093 636.898C99.6665 636.893 99.6254 636.87 99.5907 636.821C97.1136 633.209 93.8552 631.956 90.2624 630.806C90.0681 631.311 89.8006 631.8 89.4612 632.248C87.7118 634.567 83.8072 634.824 82.1722 631.974C80.8474 629.665 82.1316 626.542 84.1471 625.365C85.3725 624.648 86.801 624.796 88.0493 625.513C88.1851 625.59 88.3008 625.689 88.4191 625.786C90.3243 626.562 90.8819 628.322 90.4862 630.064C93.9098 630.907 97.2229 632.74 99.3031 635.736C96.4874 628.204 90.6621 622.259 84.9852 616.625C84.3652 617.789 83.2322 618.605 81.9219 618.867C80.2343 619.204 78.386 618.068 77.5223 616.53C76.5072 614.723 77.1041 612.851 78.4622 611.593C79.7119 610.435 81.467 610.319 82.9439 611.06C84.4743 611.414 85.5 612.945 85.4862 614.674C85.4819 615.207 85.3823 615.703 85.21 616.159C88.8747 618.794 92.0658 622.39 94.7903 626.074C93.9166 623.712 93.2721 621.177 92.9799 618.653C91.3863 618.715 89.7778 617.73 89.3442 615.841C88.7865 613.415 90.3183 610.736 92.6536 610.372C93.9403 610.172 95.3542 611.077 95.9562 612.274C96.0627 612.488 96.1579 612.788 96.2304 613.125C97.0271 614.562 96.528 616.545 95.2387 617.733C94.8434 618.097 94.3881 618.345 93.9085 618.495C94.4749 621.631 95.1563 624.708 96.1115 627.829C96.1232 627.867 96.1248 627.901 96.1253 627.936C98.1784 630.951 99.9869 634.372 100.861 637.955C100.905 636.916 101 635.874 101.133 634.834C101.045 627.417 100.324 619.958 99.0307 612.563C97.136 608.571 94.6402 605.193 91.7951 602.168C90.4516 601.917 89.0543 602.033 87.7213 601.859C83.5999 601.244 79.2196 600.104 75.1432 599.01C70.5464 597.87 66.235 595.703 62.5767 592.533C59.7971 590.207 55.0017 585.668 55.1863 581.515C55.5738 572.046 77.6408 583.084 80.942 585.457C86.2241 589.296 88.4167 594.183 91.241 599.415C94.1254 602.446 96.6222 605.758 98.4142 609.326C96.3818 599.004 93.3005 588.842 89.4393 579.129C87.2297 576.862 84.9733 574.727 82.6038 572.739C81.1973 572.886 79.6369 572.466 78.2313 572.355C77.0159 572.258 75.8109 572.354 74.6043 572.392C74.7864 573.426 74.3198 574.449 73.7226 575.223C72.1808 577.216 69.1574 577.588 67.69 575.113C66.5868 573.251 67.0545 570.855 68.5216 569.484C69.9353 568.163 72.2054 568.558 73.3626 570.175C73.524 570.4 73.6406 570.644 73.7378 570.895C73.9114 571.033 74.0585 571.2 74.1871 571.384C75.476 571.157 76.8242 571.16 78.1255 571.153C78.9736 571.15 79.9315 571.161 80.8501 571.313C79.3383 570.123 77.7795 568.988 76.144 567.925C72.4044 565.493 68.4023 563.793 64.4401 561.93C64.2909 562.344 64.0707 562.736 63.8096 563.087C62.5626 564.765 60.0291 565.69 58.0556 564.842C56.8895 564.341 56.3168 563.031 56.1723 561.814C55.9602 560.035 56.6467 558.262 58.0804 557.336C59.5515 556.388 61.5796 556.493 62.7815 557.996C62.8328 558.059 62.8666 558.137 62.9125 558.206C63.6234 558.615 64.2405 559.184 64.51 560.024C64.6074 560.332 64.6429 560.638 64.6351 560.938C68.4515 562.229 72.2529 564.083 75.8524 566.354C74.176 564.239 72.7163 561.609 72.0067 559.091C71.8854 559.144 71.7622 559.195 71.6368 559.232C68.6967 560.117 65.9183 555.981 66.9155 553.224C67.8141 550.742 71.3573 551.564 72.8599 553C73.3608 553.479 73.7114 554.089 73.8534 554.737C74.0574 555.255 74.1459 555.822 74.0743 556.44C73.9702 557.328 73.4411 558.11 72.7523 558.641C73.5292 560.01 74.1629 561.467 74.9138 562.851C75.7515 564.395 76.7145 565.857 77.5004 567.43C81.6431 570.238 85.466 573.579 88.6645 577.211C87.8866 575.316 87.0906 573.434 86.2566 571.578C82.7495 563.772 78.3035 556.341 72.9358 549.742C67.9182 546.094 62.4158 544.334 56.7371 543.178C55.0091 543.339 53.3025 543.885 51.6414 544.146C48.087 544.716 44.566 545.584 40.9777 545.859C37.3658 546.064 24.2571 546.798 23.759 540.729C23.1219 533.25 36.5937 535.164 40.2263 536.029ZM96.5484 573.228C96.5234 573.229 96.5002 573.224 96.4754 573.222C96.4792 573.23 96.4827 573.237 96.4858 573.246C96.5062 573.241 96.5263 573.234 96.5484 573.228ZM102.979 564.165C103.004 564.123 103.03 564.082 103.058 564.041C102.88 564.035 102.943 563.987 102.979 564.165ZM83.2991 628.933C83.2997 628.927 83.3018 628.92 83.3013 628.914C83.2936 628.943 83.2844 628.97 83.277 628.999C83.2818 628.977 83.2919 628.956 83.2991 628.933ZM85.9284 626.532C85.9425 626.521 85.9556 626.513 85.9699 626.503C85.9542 626.504 85.9391 626.509 85.9222 626.509C85.9241 626.517 85.9273 626.524 85.9284 626.532ZM90.9027 613.666C90.9033 613.663 90.904 613.66 90.9047 613.657C90.9024 613.661 90.9005 613.665 90.899 613.668L90.9027 613.666Z" fill="#76DCB1"></path>
<path opacity="0.3" d="M-9.90015 263.762C-9.90015 263.762 -35.2631 252.391 -26.6419 242.125C-18.0207 231.857 -5.20154 251.52 -3.47201 256.163C-3.47201 256.163 -7.38134 232.193 7.55144 229.264C22.4842 226.332 16.2018 255.519 14.9463 255.742C13.6909 255.962 30.2764 237.75 38.9797 253.493C47.6856 269.239 17.6585 272.462 17.6585 272.462C17.6585 272.462 42.6056 274.544 31.0392 288.831C19.4728 303.117 6.18476 284.678 6.18476 284.678C6.18476 284.678 3.1018 313.455 -12.125 304.336C-27.3517 295.216 -10.6444 274.242 -10.6444 274.242C-10.6444 274.242 -36.1133 286.94 -38.6665 272.854C-41.2198 258.767 -9.90015 263.762 -9.90015 263.762Z" fill="#76DCB1"></path>
<path opacity="0.3" d="M39.5005 29.5405C39.5005 29.5405 31.7066 31.9596 31.6126 28.0248C31.5181 24.0893 38.1589 25.9319 39.4412 26.6188C39.4412 26.6188 33.9269 22.098 36.6474 18.5539C39.3674 15.0092 43.6497 22.6578 43.4164 22.9505C43.1825 23.2427 43.3003 16.0115 48.2736 17.7897C53.2479 19.5679 47.2597 26.107 47.2597 26.107C47.2597 26.107 53.1589 21.7226 53.3846 27.1148C53.6103 32.507 47.1038 31.025 47.1038 31.025C47.1038 31.025 52.0112 37.9621 46.887 38.9094C41.7627 39.8567 41.3711 31.9934 41.3711 31.9934C41.3711 31.9934 38.2261 39.7345 34.9294 37.1276C31.6321 34.5202 39.5005 29.5405 39.5005 29.5405Z" fill="#76DCB1"></path>
<path opacity="0.3" d="M268.127 145.617C268.127 145.617 262.348 147.411 262.278 144.493C262.208 141.575 267.133 142.941 268.083 143.451C268.083 143.451 263.994 140.099 266.012 137.47C268.029 134.842 271.204 140.514 271.031 140.731C270.858 140.947 270.945 135.585 274.633 136.904C278.321 138.222 273.881 143.071 273.881 143.071C273.881 143.071 278.255 139.82 278.423 143.819C278.59 147.817 273.765 146.718 273.765 146.718C273.765 146.718 277.404 151.862 273.605 152.565C269.805 153.267 269.514 147.436 269.514 147.436C269.514 147.436 267.182 153.176 264.738 151.243C262.293 149.31 268.127 145.617 268.127 145.617Z" fill="#76DCB1"></path>
<path opacity="0.3" d="M35.0785 423.883C35.0785 423.883 26.3825 425.131 26.951 420.932C27.5189 416.732 34.2653 419.819 35.5118 420.767C35.5118 420.767 30.4178 415.025 33.9117 411.719C37.4052 408.413 40.6583 417.271 40.3605 417.543C40.0623 417.813 41.4157 410.147 46.4004 412.882C51.3862 415.617 43.91 421.551 43.91 421.551C43.91 421.551 50.9255 417.892 50.2497 423.662C49.5738 429.433 42.9089 426.752 42.9089 426.752C42.9089 426.752 46.9473 434.96 41.3392 435.097C35.7312 435.233 36.6504 426.808 36.6504 426.808C36.6504 426.808 31.9924 434.503 28.9307 431.172C25.8685 427.84 35.0785 423.883 35.0785 423.883Z" fill="#76DCB1"></path>
<path opacity="0.3" d="M527.689 472.171C527.689 472.171 511.864 474.442 512.898 466.801C513.932 459.159 526.209 464.776 528.477 466.501C528.477 466.501 519.207 456.051 525.565 450.036C531.923 444.019 537.843 460.139 537.301 460.633C536.758 461.126 539.221 447.174 548.292 452.151C557.366 457.128 543.76 467.927 543.76 467.927C543.76 467.927 556.527 461.269 555.297 471.77C554.067 482.271 541.939 477.393 541.939 477.393C541.939 477.393 549.288 492.33 539.082 492.578C528.876 492.827 530.549 477.495 530.549 477.495C530.549 477.495 522.073 491.498 516.501 485.436C510.928 479.372 527.689 472.171 527.689 472.171Z" fill="#76DCB1"></path>
</g>
<g clip-path="url(#clip1_1199_8521)">
<path d="M686.296 533.939C639.006 541.996 586.671 550.363 542.8 525.62C524.882 515.513 509.53 498.91 504.84 478.757C500.15 458.605 507.759 440.287 523.111 427.771C537.523 416.022 557.676 411.562 574.909 419.99C594.17 429.401 603.22 449.745 598.628 470.042C588.894 513.116 538.549 536.757 497.414 522.383C477.079 515.274 461.152 500.648 452.346 481.371C443.54 462.093 440.707 439.423 434.979 418.612C423.913 378.355 399.584 341.503 365.569 316.291C348.629 303.739 327.707 293.25 305.906 297.973C286.523 302.181 275.494 317.85 272.294 336.264C268.948 355.457 272.148 375.37 267.006 394.287C261.888 413.121 249.541 429.593 234.591 442.133C199.135 471.876 150.074 477.558 105.091 475.736C81.3603 474.765 57.1165 471.181 35.8405 460.259C18.7782 451.496 2.63191 436.366 -2.69319 417.701C-8.51904 397.224 2.41207 376.161 14.3691 359.953C27.23 342.51 43.364 327.74 56.3592 310.417C69.3544 293.094 79.2108 274.356 79.223 253.005C79.2352 233.104 70.8811 215.289 59.5225 199.225C48.7013 183.928 34.668 169.59 28.2193 151.763C21.9049 134.32 26.3506 115.378 34.9001 99.4579C55.8463 60.4718 98.1051 42.861 140.486 36.3034C163.57 32.7308 187.191 31.4481 210.531 30.8726C221.791 30.5969 234.298 31.2802 243.214 38.8808C246.206 41.4344 249.174 44.4554 248.038 48.5434C246.585 53.7943 242.347 58.0982 238.097 61.359C229.156 68.1923 217.688 70.5301 207.587 75.1576C199.111 79.0418 191.697 84.4725 185.859 91.6775C174.415 105.812 169.322 124.334 171.496 142.232C176.052 179.6 212.717 209.391 251.348 198.889C270.499 193.686 286.206 180.667 300.776 168.007C316.862 154.017 332.776 140.422 351.914 130.508C435.968 86.9061 534.775 105.296 620.014 134.919C643.183 142.976 666.034 151.883 688.873 160.802C693.454 162.589 692.403 147.052 687.603 145.181C595.819 109.336 495.888 71.597 396.042 96.9164C374.9 102.275 354.504 110.511 335.939 121.828C316.996 133.361 301.582 148.922 284.435 162.696C268.459 175.524 249.296 186.997 227.801 185.079C208.54 183.364 188.607 170.908 181.304 152.89C174.11 135.135 182.598 113.82 195.887 101.1C211.654 86.007 237.926 86.5825 250.86 68.2403C262.866 51.1929 253.315 26.7606 234.726 18.8124C223.88 14.1729 211.422 14.8562 199.88 15.3597C187.447 15.8992 175.014 16.4866 162.605 17.5416C117.659 21.3779 69.9651 32.527 40.4694 68.7438C27.9994 84.0529 19.5354 102.335 17.7523 121.972C15.8958 142.352 22.2591 161.809 33.1535 178.977C44.048 196.144 58.9119 210.494 67.2415 228.884C76.6581 249.66 67.9132 271.239 55.944 289.09C31.5047 325.546 -13.038 354.27 -11.9755 402.547C-11.5236 423.203 -2.33899 442.684 12.073 457.538C27.7674 473.722 49.141 482.965 71.1742 487.425C94.8319 492.208 119.809 492.831 143.845 491.177C168.223 489.499 192.76 484.452 214.61 473.374C233.077 464.023 249.186 450.632 260.777 433.645C272.575 416.346 277.107 397.14 277.803 376.557C278.45 357.435 276.569 333.938 293.68 320.739C313.662 305.322 341.032 314.373 359.694 326.997C378.442 339.668 394.479 356.272 406.888 374.95C419.467 393.892 427.015 414.596 432.096 436.534C437.177 458.497 441.574 481.083 453.299 500.768C464.145 518.978 481.61 532.968 502.239 539.154C545.096 551.994 591.898 527.094 604.625 485.003C610.853 464.395 607.739 440.67 595.135 422.915C583.801 406.947 564.943 397.009 544.937 400.353C526.385 403.47 510.006 416.681 501.933 433.165C492.785 451.855 494.434 474.597 501.921 493.539C518.996 536.733 563.905 556.106 608.631 557.832C635.855 558.875 662.834 554.284 689.545 549.74C694.418 548.913 691.377 533.064 686.296 533.927V533.939Z" fill="#76DCB1"></path>
</g>
<defs>
<clipPath id="clip0_1199_8521">
<rect width="600" height="585" fill="white"></rect>
</clipPath>
<clipPath id="clip1_1199_8521">
<rect width="600" height="551" fill="white" transform="translate(0 15)"></rect>
</clipPath>
</defs>
</svg>