<svg width="600" height="580" viewBox="0 0 600 580" fill="none" xmlns="http://www.w3.org/2000/svg">
<g clip-path="url(#clip0_1199_8536)">
<path d="M560.19 583.131C529.02 598.032 491.64 596.593 461.61 579.486C434.21 563.87 415.45 533.845 414.42 502.059C413.26 466.275 435.36 435.133 456.57 408.512C480.32 378.719 506.4 349.299 516.39 311.471C526.43 273.462 514.19 235.534 489.12 206.446C465.29 178.788 433.33 160.543 407.26 135.332C385.97 114.741 367.57 85.8849 377.88 55.2966C389.08 22.0703 428.7 14.3377 457.87 27.2053C473.89 34.2734 487.15 46.5269 497.68 60.4013C506.75 72.3527 519.09 88.7947 517.69 104.733C516.11 122.615 501.13 132.744 484.15 132.15C464.84 131.465 447.93 120.128 429.27 116.433C413.34 113.271 397.78 116.785 386.57 128.978C377.05 139.319 371.49 152.71 365.69 165.336C359.57 178.677 353.12 191.776 341.79 201.452C330.11 211.43 315.33 216.766 300.31 218.961C263.77 224.308 229.52 210.363 196.57 196.186C163.29 181.869 129 167.47 92.01 170.652C75.69 172.052 59.62 177.207 46.38 187.094C33.14 196.981 24.42 210.715 19.38 225.939C7.66002 261.37 15.27 300.033 31.37 332.756C39.95 350.185 50.82 366.365 62.18 382.052C72.87 396.812 83.5 413.707 98.7 424.199C111.81 433.24 129.59 437.117 143.71 427.904C157.83 418.691 158.81 397.819 154.65 382.605C149.98 365.539 138.3 352.833 122.17 346.026C105.34 338.928 86.09 337.659 68.08 336.522C27.81 333.974 -12.84 337.851 -51.95 347.809C-71.08 352.682 -89.79 359.055 -107.96 366.768C-114.59 369.587 -109.03 390.278 -103.7 388.012C-66.21 372.094 -26.38 362.106 14.16 358.511C34.1 356.749 54.19 356.528 74.16 357.877C92.2 359.105 111.64 360.626 128.04 368.952C134.59 372.275 140.93 377.038 144.5 383.632C147.08 388.405 147.76 392.644 145.53 398.141C139.23 413.657 118.79 414.311 105.72 408.311C89.23 400.739 78.62 383.411 68.26 369.244C56.88 353.678 45.73 337.77 37.17 320.412C22.9 291.455 17.83 257.403 34.32 228.113C50.81 198.824 87.55 188.735 120 192.138C189.35 199.408 253.22 262.749 325.5 234.789C339.92 229.211 352.22 219.958 360.98 207.1C369 195.33 374.07 181.949 380.3 169.212C385.97 157.623 393.17 145.189 405.42 139.701C424.31 131.234 443.94 141.262 461.77 147.676C477.18 153.223 495.66 157.12 510.43 147.786C525.48 138.272 529.48 117.812 527.41 101.249C524.89 81.062 514.88 62.8077 503.09 46.6074C492.79 32.451 480.38 19.7847 465.28 10.8741C437.43 -5.54776 397.03 -4.96379 377 23.5806C358.05 50.5946 363.1 90.2446 377.79 117.994C395.22 150.898 426.68 171.951 454.94 194.515C479.62 214.229 509.21 240.84 509.9 275.164C510.27 293.65 503.14 311.713 494.44 327.651C485.13 344.697 473.19 359.891 461 374.903C438.25 402.924 413.9 432.243 406.56 468.692C399.56 503.428 408.41 541.87 429.41 570.273C449.95 598.053 482.07 614.001 516.35 614.686C532.96 615.018 549.42 611.544 564.43 604.366C571.02 601.214 565.2 580.725 560.17 583.121L560.19 583.131Z" fill="#FF8BAA"></path>
<path opacity="0.5" d="M571.483 331.969C571.845 330.926 573.32 330.926 573.683 331.969L576.26 339.38C576.503 340.077 577.324 340.376 577.957 339.998L584.696 335.977C585.644 335.412 586.774 336.36 586.381 337.391L583.592 344.726C583.33 345.415 583.766 346.172 584.495 346.29L592.241 347.541C593.331 347.717 593.587 349.17 592.623 349.708L585.772 353.533C585.128 353.893 584.976 354.753 585.458 355.312L590.588 361.25C591.31 362.085 590.572 363.362 589.488 363.155L581.781 361.682C581.056 361.543 580.387 362.105 580.397 362.842L580.51 370.688C580.526 371.792 579.14 372.297 578.443 371.441L573.485 365.358C573.019 364.786 572.146 364.786 571.68 365.358L566.723 371.441C566.025 372.297 564.639 371.792 564.655 370.688L564.768 362.842C564.779 362.105 564.109 361.543 563.385 361.682L555.677 363.155C554.593 363.362 553.856 362.085 554.577 361.25L559.707 355.312C560.189 354.753 560.038 353.893 559.393 353.533L552.542 349.708C551.578 349.17 551.834 347.717 552.924 347.541L560.671 346.29C561.399 346.172 561.836 345.415 561.574 344.726L558.784 337.391C558.392 336.36 559.521 335.412 560.47 335.977L567.208 339.998C567.842 340.376 568.663 340.077 568.905 339.38L571.483 331.969Z" fill="#FF8BAA"></path>
<path opacity="0.5" d="M304.335 17.1402C304.592 16.6855 305.279 16.8103 305.359 17.3264L305.932 20.9946C305.986 21.3394 306.342 21.548 306.669 21.4256L310.146 20.1244C310.636 19.9413 311.081 20.4782 310.811 20.9253L308.892 24.1034C308.712 24.4022 308.851 24.7913 309.18 24.9077L312.68 26.1459C313.172 26.3201 313.169 27.0179 312.674 27.1868L309.161 28.3877C308.831 28.5006 308.688 28.8882 308.865 29.1889L310.75 32.3872C311.015 32.8372 310.564 33.3693 310.077 33.181L306.614 31.8429C306.288 31.7171 305.929 31.9218 305.872 32.2661L305.26 35.9279C305.174 36.4431 304.486 36.5606 304.234 36.1032L302.441 32.8521C302.273 32.5465 301.866 32.4726 301.601 32.6993L298.779 35.1113C298.381 35.4507 297.779 35.0986 297.88 34.5861L298.596 30.9433C298.664 30.6008 298.4 30.2828 298.051 30.2859L294.338 30.3195C293.816 30.3242 293.581 29.6673 293.988 29.3394L296.878 27.0095C297.15 26.7904 297.152 26.3771 296.882 26.1552L294.017 23.7946C293.614 23.4624 293.856 22.8081 294.378 22.8183L298.09 22.8914C298.439 22.8982 298.706 22.583 298.643 22.2399L297.965 18.5897C297.87 18.0761 298.476 17.7305 298.869 18.074L301.666 20.5159C301.929 20.7455 302.336 20.6759 302.508 20.372L304.335 17.1402Z" fill="#FF8BAA"></path>
<path opacity="0.5" d="M340.864 491.119C341.425 490.125 342.925 490.398 343.101 491.525L344.351 499.537C344.469 500.29 345.248 500.746 345.962 500.479L353.557 497.637C354.625 497.237 355.599 498.409 355.009 499.386L350.817 506.327C350.423 506.98 350.727 507.83 351.446 508.084L359.091 510.789C360.166 511.169 360.158 512.693 359.079 513.062L351.406 515.685C350.684 515.932 350.371 516.778 350.758 517.435L354.876 524.421C355.455 525.404 354.469 526.566 353.405 526.155L345.841 523.232C345.13 522.957 344.346 523.404 344.22 524.156L342.884 532.154C342.696 533.28 341.194 533.536 340.643 532.537L336.728 525.436C336.36 524.769 335.471 524.607 334.892 525.103L328.727 530.371C327.86 531.112 326.544 530.343 326.765 529.224L328.33 521.267C328.477 520.519 327.9 519.824 327.138 519.831L319.029 519.904C317.888 519.915 317.375 518.48 318.263 517.764L324.576 512.675C325.17 512.196 325.174 511.294 324.586 510.809L318.327 505.653C317.447 504.927 317.976 503.498 319.116 503.521L327.224 503.68C327.986 503.695 328.57 503.007 328.431 502.257L326.951 494.284C326.742 493.163 328.066 492.408 328.925 493.158L335.034 498.492C335.608 498.993 336.498 498.841 336.873 498.177L340.864 491.119Z" fill="#FF8BAA"></path>
<path opacity="0.5" fill-rule="evenodd" clip-rule="evenodd" d="M569.75 18.6349C569.506 17.5697 568.697 16.7408 567.638 16.472L558.29 14.0999L560.811 4.16616C561.127 2.92115 560.632 1.67422 559.55 0.99189C558.463 0.30625 557.138 0.399771 556.155 1.21764L539.187 15.3406C538.345 16.0443 537.974 17.1434 538.217 18.2123C538.461 19.2756 539.27 20.1045 540.329 20.3732L549.675 22.7449L547.153 32.6805C546.838 33.9236 547.333 35.1687 548.416 35.851C548.687 36.0239 548.976 36.1471 549.271 36.2219C550.146 36.444 551.079 36.241 551.814 35.6281L568.78 21.5047C569.622 20.801 569.993 19.7019 569.75 18.6349Z" fill="#FF8BAA"></path>
<path opacity="0.5" fill-rule="evenodd" clip-rule="evenodd" d="M26.4647 110.104C26.3657 109.358 25.935 108.8 25.3405 108.649L20.0933 107.318L21.905 100.178C22.1321 99.2837 21.8963 98.418 21.3042 97.9747C20.7093 97.5292 19.9494 97.6453 19.3576 98.2622L9.14191 108.914C8.63477 109.445 8.38182 110.239 8.48011 110.988C8.57943 111.732 9.01015 112.29 9.60464 112.441L14.8507 113.772L13.0387 120.913C12.812 121.806 13.0481 122.671 13.6402 123.114C13.789 123.226 13.949 123.303 14.1145 123.345C14.6057 123.469 15.1459 123.291 15.5886 122.828L25.8032 112.176C26.3104 111.645 26.5633 110.852 26.4647 110.104Z" fill="#FF8BAA"></path>
<path opacity="0.5" fill-rule="evenodd" clip-rule="evenodd" d="M310.815 92.764C310.649 91.5099 309.925 90.5731 308.926 90.3196L300.108 88.0821L303.153 76.0847C303.534 74.5811 303.138 73.1263 302.143 72.3814C301.143 71.6328 299.867 71.8278 298.872 72.8645L281.705 90.7651C280.853 91.6568 280.428 92.9901 280.593 94.2486C280.76 95.5004 281.484 96.4372 282.483 96.6907L291.299 98.9278L288.253 110.927C287.873 112.429 288.269 113.881 289.264 114.626C289.514 114.815 289.783 114.944 290.061 115.014C290.887 115.224 291.795 114.923 292.538 114.146L309.703 96.2453C310.556 95.3536 310.981 94.0203 310.815 92.764Z" fill="#FF8BAA"></path>
<path opacity="0.5" fill-rule="evenodd" clip-rule="evenodd" d="M524.503 539.156C524.284 537.502 523.329 536.267 522.011 535.932L510.381 532.981L514.397 517.156C514.9 515.173 514.377 513.254 513.065 512.272C511.746 511.284 510.062 511.541 508.75 512.909L486.107 536.52C484.983 537.696 484.422 539.455 484.64 541.115C484.86 542.766 485.815 544.002 487.133 544.336L498.761 547.287L494.744 563.114C494.242 565.095 494.765 567.01 496.077 567.993C496.407 568.242 496.762 568.412 497.129 568.505C498.218 568.781 499.415 568.385 500.396 567.36L523.037 543.748C524.161 542.572 524.722 540.814 524.503 539.156Z" fill="#FF8BAA"></path>
<path opacity="0.5" fill-rule="evenodd" clip-rule="evenodd" d="M268.84 388.882C268.741 388.136 268.31 387.579 267.716 387.428L262.469 386.096L264.28 378.957C264.507 378.062 264.272 377.196 263.679 376.753C263.085 376.308 262.325 376.424 261.733 377.04L251.517 387.693C251.01 388.223 250.757 389.017 250.855 389.766C250.955 390.511 251.385 391.068 251.98 391.219L257.226 392.55L255.414 399.691C255.187 400.585 255.423 401.449 256.015 401.892C256.164 402.005 256.324 402.081 256.49 402.123C256.981 402.248 257.521 402.069 257.964 401.607L268.178 390.954C268.686 390.423 268.939 389.63 268.84 388.882Z" fill="#FF8BAA"></path>
<circle opacity="0.5" cx="282.971" cy="524.958" r="4.75954" fill="#FF8BAA"></circle>
<circle opacity="0.5" cx="485.679" cy="77.402" r="6.26111" fill="#FF8BAA"></circle>
<circle opacity="0.5" cx="312.375" cy="9.2188" r="2.92486" fill="#FF8BAA"></circle>
<path opacity="0.5" d="M266.202 556.713C264.708 555.335 265.267 552.855 267.208 552.25L286.379 546.278C288.321 545.673 290.189 547.397 289.742 549.381L285.328 568.969C284.881 570.953 282.454 571.709 280.96 570.33L266.202 556.713Z" fill="#FF8BAA"></path>
<path opacity="0.5" d="M15.0245 536.436C13.7176 536.322 13.0246 534.835 13.7772 533.761L21.2083 523.149C21.9608 522.075 23.5944 522.218 24.1488 523.407L29.6231 535.148C30.1774 536.337 29.2368 537.68 27.9299 537.566L15.0245 536.436Z" fill="#FF8BAA"></path>
<path opacity="0.5" d="M341.47 17.0641C341.976 17.8621 341.429 18.9092 340.484 18.9488L331.159 19.3397C330.215 19.3793 329.582 18.3817 330.019 17.5441L334.344 9.2727C334.781 8.43508 335.962 8.3856 336.468 9.18364L341.47 17.0641Z" fill="#FF8BAA"></path>
</g>
<defs>
<clipPath id="clip0_1199_8536">
<rect width="600" height="580" fill="white"></rect>
</clipPath>
</defs>
</svg>