<svg xmlns="http://www.w3.org/2000/svg" width="437" height="280" fill="none" xmlns:v="https://vecta.io/nano"><style><![CDATA[.B{fill:#ff8baa}.C{fill-rule:evenodd}.D{fill:#ffcdda}]]></style><g clip-path="url(#A)"><path d="M389.863 162.696c-1.502 2.57-2.811 5.261-3.808 8.067-1.474 3.914-2.668 7.952-3.327 12.086-.461 2.98-.647 5.994-1.035 8.982l-1.164 8.507c-.546 4.593-.935 9.207-1.976 13.722-1.318 6.263-2.162 12.643-4.039 18.773-3.313 10.271-6.584 20.625-11.638 30.201-1.021 1.894-2.278 3.646-3.527 5.392-1.262 1.744-2.615 3.43-4.156 4.935-.69.701-1.443 1.333-2.186 1.974-.332.194-.316.737.036.907.506.21.949-.316 1.355-.547 1.816-1.3 3.333-2.959 4.803-4.627a54.43 54.43 0 0 0 4.665-6.474c2.369-4.099 4.156-8.501 5.873-12.905 1.888-4.768 3.394-9.672 4.971-14.548 1.218-3.601 2.352-7.237 3.06-10.979.417-2.206.688-4.895 3.507-5.253 2.277-.29 2.896 1.245 3.617 2.948.389.892.947 1.783 1.805 2.281.952.548 2.23.344 2.86-.587.857-1.267.73-3.085-.029-4.367-.75-1.122-2.302-1.785-3.603-1.302-.515.179-.972.482-1.409.804-.041.026-.072.076-.105.035-.668-.511-1.493-.775-2.321-.871-.891-.094-1.771.226-2.524.684-.169.1-.472.31-.757.558l.726-3.696 1.4-7.058c.004-.025.007-.051.011-.077.343-.261.746-.444 1.121-.652.608-.327 1.276-.611 1.975-.634 1.437-.047 1.615 1.61 2.1 2.663.631 1.37.848 2.988 1.885 4.165 1.656 1.976 5.338.033 4.547-2.455-.35-1.03-1.133-1.864-1.877-2.632-1.007-1.028-2.531-1.152-3.886-.982-.629-.924-1.66-1.801-2.837-1.751-1.022.071-1.975.504-2.842 1.054.271-1.895.447-3.804.659-5.706l.382-3.272c.51-.129 1.072-.131 1.565.03.709.285 1.204.912 1.765 1.406.478.467 1.055.884 1.361 1.494.265.554.284 1.172.371 1.768.251 1.451 1.46 2.687 2.867 3.072 2.038.457 3.486-1.393 2.684-3.293-.943-2.302-2.857-3.474-5.282-2.535-.428-.541-.977-.971-1.473-1.445-.971-.992-2.121-1.804-3.579-1.528l-.157.024 1.031-8.352c.315-.212.636-.413 1.008-.51.842-.278 1.64.216 2.346.627.977.626 2.645 1.445 3.054 2.57-.013.979-.194 1.962-.088 2.946.158 2.089 1.65 4.598 4.04 4.235 1.127-.184 2.178-.933 2.709-1.945.743-1.723-.198-3.832-1.706-4.819-1.252-.845-2.715-1.245-4.186-1.49-.055-.015-.101-.021-.137-.066-.169-.211-.356-.407-.551-.593-.877-.776-1.901-1.374-2.926-1.933-1.115-.653-2.339-.763-3.438-.181l.149-1.396a55.92 55.92 0 0 1 1.076-7.666c.626-.617 1.277-1.245 2.129-1.492 1.639-.341 3.543.457 4.829 1.449 2.035 1.47 1.399 3.307 1.309 5.429-.137 1.971 1.55 3.825 3.555 3.706 1.454-.131 2.684-1.29 3.246-2.591 1.331-3.211-3.061-5.385-5.72-5.349-.985-2.294-4.054-3.751-6.465-3.753-.976.011-1.813.451-2.546 1.051a64.89 64.89 0 0 1 1.231-4.473c.114-.109.204-.268.294-.387.628-.757 1.14-1.595 1.724-2.38 1.059-1.038 2.281-2.16 3.811-2.349.664-.048 1.26.309 1.813.63 1.412.93 2.732 1.994 4.129 2.946.112.083.295.19.386.276-.01.031-.044.063-.062.09-1.18 1.821-1.449 4.374.006 6.122 2.073 2.221 5.902.826 6.068-2.239.134-2.257-1.926-4.25-4.074-4.545-.269-.034-.604-.066-.752.221-1.131-.983-2.455-1.76-3.632-2.7-1.775-1.332-3.411-2.404-5.588-1.179-.867.481-1.622 1.153-2.357 1.815-.386.371-.67.819-.956 1.266l.598-1.643c.695-1.975 1.598-3.871 2.558-5.729 1.629-3.09 3.565-6.311 6.594-8.177 1.364.075 2.38 1.195 3.311 2.1.932.919 1.536 2.108 2.058 3.295.401.909.779 1.83 1.158 2.75.004.039.069.1-.005.099-.954.327-1.386 1.414-1.459 2.346-.062.809.125 1.616.33 2.394.373 1.715 1.927 2.94 3.662 3.028 3.627.286 3.768-4.695 1.582-6.523-.843-.625-1.906-.867-2.934-.962-.243-1.203-.841-2.323-1.263-3.475-.624-1.556-1.498-3.046-2.832-4.094-.696-.655-1.473-1.298-2.378-1.612 2.088-.88 5.338-2.268 7.36-1.853 1.823.744 3.533 1.965 4.531 3.694 1.577 2.449-.14 3.83 1.041 6.126.63 1.169 1.999 1.659 3.209 1.993.841.194 1.797.024 2.511-.463.618-.486.791-1.319.875-2.062.09-1.086-.502-2.053-1.293-2.75-1.055-1.103-2.735-1.995-4.248-1.328-.132.054-.213.134-.259.221l-.092.027a5.31 5.31 0 0 0-.456-1.572c-.847-1.913-2.49-3.38-4.335-4.317-.761-.43-1.611-.768-2.502-.642-2.083.153-4.061.898-5.991 1.646-1.63.57-3.109 1.48-4.36 2.669-1.73 1.538-2.988 3.495-4.164 5.467z" class="B"/><g class="D"><path d="M74.744 273.678c.852 1.359 2.15 1.56 3.46 1.269 1.94-.434 3.719-1.436 5.55-2.26 1.519-.681 3.282-1.467 4.958-1.113l.61.323c2.561 1.435 5.237 3.284 6.809 6.181l.205 1.289.457 3.134c.128.928.267 1.989 0 2.895l-1.223 1.606-.745.811.224.366.686-.742c1.383-1.599 2.533-3.617 3.593-5.536l.595-1.095c.035.023.076.037.122.026.634-.132 1.249-.557 1.8-.915.692-.45 1.38-.919 1.955-1.565 1.708-1.923 2.921-4.391 4.759-6.163 1.381-1.332 2.921-2.461 4.495-3.483.422.073.938-.143 1.342-.171.805-.06 1.592.005 2.395.121l4.287.609c2.511.166 6.022-.256 6.375-3.923.244-2.561-.735-5.702-2.503-7.317-1.022-.937-2.445-1.572-3.729-1.298-1.424.306-2.535 1.461-3.368 2.81l-3.484 6.331-.933 1.712c-.073.142-.313.487-.359.746-1.436.901-2.85 1.895-4.132 3.04-1.853 1.656-3.112 3.833-4.676 5.822-.686.871-1.409 1.568-2.283 2.151-.567.376-1.186.833-1.829 1.037l2.377-5.008c1.023-2.494 1.853-5.055 2.534-7.685a.1.1 0 0 0 .104.026c1.489-.49 2.581-2.618 3.292-4.118l2.411-5.674c1.106-.503 2.094-1.313 3.189-1.842l1.33-.602c.022.059.066.105.127.109 1.136.049 2.253.449 3.408.433a11.4 11.4 0 0 0 3.284-.547c.909-.29 2.926-.944 2.574-2.55-.466-2.132-2.775-3.228-4.411-2.725-.998.305-1.942.942-2.684 1.789-.914 1.049-1.454 2.505-2.556 3.312l-1.603.762c-.669.338-1.285.805-1.952 1.149-.126.063-.292.123-.455.197l.625-1.187c.649-1.121 1.352-2.183 2.092-3.211.022.022.058.025.08-.011.427-.71 1.501-.927 2.155-1.224l1.787-.811 3.828-1.803c1.468-.746 2.956-1.547 4.294-2.59.958-.748 1.94-1.648 2.496-2.874 1.252-2.766-.286-6.244-2.436-7.779-2.937-2.096-6.332-.573-8.012 2.698-1.028 2.003-1.723 4.335-2.23 6.607l-.507 2.623-.305 1.057-.624 2.179c-.084.281-.321.806-.299 1.175l-2.082 3.077c-.443.733-.835 1.489-1.203 2.258l.161-1.124.427-2.655c.979-1.96 2.412-3.849 2.587-6.222.083-1.105.013-3.207-1.221-3.465-1.483-.314-2.803 1.172-2.987 2.832-.113 1.021.115 2.084.354 3.062l.938 3.657c.016.047.048.077.08.087l-.327 2.137c-.095.929-.157 1.919-.508 2.76l-1.738 4.114c-.41.96-.897 1.889-1.465 2.722-.518.761-1.13 1.63-1.949 1.919l1.24-5.883.365-2.33c.019 0 .035-.008.04-.035.075-.371.114-.745.126-1.125.502-3.711.804-7.469.832-11.239.015-2.061-.071-4.11-.227-6.152.046-.121.076-.249.086-.378.061-.039.105-.13.063-.227-.047-.111.623-1.136.749-1.338.48-.771.975-1.525 1.478-2.275.808-1.213 1.692-2.367 2.443-3.633a58.2 58.2 0 0 0 1.847-3.353c.781-.48 1.311-1.294 1.944-2.012.755-.861 1.603-1.566 2.443-2.303 1.117-.982 2.343-2.059 2.823-3.685.769-2.608-.159-5.736-2.19-7.207-1.117-.808-2.58-1.292-3.815-.657-1.287.662-1.962 1.874-2.127 3.514-.194 1.97.1 3.939.466 5.869.222 1.17.466 2.345.554 3.541.082 1.07-.285 1.846-.468 2.85-.012.073.016.133.06.171-.711 1.437-1.49 2.831-2.382 4.079-.931 1.306-1.856 2.628-2.735 3.987-.377.581-.755 1.169-1.084 1.792-.06.113-.158.271-.216.435-.117-1.363-.266-2.725-.442-4.083.121-.285.024-.839-.215-1.549l-.399-2.615-.524-3.017c.338-.087.636-1.402.792-1.759l1.218-2.715c.698-1.588 1.272-3.218 1.666-4.956.574-2.556.84-5.176.863-7.821 1.631.472 2.25-3.581 1.725-4.858-.031-.074-.121-.075-.164-.023-.252.303-.497.614-.757.903-.476.522-.615-.154-.899-.589-.055-.084-.163-.079-.191.032a6.02 6.02 0 0 1-.284.917c-.244-.434-.458-.87-.856-1.143-.053-.037-.111-.01-.143.045-.503.89.137 4.607 1.307 4.553-.001.03.005.058.033.074.018.007.033.012.052.019-.033 2.55-.279 5.098-.846 7.544a28.59 28.59 0 0 1-1.016 3.418c.001-1.075-.116-2.093-.49-3.12l-.303-.805c.968-.628.813-2.67.331-3.777-.039-.087-.139-.07-.177.002-.157.288-.304.572-.494.825-.15-.315-.306-.614-.503-.895-.056-.08-.158-.023-.18.059-.129.469-.141.964-.237 1.442-.287-.35-.559-.706-.901-.98-.063-.052-.172.018-.161.114.064.568.764 3.558 1.59 3.238.013.01.022.019.036.029-.044.035-.024.138.04.136.192-.002.359-.041.507-.109.008.021.017.042.024.06.204.527.411 1.052.558 1.608.206.793.238 1.603.272 2.419-.157.409-.321.817-.498 1.219l-1.1 2.441-.469 1.096c-.045.113-.215.71-.337.96-.013.004-.029.014-.042.027s-.017.016-.023.022c-.743-4.173-1.567-8.336-2.425-12.476l-.273-1.239c.036-.007.065-.033.07-.088.209-1.543.528-3.057.726-4.604.077-.608.127-1.221.171-1.834.018-.012.033-.026.044-.049.427-.909.949-1.741 1.505-2.54.562-.812 1.112-1.707 1.864-2.286.885-.684 1.887-1.08 2.851-1.571.685.57 1.877 1.509 2.656 1.028.504-.307.023-1.192-.2-1.674.189-.117.354-.284.561-.374.075-.032.107-.122.069-.209-.203-.44-.492-.592-.865-.688.245-.454.543-.863.743-1.352.048-.115-.035-.237-.14-.21-1.5.391-2.527 1.414-3.007 3.143a.21.21 0 0 0-.023.076c-.004.012-.005.025-.009.035-.009.033.008.059.03.072-1.117.512-2.279.962-3.181 1.879-1.098 1.115-2.113 2.643-2.857 4.155.055-.862.11-1.729.209-2.585.202-1.8.595-3.476 1.372-5.037a19.14 19.14 0 0 1 .721-1.309c.098.046.2.087.314.115.04.01.066-.019.076-.054 1.342.236 2.718-.085 3.754-1.168.482-.503.981-1.066 1.405-1.641.267-.364.572-.766.579-1.28.002-.081-.059-.135-.122-.141-.014-.002-.024 0-.039.001-.096-.059-.216-.065-.34-.05a2.66 2.66 0 0 0-.529.096c-.021.007.047-1.101.06-1.221.013-.101-.078-.217-.162-.146-.206.172-.411.345-.632.48-.37.221-.612.475-.506-.276.064-.441.143-.872.163-1.319.004-.092-.081-.158-.148-.134-.379.133-.645.367-.905.669-.037-.029-.088-.037-.123-.007-.143-.479-.078-.972-.081-1.484 0-.093-.082-.164-.154-.137-.423.146-.719.474-.98.861-.029-.573-.006-1.147-.065-1.723-.012-.121-.129-.191-.208-.097-.301.354-.724.647-.909 1.104-1.066 1.274-2.271 5.366-1.083 7.024.102.297.24.512.419.489-1.018 1.707-1.761 3.617-2.03 5.762-.087.689-.141 1.384-.189 2.08-.105-1.462-.356-2.939-.753-4.321.687-.869.67-2.418-.075-3.328-.048-.06-.148-.033-.16.052-.01.079-.238 1.146-.291 1.078-.176-.228-.33-.474-.498-.712-.055-.078-.157-.008-.159.079.001.265-.034.514-.084.762-.198-.208-.365-.437-.51-.714-.04-.077-.154-.071-.168.025-.165 1.176.608 3.397 1.81 3.312.419 1.697.657 3.395.784 5.177-.042.592-.092 1.182-.165 1.767-.196 1.547-.532 3.061-.708 4.612-.997-4.289-2.328-8.482-3.072-12.844-.418-2.438-.777-5.093-.502-7.568.218-1.958.867-3.732 1.882-5.273 1.585-2.409 3.719-4.455 4.881-7.172.016.001.031-.002.05-.003 2.508.867 4.202-2.946 4.813-5.247.033-.126-.097-.229-.186-.167-.582.406-1.194 1.23-1.876 1.375-.841.181-.738-2.009-.76-2.575-.005-.097-.107-.188-.18-.12-.583.52-.955 1.264-1.467 1.865-.126-.546-.228-1.099-.392-1.633-.09-.293-.268-1.045-.598-1.107-.808-.151-.795 1.828-.809 2.391-.02.863.19 4.622 1.179 5.158-.334.76-.741 1.474-1.211 2.144-1.94 2.78-4.578 5.135-5.399 8.781-.164-3.962 1.027-7.872.601-11.867-.166-1.581-.505-3.045-1.07-4.496a6.07 6.07 0 0 1-.088-.232c.038-.049.069-.095.098-.15 1.018-.818.127-4.682-1.237-4.755-.075-.004-.119.07-.124.15-.026.518-.015 1.031-.141 1.522-.329-.393-.638-.765-1.086-.974-.076-.034-.172.055-.161.15.016.138.168 1.821.094 1.786-.473-.225-.866-.611-1.306-.912-.123-.082-.221.079-.17.208.446 1.142 1.165 2.889 2.236 3.36.433.193 1.192.137 1.641-.229l.352 1.064c.532 1.582.772 3.277.804 4.967.066 3.404-.799 6.781-.704 10.18-.204-.843-.545-1.664-.838-2.386-.407-.999-.766-2.016-1.25-2.966a48.07 48.07 0 0 0-.772-1.452c.002-.017.003-.034-.002-.051 1.083-1.123.937-3.448-.376-4.424-.055-.041-.125-.012-.158.05-.237.474-.368 1.002-.549 1.511a11.59 11.59 0 0 1-.717-.8c-.057-.068-.182-.042-.191.062-.025.262.044 1.751-.404 1.402-.308-.24-.591-.48-.933-.637-.087-.042-.146.073-.132.162.212 1.316 2.091 4.175 3.314 2.938l.588 1.091c.478.925.846 1.896 1.256 2.859.5 1.17 1.19 2.591 1.231 3.969-.335 2.431-.133 4.996.293 7.509-.601-1.826-1.443-3.586-2.388-5.17-.58-.973-1.2-1.92-1.898-2.778-.356-.434-.721-.863-1.114-1.252a14.71 14.71 0 0 0-.519-.496l-.218-.189c.004-.019.01-.033.014-.054.011-.041-.001-.079-.019-.105.794-1.122.135-3.001-.874-3.989-.066-.065-.175-.047-.196.062-.065.357-.087.706-.113 1.07-.051.716-.539.155-.776-.138-.088-.11-.216.008-.193.139.083.462.184.912.235 1.381-.562-.15-1.085-.443-1.634-.658-.105-.039-.165.102-.124.203.389.952 2.888 4.186 3.594 2.373 2.978 2.668 4.925 6.551 6.395 10.557.286 1.495.636 2.961.98 4.354l1.849 7.231c.342 1.416.634 2.846.917 4.277-.163-.218-.337-.422-.513-.617l-1.662-1.849c-1.271-1.345-2.578-2.674-3.973-3.832l-1.377-1.119c.624-1.908-.25-4.058-1.127-5.688-.555-1.036-1.184-2.017-1.835-2.975-.115-.165-.225-.346-.339-.532.229-.394.28-.983.23-1.446-.112-1.027-.778-1.417-1.395-2.057-.05-.052-.106-.013-.122.04-.105-.12-.21-.237-.312-.364-.041-.051-.093-.052-.134-.023-.013-.013-.029-.025-.041-.038-.055-.055-.133.039-.077.096.019.021.042.043.063.064 0 .011-.005.021-.003.035.081.401.229.801.237 1.215-.288-.293-.555-.615-.884-.844-.09-.064-.193.039-.166.155.091.395.273.712.424 1.067-.391-.018-.76-.185-1.145-.287-.098-.026-.182.094-.127.203.493.995 1.829 2.873 2.942 2.601.136-.036.249-.104.344-.198.011.014.023.028.032.043.639.915 1.272 1.836 1.834 2.819 1.006 1.758 2.01 3.891 1.512 6.041-.905-.708-1.846-1.368-2.826-1.837-.756-.367-1.546-.624-2.324-.913.179-.304-.516-1.262-.63-1.402-.599-.733-1.535-1.833-2.453-1.843-.085-.002-.123.106-.088.189.161.373.285.753.405 1.145-.349-.059-.679-.091-1.03-.01-.077.018-.092.123-.063.196.182.456.465.764.771 1.09-.437.205-.901.088-1.364.028-.117-.015-.134.161-.08.241.859 1.279 2.173 1.532 3.454 1.328.419-.071 1.028-.266 1.097-.693.611.221 1.226.437 1.828.703 1.497.671 2.913 1.755 4.235 2.83 1.461 1.188 2.851 2.518 4.187 3.903l.392.414c-1.446-.247-2.943-.465-4.309-1.112.035-.084.058-.176.068-.278.614-.8-1.518-2.504-2.009-2.759-.078-.038-.183.027-.15.142.128.426.245.85.333 1.287-.338-.148-.662-.305-1.025-.352-.085-.011-.132.121-.09.197.185.359.409.671.536 1.058a11.59 11.59 0 0 0-1.074-.161c-.085-.009-.133.118-.091.2.446.853 1.532 1.282 2.323 1.301.405.011.817-.125 1.056-.418 1.433.723 3.085 1.05 4.547 1.037.371.371.722.753 1.075 1.132.329.355.683.713.974 1.127l.592 3.049 2.21 11.946c-1.14-2.605-3.091-5.956-3.406-6.519-1.231-2.2-2.638-4.284-4.258-6.105-1.206-1.356-2.545-2.432-3.896-3.567-.907-.761-1.825-1.502-2.793-2.128a.2.2 0 0 0 .014-.075c.292-.344.13-1.1-.069-1.506-.492-.993-1.352-1.382-2.233-1.711-.078-.027-.15.067-.125.155.05.195.42.91.01.861-.263-.036-.519-.095-.778-.151-.077-.017-.174.062-.137.167.145.407.34.755.565 1.104-.324.054-.63.13-.934.291-.052.027-.072.13-.038.187.602.956 2.865 2.157 3.601.943 1.043.669 2.022 1.475 2.993 2.291 1.328 1.119 2.659 2.176 3.827 3.542a36.27 36.27 0 0 1 3.943 5.608c.996 1.753 1.966 3.53 2.858 5.359.109.228.571 1.088.966 1.982a120.35 120.35 0 0 1 .491 3.589c.756 6.352.668 12.776-.065 19.08-.06-.377-.135-.755-.222-1.127-.369-1.581-.841-3.167-1.392-4.677-1.216-3.32-2.969-6.421-5.391-8.676-.148-.137-.303-.268-.457-.402-.473-.614-.968-1.207-1.405-1.86-.466-.694-.879-1.44-1.281-2.191-.109-.289-.176-.607-.216-.937.006-.028.001-.058-.011-.082-.088-.824-.021-1.718-.023-2.475-.006-1.057 0-2.117-.059-3.174-.09-1.626-.52-3.098-1.583-4.217-1.039-1.095-2.343-1.822-3.696-2.125-1.094-.243-2.5-.418-3.493.294-2.384 1.707.395 5.567 1.789 6.949 1.249 1.237 2.768 1.286 4.157 2.141.773.475 1.38 1.107 1.958 1.875l.033.046.287.531c.597 1.094 1.156 2.25 1.847 3.267.327.486.681.946 1.045 1.401a25.37 25.37 0 0 0-5.545-3.466c-.233-.387-.591-.641-.912-.927-.71-.63-1.326-1.424-1.982-2.132-1.356-1.461-2.838-2.977-4.592-3.683-1.447-.583-3.458-.993-4.754.187-1.977 1.798-1.9 6.229-.143 8.337 1.514 1.816 3.856 1.438 5.714.882 1.162-.348 2.291-.812 3.429-1.254.518-.203 1.04-.404 1.57-.564.38-.114 1.301-.508 1.738-.288.01.001.016-.003.024.004.017.003.032.005.049.009.029-.022.067-.032.114-.017.054.02.112.04.167.057.008-.029.011-.06.004-.092l.321.159c.01.001.018.005.023.004.044.005.075.026.097.057 1.926.967 3.806 2.192 5.43 3.697l.281.27.076.09c-.374-.138-.847-.138-1.133-.147-.775-.024-1.581.014-2.338.2-.116.027-.228.059-.343.092-.02-.001-.038.002-.059.014l-.347.103c.028-.049.001-.125-.06-.104-.709.26-1.689.01-2.427-.041-.852-.066-1.705-.147-2.557-.152-1.295-.008-2.703.023-3.777.953-.776.674-1.372 2.164-1.264 3.323.117 1.235.877 2.182 1.602 3.018 1.282 1.476 3.656 3.114 5.228 1.367 1.017-1.128 1.805-2.693 2.401-4.179.32-.806.566-1.639.858-2.456.158-.448.238-1.185.519-1.537.023-.031.032-.062.035-.094.539-.134 1.083-.231 1.642-.267.792-.054 1.688-.143 2.426.308 2.088 2.18 3.71 4.917 4.802 7.961.519 1.44.985 2.928 1.355 4.431a17.12 17.12 0 0 1 .369 1.894 97.82 97.82 0 0 1-1.794 10.147c-.121-.627-.354-1.269-.475-1.742-.35-1.369-.74-2.638-1.329-3.882-.062-.228-.158-.454-.26-.668.021-.05.023-.11-.017-.166a3.8 3.8 0 0 0-.064-.086c-.16-1.633-.599-3.259-1.041-4.811-.375-1.326-.733-2.699-1.202-3.985-.661-1.812-1.866-3.367-3.62-2.42-1.691.914-1.956 3.334-.747 5.009 1.704 2.356 4.21 3.672 6.034 5.894l.109.209c.716 1.365 1.406 2.797 1.741 4.363.11.516.262 1.021.389 1.536.098.389.297 1.009.296 1.501-1.162 4.712-3.088 9.154-5.303 13.247-.729 1.348-1.492 2.76-2.343 4.065.323-1.552-.239-3.584-.43-5.022-.093-.707-.205-1.413-.328-2.114.007-.007.012-.018.008-.035-.009-.06-.029-.117-.044-.178a40.77 40.77 0 0 0-.564-2.645c.009-.01.014-.025.005-.044-.017-.04-.029-.079-.045-.117-.155-.599-.321-1.19-.51-1.776-.389-2.185-.104-4.557-.215-6.745.005-.027.01-.05.016-.079.038-.039.058-.102.033-.169.367-1.835 1.012-3.635 1.124-5.528.105-1.809-.084-4.022-.832-5.656-1.288-2.818-4.493-3.334-6.795-2.25-2.696 1.27-.834 4.635.553 6.308 1.215 1.467 2.678 2.565 3.94 3.968.79.883 1.267 1.926 1.722 3.069a25.59 25.59 0 0 1 .053 1.298c.013 1.518-.067 3.053.09 4.566l.046.412-.325-.887c-1.075-2.751-2.533-5.301-4.469-7.302-.193-.2-.391-.392-.59-.579-1.044-2.021-2.215-3.958-3.371-5.891-.874-1.463-1.699-2.992-2.934-4.074-1.092-.961-2.567-1.76-3.911-1.183-1.367.588-2.246 1.971-2.826 3.505-.493 1.304-.937 3.144-.604 4.594.391 1.699 1.665 2.143 2.992 2.389 1.642.302 3.293.266 4.946.37 1.848.114 3.726.289 5.567.554l.357.345c1.848 1.913 3.331 4.248 4.394 6.871.757 1.866 1.322 3.821 1.737 5.819-.295-.423-.671-.8-.982-1.11-.649-.651-1.313-1.308-1.994-1.91-1.025-.906-2.176-1.602-3.365-2.188-.016-.035-.039-.066-.078-.084-.094-.037-.191-.067-.285-.095-.041-.021-.085-.038-.128-.056-2.543-2.877-4.726-6.737-8.337-7.589-2.928-.69-5.808.823-6.63 4.384-.395 1.751-.276 4.058.675 5.58zm15.286-1.635c.831.41 1.642.871 2.393 1.503l.523.452c-.945-.76-1.961-1.404-2.916-1.955z"/><path d="M389.083 205.042c-.912.004-1.794-.212-2.651-.504-.859.283-1.625.8-2.428 1.209l-.62.306c-.003.006-.007.012-.011.019-.059.066-.134.087-.211.09l-1.595.711-3.515 1.437-.526.295c.326-.11.659-.19 1.006-.216l1.599-.192c.474-.014.935.092 1.406.111 1.082-.056 2.217-.074 3.008.801.263.256.515.584.496.971-.089.56-.413 1.111-.812 1.511-.447.38-1.118.353-1.661.254-1.947-.279-3.478-1.752-5.433-2.046-.365-.066-.755-.135-1.101-.286l-1.312.84-2.886 1.845c-1.776 1.346-3.406 2.872-5.017 4.408l-4.347 4.17c.061-.014.118-.037.182-.045.527-.104 1.035-.291 1.555-.425.198-.137.431-.227.625-.378a11.87 11.87 0 0 0 1.34-1.215c.575-.675 1.083-1.405 1.807-1.934.285-.248.59-.568.995-.56.571.002.999.523.989 1.076-.009.04-.004.048.015.024l.523-.461c.69-.587 1.491-1.125 2.421-1.186 1.321-.141 1.237 1.153.709 1.97.931-.152 1.839-.547 2.796-.461 1.641.074.7 1.565-.104 2.121.843.318 1.635.815 2.354 1.356.687.605 1.428 1.391 1.412 2.358-.016.542-.573.828-1.037.946-1.416.397-2.582-.808-3.52-1.694-.167-.151-.405-.327-.592-.393.056.105.13.202.187.307.642.964.491 2.057-.854 1.342-.758-.515-1.206-1.387-1.935-1.943.174 1.047-.692 2.82-1.853 1.762-.272-.291-.45-.658-.681-.981-.04-.057-.028-.048-.016.027.331 1.606-1.293 2.531-2.231 1.001-.4-.514-.632-1.201-1.194-1.561-.306-.042-.553-.233-.832-.351-.294-.14-.604-.25-.904-.366-.496.088-.984.254-1.482.351-.371.071-.755.087-1.102.25-.266.096-.522.281-.805.305a70.27 70.27 0 0 0-4.799 5.717l-2.823 4.014c-.943 1.584-1.67 3.281-2.499 4.924l-2.177 4.345-.119.259.881-.664 2.043-1.363c.351-.497.728-.984.937-1.563.475-.906 1.195-4.407 2.346-4.36.731.152.879.875.936 1.506.002.001.04-.047.04-.047a5.5 5.5 0 0 0 .869-1.331c.337-.715.448-1.601 1.056-2.154.632-.408 1.358.122 1.448.801l.951-1.302c.28-.34.606-.724 1.065-.797.985-.079 1.04 1.295.765 1.96.624-.116 1.241-.369 1.871-.481.328-.068.631.058.934.162.119.023.257.058.369.122.089.023.171.062.225.154.043.073.048.148.037.22.375.297.125.875-.092 1.215-.455.841-1.321 1.3-2.18 1.638l-.156.06c-.05.02-.057.013.012.026l.186.04c1.393.427 2.766 1.783.638 2.453-.816.261-1.672 0-2.458-.249l-.302-.088c.587.529.519 1.446-.276 1.692-.869.345-1.772-.012-2.594-.316.515.31.673.999.383 1.517-.276.447-.852.562-1.337.629-.734.099-1.455-.152-2.086-.512-.438-.322-.974-.072-1.466-.077-.677.006-1.356-.018-2.027.028l-.949.627c-.627.376-1.229.795-1.809 1.241l-1.005.842-2.215 5.497-1.14 3.14.201-.112c.606-.304 1.192-.683 1.848-.863.244-.053.492-.046.74-.031.023.011.034.004.033-.018l.171-.581c.435-1.265 1.051-2.575 2.088-3.454.344-.297.947-.255 1.1.219.238.648-.145 1.295-.451 1.848l1.18-.473c.534-.178 1.089-.47 1.664-.371 1.111.413-.18 1.76-.689 2.19-.263.213-.553.391-.861.532-.084.037-.058.024-.004.033.803.13 2.196.436 2.044 1.501-.249.595-.956.884-1.556.99-.958.16-1.806-.439-2.653-.793-.515-.23-.991-.55-1.53-.728-.155.102-.378.087-.503-.063-.039-.091-.135-.062-.214-.072-.695-.043-1.293.415-1.914.667-.309.152-.64.294-.891.536-.07.07-.129.152-.194.229l-.898 3.197c-.202.854-.218 1.734-.343 2.599l-.722 4.989a17.14 17.14 0 0 0 .081 1.695c.028.127.031.252.011.366l.171 1.112c.002.017-.002.033-.002.05l.708-.666.179-.256c.286-.415.572-.84.723-1.324.34-1.095-.037-2.321.525-3.359.211-.366.397-.803.782-1.014.763-.313 1.605.397 1.803 1.113.484-.703 1.864-2.681 2.879-2.024.418.282.422.872.392 1.313.537-.667 1.226-1.305 2.035-1.61.512-.135.787.358.681.808a2.46 2.46 0 0 1-.125.448c-.033.055-.03.067.007.035.715-.516 1.632-.137 1.532.802.765-.425 1.67-.401 2.495-.193.393.086.79.176 1.156.346.158.071.345.15.423.315.173.345-.226.731-.565.552-.03-.014-.064-.02-.094-.033-.328.607-1.524 1.332-1.879 1.468-.568.271-1.202.126-1.771-.081l.152.106c.555.393 1.409.934 1.134 1.733-.296.663-1.142.468-1.708.351-.801-.154-1.432-.692-2.093-1.131-.014-.009-.159-.116-.109-.057.233.469.584.917.649 1.447-.008.72-.794.73-1.31.558-.888-.222-1.623-.822-2.491-1.09.562 1.018.195 1.905-1.062 1.631-.669-.114-1.26-.506-1.935-.602a2.4 2.4 0 0 0-.954.063c-.404.147-.797.396-1.23.438l-.303.264-.737.658a12.28 12.28 0 0 1-.164 1.39c-.102.632-.144 1.337-.596 1.835-.14.156-.366.224-.563.143-.59-.222-.363-1.34-.1-2.186-.283-.176.005-.557.185-.745l.12-.137c.252-.643.268-1.365.152-2.052-.184-.125-.278-.352-.307-.574-.111-.52-.157-1.053-.184-1.584-.045-.757.086-1.505.156-2.256.028-.726.139-1.445.278-2.159l.048-.268c-.108-.077-.127-.226-.141-.356-.027-.124-.064-.246-.104-.365-.257-.823-.604-1.619-1.115-2.317-.023-.03-.043-.105-.09-.047-.127.039-.275.015-.375-.075-1.325 1.037-3.704 1.421-4.73-.2-.083-.201-.047-.419.059-.605.375-.632 1.189-.654 1.842-.703l.377-.019c.051-.003.047.005-.009-.037l-.15-.122c-.554-.47-1.001-1.05-1.459-1.61-.212-.283-.472-.571-.532-.931-.046-1.094 1.288-.74 1.89-.394a6.41 6.41 0 0 1 .716.387c.01.007.01.001-.003-.02-.311-1.013-.994-1.896-1.149-2.961-.206-.977.489-2.291 1.611-1.696 1.092.603 1.134 2.032 1.43 3.11l.049.206c.115-.304.232-.605.394-.879.526-1.081 1.684-.868 2.183.104.461 1.091-.642 3.419-1.047 4.54l-.626 1.283c-.001.011.019.025.028.037.547.7.904 1.531 1.133 2.385.117-1.041.202-2.087.53-3.092.61-2.555 1.513-5.029 2.479-7.468l1.946-4.782 1.527-3.198c-.011-.018-.031-.027-.038-.049-.031-.091-.006-.169.016-.259.118-.516.211-1.044.188-1.575-.091-.848-.177-1.708-.439-2.523l-.3-.882c-.877-.685-1.963-.958-3.059-1-2.472-.253-2.127-3.016.28-2.793-.466-.502-.993-1.016-1.103-1.729-.142-.507-.065-1.271.498-1.477.233-.006.523-.105.721.054.647-.225 1.392-.065 1.948.318.683.539.748 1.481.992 2.257.018.048.023.137.045.176.006.003.055-.082.063-.095.399-.597.872-1.383 1.681-1.381.784-.017 1.068.835 1.051 1.491.003 1.368-.979 2.388-1.68 3.461-.156.298-.357.587-.428.914.34 1.118.516 2.294.422 3.451l1.047-1.998 2.574-4.837c.922-1.496 2.051-2.852 3.127-4.239l.292-.353c-.01-.041-.012-.085 0-.131l.073-1.584-.105-1.845c-.587-1.054-1.66-1.709-2.411-2.636-.476-.469-1.003-1.467-.219-1.899.362-.191.791-.142 1.174-.051.071.017.066.026.041-.017-.378-.634-.615-1.337-.941-1.997-.179-.372-.406-.873-.095-1.241.49-.509 1.264-.017 1.664.38-.123-1.007-.766-2.182-.14-3.122.221-.263.617-.259.897-.104-.082-.796-.232-1.783.358-2.43.276-.224.689-.114.921.122.026.046.039.048.038.006.105-.715.461-1.408 1.017-1.877.443-.356.958-.776 1.549-.786.291-.2.659-.193.834.148.168.38.075.815.024 1.211l-.189 1.124c-.192.868-.567 1.68-.896 2.502-.012.03-.024.039.008.02l.069-.039c.328-.178.684-.299 1.044-.396.183-.048.425-.082.597.017.827.583-.662 1.9-1.148 2.291l-.327.229c-.043.027-.068.027.012.021 2.311-.025 1.149 1.493-.081 2.201.314-.068.688.028.814.353.254.821-.732 1.81-1.231 2.388 1.453.299.454 1.627-.261 2.169-.556.439-1.182.791-1.672 1.311l-.644.638c-.035.028-.031.022-.03.061.03.711.027 1.421-.053 2.128 2.329-2.82 4.842-5.48 7.571-7.919l2.462-2.264c.347-1.001.538-2.047.772-3.078.009-.028.028-.063.03-.092-.012-.065-.064-.131-.077-.2-.099-.319-.102-.657-.035-.982.017-.368.037-.734.162-1.086.157-.635.263-1.283.381-1.926.018-.596-.236-1.168-.332-1.751-.093-.47-.325-.906-.372-1.382a.99.99 0 0 1 .734-.97c.46-.13.854.362 1.099.581-.283-.721-.433-1.485-.613-2.236-.122-.463-.211-.942-.176-1.423.006-1.212.941-1.681 1.777-.731.14-1.254.018-2.672.805-3.735.381-.633 1.436-1.161 1.646-.113 1.072.287.944 2.486.789 3.351.372-.091.793-.234 1.162-.069.553.405.229 1.748.009 2.296-.233.694-.849 1.128-1.439 1.496.735-.191 1.411.199 1.175 1.048-.104.414-.398.723-.66 1.045-.462.606-.906 1.24-1.423 1.799 1.3-.262 1.814.591 1.12 1.664-.561.577-1.354.857-2.02 1.291-.551.351-1.137.646-1.666 1.028-.409.311-.779.666-1.159 1.01-.114.114-.109.316-.158.467-.025.235-.155.93-.353 1.643 1.09-.956 2.204-1.883 3.375-2.741.957-.68 1.997-1.233 2.977-1.881l1.13-.729c.038-.082.102-.151.195-.181.013-.005.023.001.036-.001a.72.72 0 0 1 .064-.257c.192-.468.392-.935.529-1.424.384-1.408.835-2.801 1.561-4.076.527-.89 1.273-1.962 2.389-2.064 1.098.068.98 1.485.714 2.243-.439 1.325-1.333 2.419-2.17 3.51-.169.206-.314.432-.456.661.765-.329 1.539-.64 2.315-.945.062-.075.135-.1.178-.171.363-.568.751-1.126 1.016-1.749.3-.902.675-1.782 1.221-2.567.385-.515.771-1.091 1.373-1.367.769-.39 1.509.163 1.29 1.011-.273 1.232-.968 2.272-1.634 3.34.48-.243 1.132-.57 1.711-.789.014-.085.049-.167.13-.221.172-.124.381-.022.567.016.012-.002.023-.002.035-.004-.113-1.855 2.728-5.792 4.128-6.988.571-.452 1.936-1.554 2.61-.869.447.656-.14 1.446-.477 2.024-1.01 1.661-2.632 2.786-4.017 4.107-.01.011-.122.101-.061.068 1.219-.442 2.494-.811 3.795-.875 3.669-.017 2.731 2.1.155 3.18-1.158.369-2.392.539-3.604.594zm-60.987 25.702c-.272-.246-.63-.353-.972-.46-.401-.128-.802-.254-1.221-.301-.518-.062-1.035.026-1.54.138-.896.134-1.697.572-2.398 1.132a9.14 9.14 0 0 0-1.685 1.65c-.382.462-.752.938-1.009 1.483-.567 1.186-.807 2.531-.571 3.831l.403 2.296c.023.068.039.154.061.237-.137.284-.275.568-.368.869-.198.619-.277 1.267-.439 1.893l-.038.107-.437-3.231-.43-3.458-.331-1.459-.02-1.481c-.042-.572-.072-1.147-.008-1.719l.172-1.163c.049-.018.096-.044.138-.077.725-.416 1.43-.863 2.098-1.367.529-.344 1.05-.704 1.486-1.163.904-.904 1.527-2.054 1.952-3.251a6.23 6.23 0 0 0-.613-5.202c-.598-1.047-1.804-1.7-3.001-1.691-.858.009-1.665.365-2.351.862-.633.435-1.28.923-1.607 1.641-.396.882-.464 1.873-.491 2.829-.012.894.239 1.762.418 2.631.238 1.183.632 2.325 1.057 3.452l.419 1.241-.086.702c-.099.541-.102 1.086-.084 1.631l-.804-2.87c-.66-2.198-1.672-4.271-2.737-6.298l-1.206-2.087-.601-2.044-.261-1.291-.337-1.34c.216-.164.38-.431.522-.641.341-.571.544-1.213.853-1.801.454-.961.867-1.986.877-3.064.049-1.244.03-2.253-.755-3.295a3.67 3.67 0 0 0-2.362-1.546c-.916-.188-1.978-.226-2.776.332-.691.523-.94 1.4-1.215 2.182-.381 1.113-.23 2.357.203 3.432.404.851.867 1.695 1.486 2.409.677.741 1.548 1.269 2.391 1.798l.21.145.447 1.686.359 1.557c-1.353-1.984-2.875-3.853-4.481-5.638-.735-.854-1.604-1.571-2.442-2.319l-.97-.847-.058-.113-1.883-3.416c-.806-1.431-1.635-2.939-3.033-3.873-.677-.444-1.376-.884-2.151-1.134-.585-.198-1.208-.062-1.796.059-1.01.189-1.947.723-2.629 1.492-.496.559-.715 1.303-.75 2.039-.038.688.008 1.397.308 2.028.439.943 1.065 1.812 1.896 2.447 2.376 2.003 6.078 2.072 8.981 1.43.193-.042.39-.09.587-.067.781.09 1.627 1.063 2.178 1.553 1.072 1.012 1.989 2.174 2.937 3.3 2.783 3.416 5.18 7.206 6.714 11.346-.605-1.356-1.443-2.588-2.29-3.803-1.069-1.561-2.388-2.924-3.818-4.156a30.71 30.71 0 0 0-1.286-1.046c-.344-.264-1.006-.471-1.256-.786-.119-.15-.184-.333-.256-.51-.528-1.292-1.479-1.879-2.608-2.619-.998-.655-2.107-.695-3.259-.585-1.267.129-3.103.27-3.904 1.378-.837 1.111-.66 2.677-.067 3.861.447.851 1.417 1.319 2.334 1.468 1.503.167 2.997-.312 4.41-.773a15.27 15.27 0 0 0 2.291-1.01c.344-.18.676-.381 1.002-.592.034.021.071.037.105.058 1.581 1.072 3.03 2.339 4.347 3.721 1.082 1.189 1.969 2.533 2.872 3.858.681 1.037 1.176 2.18 1.796 3.253l.32.612c.013.032.029.064.048.094a90.82 90.82 0 0 1 1.419 5.681c.26 1.265.341 2.557.507 3.835l.174 1.25c-.378-.823-.783-1.634-1.226-2.424-.65-1.16-1.348-2.295-2.101-3.391-.909-1.315-1.982-2.503-3.078-3.664 0-.012.002-.023 0-.036.426-.503-.156-2.09-.384-2.669-.509-1.434-1.271-2.675-2.505-3.595-1.434-1.218-3.018-1.843-4.891-1.977-1.504-.13-3.545-.141-4.507 1.229-.546.978-.373 2.188.015 3.192.7 1.697 1.77 2.788 3.46 3.506.708.286 1.453.48 2.197.65.881.196 1.775.367 2.681.363.807-.01 1.611-.092 2.411-.189.167-.039.635-.056 1.009-.135 1.146 1.263 2.273 2.55 3.223 3.968 1.115 1.693 2.202 3.412 3.124 5.219a21.56 21.56 0 0 1 .671 1.365c.056.092.092.218.149.319.141 1.043.255 2.088.28 3.14l-.01 3.755c-.012.839-.164 1.668-.259 2.5-.155 1.189-.197 2.403-.611 3.54-.176.519-.376 1.029-.551 1.548-.007-.043-.015-.086-.023-.129-.558-2.969-1.494-5.864-2.732-8.619-.829-1.796-1.596-3.625-2.517-5.376.007-.003.015-.005.021-.01.165-.178.159-.504.211-.736.143-1.001.059-2.018-.045-3.019-.245-2.657-1.401-5.733-4.139-6.659-.577-.206-1.182-.319-1.79-.384-.858-.101-1.787-.106-2.53.395-1.377.943-1.778 2.902-1.733 4.476.08 1.668 1.112 3.402 2.307 4.53.43.386.983.589 1.495.841.436.209.886.389 1.358.502 1.011.268 2.058.342 3.091.488.378.051.752.134 1.133.161.013.001.028.003.042.004a49.79 49.79 0 0 1 .935 1.88c1.031 2.23 2.162 4.423 2.947 6.756.508 1.52.967 3.058 1.313 4.623l.329 1.452c-.247 1.041-.359 2.108-.563 3.158l-.251 1.13c-.222-1.249-.473-2.494-.78-3.725-.584-2.169-1.255-4.345-2.438-6.27a9.54 9.54 0 0 0-.433-.587c.02-.058.012-.126-.047-.182-.014-.013-.029-.019-.044-.027.062-.143-.049-.327-.064-.478-.103-.458-.24-.909-.431-1.338-.853-2.045-2.648-3.668-4.789-4.256-1.41-.433-3.138-.357-4.279.667-.889.825-.94 2.153-.811 3.282.204 1.157.922 2.209 1.814 2.954 1.145.858 2.626 1.237 4.045 1.19 1.096-.017 2.14-.404 3.102-.906.156-.089.679-.337 1.034-.59.097.117.201.231.293.352.836 1.359 1.353 2.883 1.839 4.394.625 1.867 1.103 3.779 1.563 5.692l.188.806-.775 2.929c-.362 1.286-.602 2.606-1.045 3.868-.751 2.033-1.248 4.17-1.553 6.314-.163 1.145.05 2.299.081 3.445.03 1.101-.048 2.287.409 3.32.245.553 1.007.864 1.572.945.294.031.595-.229.533-.532-.061-.213-.176-.406-.271-.605-.327-.684-.778-1.274-1.024-1.996-.239-.703-.229-1.48-.294-2.224-.116-1.319.28-2.496.4-3.793.096-1.025.341-2.025.64-3.01.227-.701.517-1.381.708-2.094.231-.813.405-1.64.606-2.46l1.288-5.133c.359-1.392.438-2.835.765-4.233.234-1.055.701-2.037.996-3.074.157-.546.231-1.11.298-1.673.177-.013.197-.254.284-.38.269-.537.537-1.079.846-1.595a6.65 6.65 0 0 1 .415-.585c.51-.066 1.016-.13 1.532-.109.625-.033 1.251-.114 1.863-.241.981-.237 1.88-.725 2.751-1.221 1.066-.571 2.063-1.346 2.609-2.452.195-.411.208-.869.188-1.316-.024-.779-.274-1.53-.649-2.208-.196-.369-.42-.762-.808-.956-.683-.294-1.477-.414-2.202-.215-1.136.355-2.116 1.089-2.995 1.871-.524.483-1.013 1.005-1.443 1.574-.348.465-.699.948-.872 1.509-.14.459-.214.935-.278 1.408-.084.556-.063 1.12-.125 1.677-.02.163-.035.325-.062.487-.022.06-.02.125.004.176-.384.577-.681 1.208-.969 1.843l.292-2.4c.076-.819.029-1.641.015-2.461-.025-.823.013-1.646-.006-2.469a36.1 36.1 0 0 0-.154-1.77c.029-.056.044-.122.034-.187-.005-.478.309-.874.396-1.334.144-.557.222-1.133.413-1.677.096-.282.23-.548.362-.815.017-.037.031-.075.048-.112.879.246 1.819.153 2.648-.228.964-.418 1.888-.925 2.792-1.458.691-.415 1.329-.914 1.963-1.41 1.074-.83 1.709-2.125 1.836-3.465.051-.712.115-1.45-.067-2.148-.159-.49-.417-.975-.8-1.325z"/></g><path d="M82.605 250.092c.116-.134.237-.261.374-.376.045-.035.044-.015.085.019l.505.407c2.149 1.756 5.318 2.034 7.833.933 4.069-1.817 5.77-6.024 4.358-10.203-1.124-2.601-3.749-4.424-6.465-5.048-2.354-.328-4.802.466-6.768 1.742-2.903 1.822-2.914 5.977-1.444 8.739a11.5 11.5 0 0 0 1.525 2.31c-.417.19-.777.537-1.073.885-.692.842-1.308 1.745-1.935 2.635-.044.081-.104.168-.17.257l-1.408-3.676c-.989-2.765-1.886-5.575-3.121-8.245-.266-.594-.55-1.18-.839-1.764.146-.449.182-.942.347-1.394.38-1.21.903-2.37 1.33-3.565.174-.441.338-.901.605-1.296 1.545.575 3.265.628 4.866.246 5.197-.911 7.014-6.916 5.73-11.48-1.54-6.177-5.509-8.218-11.205-5.094-2.172 1.103-3.495 3.388-3.785 5.761-.167 1.488.117 2.994.469 4.435.463 2.087 1.67 3.879 3.215 5.329-.722.772-1.834 3.69-2.281 5.625-.503-1.024-.985-2.055-1.371-3.13-.706-1.967-1.043-4.038-1.467-6.077-1.284-5.085.143-10.278.103-15.426.05-.081.082-.173.066-.28.246-.869.951-1.536 1.529-2.205.434-.501.927-.96 1.393-1.43.272-.275.434-.754.75-.973.54-.375.657-.024 1.264.123 1.305.315 3.087-.455 4.11-1.225 1.999-1.682 3.267-4.987 1.72-7.341-.825-1.119-2.238-1.798-3.613-1.882-1.495.006-2.805 1.028-3.667 2.177-1.038 1.385-.999 2.728-.996 4.374.001.478-.067 1.013.003 1.485.094.636.505.758.746 1.336.163.389-1.252 1.394-1.524 1.667-.355.357-1.924 1.665-1.885 2.184-.091-1.235-.236-2.465-.446-3.684-.562-3.089-1.061-6.21-2.046-9.199-.691-2.115-1.709-4.097-2.67-6.098.068-.01.136-.018.198-.057l.09.082c.02.014.096.04.11.055.423.925 1.312 1.557 2.249 1.899 3.721 1.66 8.34-1.262 8.938-5.17.204-1.498-.204-3.048-.993-4.326-2.498-3.689-6.322-4.098-9.402-.811-.879.937-1.331 2.275-1.516 3.521-.109.734-.438 2.961.103 3.561-.063.106-.147.178-.228.272-.924-2.004-1.792-4.034-2.489-6.128l-.266-.762c.05-.092.092-.192.124-.294.68-1.593 1.265-3.223 1.723-4.894.121-.424.242-.851.406-1.256.012-.007.083.015.099.018 2.537.426 4.956-1.156 6.159-3.323 1.029-1.667 1.546-3.876.768-5.739-.831-1.812-2.735-3.199-4.737-3.331-1.31-.048-2.555.594-3.43 1.544-1.473 1.409-2.804 3.247-2.813 5.364-.071 2.148 1.716 3.603 3.18 4.896-.687 1.681-1.038 3.495-1.681 5.2l-.215.619-1.223-3.502c-.616-1.777-1.186-3.627-1.104-5.529.212-5.059 1.907-9.924 3.939-14.519.231-.564.494-1.111.758-1.657.185-.041.363-.162.532-.252.596-.317 1.215-.588 1.831-.863 1.463-.598 2.992-1.029 4.469-1.595 1.035-.354 2.08-.845 3.189-.87.611.131.975.757 1.476 1.094 1.259 1.004 2.67 1.857 4.244 2.251 5.295 1.673 8.752-4.271 6.441-8.748-.921-2.016-1.909-3.214-4.283-3.128-2.913.231-5.729 1.908-7.241 4.42-.486.868-1.012 1.817-.931 2.843a1.91 1.91 0 0 0 .03.237c.011.027-.004.033-.044.019-.566.02-1.115.164-1.656.319-2.451.797-4.926 1.575-7.242 2.719.964-1.728 2.073-3.374 3.329-4.912 2.28-2.994 5.011-5.599 7.963-7.923 2.192-1.781 4.498-3.419 6.931-4.854 1.584-.888 3.147-1.975 4.949-2.345.042-.01.083-.007.123-.003.03.084.068.165.135.233.115 1.851.788 4.12 2.648 4.948 1.552.533 3.321.628 4.874.048 1.426-.661 2.261-3.152 2.324-4.634.131-1.896-1.401-3.262-2.818-4.266-1.975-1.383-4.707-.412-6.117 1.342-.24.28-.658.812-.903 1.344-2.262-.313-9.314 4.42-11.146 5.787.017-.575-.135-1.156-.394-1.666-.026-.053-.029-.034.017-.063a13.51 13.51 0 0 0 1.959-1.485c1.484-1.294 3.912-4.185 3.786-6.222-.226-1.628-1.798-2.637-3.237-3.145-2.221-.627-4.702.567-5.901 2.478-1.887 3.076-.659 4.907 1.369 7.384.636.852 1.463 1.738 1.417 2.874.017.227-.099.478-.133.704-1.784 1.379-3.541 2.798-5.151 4.375a9.3 9.3 0 0 0 .574-.99c.841-1.784 1.368-4.164.686-6.066-.55-1.4-1.499-2.664-2.668-3.608-.984-.724-2.274-.985-3.478-.938-2.583.349-4.849 2.733-4.987 5.348-.06 2.062 1.002 4.254 2.799 5.321.894.531 1.855.884 2.827 1.242.918.338 1.893 1.002 2.864.959-.92 1.03-1.793 2.17-2.656 3.26a40.56 40.56 0 0 0-1.426 1.903c-.314.447-1.267 1.446-1.299 1.989.136-2.386-1.091-4.782-3.319-5.828-1.217-.656-2.582-1.196-3.987-1.112-1.922.06-3.48 1.578-4.069 3.332-.666 2.11 1.072 4.145 2.792 5.157 2.105 1.057 4.548 1.369 6.88 1.416-.046.14-.128.27-.157.415a.42.42 0 0 0 .03.214c-2.309 4.991-4.053 10.32-4.226 15.83-.01 1.355.233 2.667.592 3.956l-.586-.674c-.22-.536-.4-1.089-.538-1.648-.452-1.765-1.278-3.401-1.808-5.14-.909-3.212-2.073-6.341-3.025-9.538-.028-.074-.053-.151-.086-.222.161-.662-.01-1.756-.029-2.146-.252-2.622-1.745-5.314-4.321-6.246-1.302-.557-2.745-.709-4.126-.383-.934.123-1.825.547-2.432 1.28-1.019 1.296-1.506 2.997-1.46 4.633.157 1.142.785 2.195 1.64 2.959 1.668 1.492 4.03 1.913 6.205 1.732 1.362-.089 2.798-.332 3.798-1.336.023.008.035-.002.056.003l.018.064c.547 2.51 1.4 4.932 2.134 7.39a39.7 39.7 0 0 0 1.837 5.29c.26.643.457 1.31.661 1.973-.201-.655-2.48-1.44-3.08-1.682-.633-.255-1.32-.269-1.651-.91-.3-.583-.186-1.693-.473-2.384-.768-1.851-2.297-3.31-3.949-4.391-6.887-4.676-14.486 1.937-7.273 8.039 2.044 1.7 4.85 2.229 7.446 1.957 1.502-.122 2.769-1.066 3.672-2.244 2.023.695 4 1.664 5.618 3.077.119.101.225.214.333.326.632 1.368 1.489 2.646 2.585 3.687l.896 2.546c.232.704.495 1.398.748 2.095a62.51 62.51 0 0 0-3.215-2.139c-.347-.216-.707-.419-1.035-.661.575-1.01-1.884-2.792-2.557-3.283a9.13 9.13 0 0 0-3.455-1.61c-1.532-.254-3.032.494-4.26 1.339-2.979 1.965-1.444 4.892 1.21 6.2 1.651.835 3.534 1.432 5.398 1.097 1.467-.267 3.02-1.261 3.371-2.732 1.525 1.044 3.088 2.031 4.637 3.04.142.099.306.232.476.302.411 1.052.843 2.095 1.313 3.122.951 2.197 2.126 4.296 2.987 6.531.706 1.818 1.165 3.709 1.551 5.617-.156-.19-.3-.389-.466-.57-1.344-1.337-2.748-2.607-4.399-3.551-.049-.027-.099-.057-.131-.102-.041-.057-.048-.131-.053-.201-.165-2.066-1.138-3.786-2.618-5.245-1.065-1.049-2.156-2.076-3.349-2.982-1.832-1.392-4.404-1.139-6.338-.086-1.78.875-3.117 2.211-2.538 4.33.767 2.958 3.454 4.899 6.002 6.306 1.776.939 3.963 1.285 5.879.58 1.151-.406 2.049-1.112 2.552-2.014 1.733 1.415 3.543 2.807 4.994 4.527.349.387.586.868.902 1.276l.21 1.162c.448 2.342.768 4.716.745 7.105-.09 3.55-.617 7.08-.547 10.638.002.109.011.218.014.327-.623-1.099-1.216-2.213-1.89-3.282-1.005-1.543-1.932-3.135-3.006-4.633-.967-1.427-1.722-3.018-2.969-4.237-2.042-2.386-4.683-2.938-7.344-3.824.282-.374.071-1.252.059-1.655-.297-3.371-2.679-6.112-5.538-7.727-1.337-.819-2.725-1.691-4.326-1.824-4.287-.013-8.298 3.316-9.037 7.544-.585 2.93 1.032 5.967 3.353 7.703 2.461 1.536 6.301 1.763 8.983.695 2.235-.698 4.018-2.238 5.564-3.949 2.243.874 4.786 1.171 6.601 2.863 1.971 1.637 2.987 4.015 4.45 6.057l3.071 4.813c.85 1.387 1.665 2.925 2.251 4.444.569 1.474.762 3.243 1.071 4.804.464 2.224 1.354 4.291 2.294 6.341l-1.605-.635c-.965-.382-1.928-.768-2.913-1.096.006-.113-.02-.229-.096-.323-.086-.091-.193-.135-.305-.165-.316-1.531-1.145-2.905-2.137-4.097-2.23-2.975-6.08-5.432-9.896-4.259-2.466.752-4.598 2.618-5.713 4.935-1.481 3.351 1.132 6.975 4.181 8.33 1.566.771 3.295 1.336 5.061 1.141 2.677-.211 5.324-1.299 7.063-3.394.241-.316.895-.94 1.272-1.517.163.085.353.139.505.222 1.115.611 2.394 1.062 3.581 1.514 2.049.781 2.821 3.233 3.448 5.117 1.057 2.997 2.003 6.034 3.246 8.962 1.251 2.948 1.92 6.093 2.359 9.255.022.159.052.317.074.475-.757-.671-1.595-1.249-2.508-1.692-1.264-.702-2.735-1.126-3.796-2.141-.49-.51-.793-1.154-1.079-1.792-.563-1.222-1.065-2.474-1.631-3.693-1.293-2.652-3.468-5.116-6.372-5.976-4.119-1.276-7.285 2.386-8.265 6.03-1.035 3.411 1.62 6.549 4.46 8.091 2.346 1.347 5.183 1.407 7.773.845 1.773-.39 3.381-1.307 4.939-2.196.972.671 2.07 1.126 3.121 1.657a11.63 11.63 0 0 1 3.639 2.653c.408 2.394.874 4.783.957 7.211.075 2.138-.05 4.279-.266 6.406l-.114 1.019c-.081.353-.115.8.252 1.003a.62.62 0 0 0 .894-.38c.056-.217.076-.455.107-.679.158-1.087.287-2.18.357-3.276.098-1.52.131-3.042.076-4.563-.157-3.074-.793-6.037-1.229-9.074-.344-2.395-.732-4.791-1.463-7.102a29.9 29.9 0 0 0-.466-1.375c.042-.067.085-.134.132-.198.88-1.104 1.71-2.246 2.572-3.362z" class="B"/><path d="M191.212 503.021c73.164 3.585 144.718-13.522 210.081-43.11s124.415-71.197 174.991-123.614c41.25-42.761 79.737-95.045 96.34-157.955 6.426-24.367 9.273-50.848 5.161-77.185-2.518-16.187-7.676-31.983-13.436-47.343-5.196-13.843-11.25-27.333-19.37-39.526-44.793-67.331-126.376-83.06-190.765-72.275-38.73 6.483-77.519 19.112-111.342 39.518-37.972 22.903-70.604 60.512-73.016 113.24-1.207 26.322 7.04 52.614 17.789 76.941 8.173 18.504 26.855 40.439 43.034 22.321 7.053-7.903 8.473-19.564 5.999-30.974-2.91-13.491-8.153-27.69-14.234-40.057-10.726-21.803-30.116-37.175-50.185-45.333-23.492-9.549-48.136-9.348-71.31-4.828-23.045 4.477-45.936 12.126-66.713 23.136-36.755 19.494-67.128 54.966-64.088 105.792.672 11.302 3.367 22.3 6.891 33.157 4.117 12.717 8.669 25.965 15.382 37.514 11.584 19.948 29.726 28.31 47.079 39.687 4.391 2.873 8.698 6.01 12.604 9.753 2.177 2.092 4.214 4.366 6.052 6.858-.029-.041 2.319 3.766 2.567 3.819-1.219-.252-4.776-20.025-2.986-8.168 1.927 12.739-.456 25.515-4.756 36.635-9.063 23.474-27.68 38.203-44.976 53.149-17.546 15.182-33.025 31.783-42.187 55.223-7.8 19.947-11.113 42.669-9.582 65.361 1.796 26.671 10.514 53.599 21.51 78.063 9.652 21.47 23.046 40.815 39.825 55.977 7.984 7.227 16.621 13.442 25.714 18.443 9.582 5.26 19.056 7.704 29.167 10.205.832.212-3.09-13.212-3.451-14.206-.893-2.503-3.465-12.445-6.314-13.149-20.209-5.007-41.19-18.178-57.442-33.481-7.71-7.268-14.776-15.442-20.988-24.373-3.01-4.329-5.8-8.816-8.324-13.492-1.276-2.359-2.448-4.753-3.6-7.17-.377-.785-.703-1.588-1.041-2.387.084.209.958 3.258.549 1.387-9.813-44.619-3.127-90.183 22.898-122.333 26.527-32.755 72.806-51.29 74.367-103.903.347-11.692-2.909-22.908-6.793-34.067s-8.189-23.628-15.94-32.822c-13.444-15.97-32.618-21.66-47.912-34.482-3.811-3.201-7.3-6.814-10.413-10.889s-5.188-9.948-8.358-13.852c.069.078 4.518 15.554 3.345 8.858-.22-1.26-.579-2.507-.824-3.758-.486-2.488-.881-5.005-1.184-7.503-.682-5.612-.94-11.246-.758-16.808.709-21.532 7.619-41.133 19.189-56.971 26.064-35.69 70.156-52.348 110.43-60.527s91.645-2.003 118.489 42.575c.355.59 1.41 3.107 1.935 3.387-1.237-.65-3.533-15.916-3.095-7.979.177 3.198.619 6.24.293 9.437-.544 5.294-2.409 10.202-5.257 14.189-5.312 7.441-13.883 11.058-22.682 7.411-4.601-1.909-8.585-5.542-11.869-9.746-1.546-1.965-2.96-4.092-4.224-6.286-.575-.99-1.06-2.229-1.697-3.147-2.503-3.671 1.603 7.768 1.262 3.781-.53-5.848-2.34-11.741-2.8-17.679-.539-6.689-.508-13.348.026-19.921 7.674-93.312 100.205-130.338 170.66-145.188 63.024-13.283 142.516-4.636 192.87 55.525 7.74 9.249 14.705 19.532 20.056 30.657.512 1.061 2.407 6.049 1.666 3.528-.536-1.779-2.48-8.117-1.146-2.959 1.42 5.5 2.561 11.026 3.338 16.623 3.471 24.931.744 49.752-5.295 72.825-15.079 57.711-48.816 106.589-85.5 147.288-45.009 49.953-98.367 90.423-155.783 121.192-59.177 31.728-123.511 54.206-190.847 60.119-15.849 1.386-31.814 1.781-47.878 1.147.758.034 4.775 24.496 8.82 24.7l-.02.024z" class="D"/><g clip-path="url(#B)" class="B"><path d="M82.706 250.197c.116-.136.238-.263.376-.378.045-.036.044-.016.085.018l.507.41c2.16 1.77 5.345 2.05 7.872.942 4.089-1.83 5.798-6.066 4.378-10.276-1.13-2.62-3.768-4.456-6.499-5.085-2.366-.331-4.826.468-6.802 1.753-2.917 1.834-2.927 6.019-1.45 8.801.417.827.932 1.628 1.533 2.327-.419.191-.781.541-1.078.891-.696.849-1.314 1.757-1.944 2.654a2.33 2.33 0 0 1-.171.259l-1.416-3.703c-.994-2.785-1.896-5.616-3.138-8.305-.267-.599-.553-1.189-.844-1.777.147-.452.182-.949.349-1.403.381-1.219.907-2.388 1.336-3.591.174-.444.339-.907.607-1.306 1.553.58 3.282.633 4.89.249 5.223-.916 7.048-6.964 5.756-11.561-1.549-6.222-5.538-8.278-11.263-5.133-2.183 1.111-3.512 3.412-3.803 5.802-.167 1.498.118 3.015.472 4.467.466 2.102 1.68 3.907 3.232 5.367-.725.778-1.843 3.717-2.291 5.665-.505-1.03-.991-2.07-1.379-3.152-.71-1.981-1.049-4.067-1.475-6.121-1.292-5.122.142-10.352.1-15.537.05-.082.082-.175.066-.282.247-.875.955-1.547 1.537-2.221.436-.504.931-.966 1.4-1.44.274-.277.435-.759.753-.98.543-.377.66-.023 1.27.124 1.312.318 3.103-.457 4.131-1.233 2.008-1.693 3.283-5.022 1.726-7.393-.829-1.127-2.25-1.811-3.631-1.897-1.502.007-2.819 1.035-3.685 2.193-1.043 1.395-1.003 2.747-1 4.406.001.48-.067 1.02.003 1.495.095.64.508.763.75 1.345.164.393-1.258 1.404-1.532 1.68-.357.359-1.933 1.676-1.894 2.198-.092-1.243-.237-2.482-.449-3.71-.565-3.111-1.067-6.256-2.058-9.266-.695-2.13-1.718-4.127-2.685-6.142.068-.01.137-.018.199-.058l.091.083c.02.015.097.041.111.056.425.932 1.319 1.568 2.261 1.912 3.74 1.674 8.382-1.269 8.981-5.205.205-1.508-.206-3.069-.999-4.357-2.511-3.716-6.355-4.129-9.449-.819-.883.944-1.338 2.291-1.523 3.546-.109.74-.439 2.983.104 3.586-.063.107-.147.18-.229.275-.929-2.019-1.802-4.064-2.503-6.173l-.267-.767a1.66 1.66 0 0 0 .124-.296c.683-1.605 1.27-3.247 1.73-4.929a12.55 12.55 0 0 1 .407-1.265c.013-.008.084.015.099.017 2.55.43 4.981-1.162 6.189-3.345 1.034-1.678 1.553-3.904.771-5.78-.835-1.825-2.749-3.223-4.761-3.356-1.317-.048-2.568.598-3.447 1.554-1.48 1.419-2.817 3.271-2.826 5.402-.07 2.164 1.725 3.629 3.197 4.932-.69 1.693-1.042 3.521-1.688 5.237l-.216.624-1.23-3.527c-.62-1.791-1.192-3.654-1.111-5.569.212-5.097 1.915-9.996 3.955-14.623a29.36 29.36 0 0 1 .762-1.669c.186-.041.365-.164.535-.253.599-.32 1.221-.593 1.84-.87 1.47-.601 3.007-1.035 4.491-1.605 1.04-.357 2.09-.851 3.205-.875.614.131.98.762 1.484 1.102 1.266 1.011 2.684 1.87 4.266 2.267 5.322 1.687 8.795-4.299 6.472-8.809-.926-2.03-1.919-3.238-4.305-3.151-2.927.231-5.758 1.92-7.277 4.449-.488.875-1.016 1.831-.936 2.864a1.9 1.9 0 0 0 .03.238c.011.028-.004.034-.044.02-.569.02-1.121.164-1.664.321-2.463.802-4.951 1.586-7.277 2.737a33.97 33.97 0 0 1 3.345-4.947c2.29-3.014 5.035-5.638 8.001-7.978 2.203-1.794 4.519-3.442 6.965-4.887 1.591-.895 3.162-1.989 4.973-2.362.042-.009.083-.006.124-.002.03.084.068.166.135.234.116 1.865.792 4.15 2.662 4.985 1.56.537 3.337.633 4.899.049 1.433-.666 2.272-3.174 2.335-4.667.131-1.91-1.409-3.286-2.832-4.297-1.986-1.394-4.731-.416-6.147 1.35-.242.282-.661.818-.907 1.353-2.273-.315-9.36 4.45-11.2 5.827.017-.579-.136-1.165-.396-1.678-.027-.053-.029-.035.017-.064.702-.436 1.358-.939 1.969-1.495 1.491-1.302 3.93-4.215 3.804-6.266-.227-1.64-1.807-2.657-3.254-3.168-2.232-.632-4.726.57-5.93 2.494-1.896 3.098-.662 4.942 1.378 7.438.64.858 1.471 1.751 1.425 2.894.018.23-.1.482-.134.71-1.793 1.388-3.558 2.817-5.176 4.405.209-.322.408-.65.576-.997.845-1.796 1.374-4.193.688-6.109-.553-1.41-1.507-2.683-2.682-3.635-.989-.729-2.285-.992-3.496-.945-2.596.351-4.873 2.751-5.011 5.385-.06 2.077 1.008 4.285 2.814 5.36.899.535 1.864.891 2.841 1.252.923.34 1.903 1.009 2.879.966-.924 1.037-1.801 2.186-2.669 3.283-.495.625-.975 1.263-1.433 1.916-.316.45-1.274 1.456-1.305 2.004.136-2.404-1.097-4.817-3.337-5.871-1.224-.661-2.595-1.205-4.007-1.121-1.932.06-3.497 1.588-4.089 3.355-.668 2.125 1.078 4.175 2.807 5.194 2.115 1.066 4.571 1.38 6.915 1.429-.047.141-.129.272-.157.418a.42.42 0 0 0 .03.215c-2.32 5.026-4.071 10.393-4.243 15.942-.01 1.366.235 2.687.596 3.985l-.589-.678c-.221-.541-.402-1.097-.541-1.66-.455-1.779-1.285-3.426-1.819-5.178-.914-3.235-2.085-6.387-3.042-9.607-.028-.075-.054-.152-.087-.224.162-.667-.01-1.769-.029-2.161-.254-2.641-1.754-5.353-4.344-6.292-1.309-.561-2.759-.715-4.147-.386-.939.123-1.834.55-2.444 1.288-1.023 1.305-1.513 3.018-1.466 4.666.158 1.15.79 2.211 1.649 2.98 1.677 1.504 4.05 1.928 6.236 1.746 1.369-.089 2.812-.333 3.817-1.344.023.007.035-.003.056.003a2.16 2.16 0 0 1 .018.064c.55 2.528 1.408 4.968 2.146 7.444.492 1.817 1.104 3.597 1.847 5.329.261.647.459 1.318.665 1.986-.202-.659-2.493-1.451-3.095-1.694-.636-.257-1.327-.272-1.659-.917-.302-.588-.188-1.705-.476-2.402-.772-1.864-2.309-3.334-3.969-4.423-6.922-4.711-14.558 1.948-7.308 8.096 2.054 1.712 4.874 2.246 7.484 1.972 1.509-.122 2.783-1.073 3.69-2.259 2.033.7 4.02 1.677 5.647 3.1.119.102.226.216.335.328.635 1.378 1.497 2.666 2.599 3.715.314.855.628 1.708.902 2.564.233.71.498 1.408.752 2.111a61.86 61.86 0 0 0-3.232-2.155c-.349-.218-.711-.423-1.04-.666.578-1.018-1.895-2.813-2.57-3.308a9.16 9.16 0 0 0-3.473-1.622c-1.539-.257-3.047.497-4.282 1.347-2.994 1.979-1.45 4.928 1.218 6.245 1.659.842 3.552 1.443 5.425 1.107 1.474-.269 3.035-1.27 3.388-2.752 1.533 1.052 3.104 2.046 4.66 3.064.143.099.308.233.478.304.413 1.059.848 2.11 1.32 3.144.957 2.213 2.138 4.327 3.004 6.579.709 1.831 1.172 3.736 1.56 5.658-.157-.191-.302-.392-.469-.574-1.351-1.347-2.762-2.626-4.422-3.578-.049-.027-.099-.057-.132-.103-.041-.057-.048-.131-.053-.202-.167-2.081-1.144-3.813-2.632-5.283-1.07-1.057-2.168-2.092-3.366-3.004-1.841-1.403-4.427-1.149-6.37-.088-1.789.88-3.132 2.225-2.55 4.36.771 2.98 3.472 4.935 6.034 6.353 1.785.946 3.984 1.295 5.908.585 1.157-.408 2.059-1.12 2.564-2.027 1.742 1.424 3.561 2.827 5.02 4.56.35.39.59.874.906 1.285l.211 1.171c.451 2.359.773 4.75.751 7.156-.09 3.576-.618 7.131-.548 10.714.002.11.011.219.014.33-.627-1.107-1.222-2.23-1.9-3.306-1.01-1.555-1.942-3.158-3.022-4.667-.972-1.438-1.731-3.041-2.985-4.269-2.052-2.403-4.707-2.96-7.382-3.853.283-.376.071-1.26.059-1.667-.299-3.394-2.694-6.156-5.567-7.783-1.344-.826-2.739-1.704-4.348-1.838-4.308-.014-8.339 3.338-9.081 7.596-.587 2.951 1.038 6.01 3.372 7.759 2.474 1.547 6.333 1.777 9.028.703 2.246-.703 4.038-2.254 5.591-3.977 2.255.881 4.81 1.181 6.635 2.885 1.981 1.649 3.003 4.045 4.474 6.101l3.088 4.849c.854 1.397 1.674 2.946 2.263 4.477.572 1.484.766 3.265 1.077 4.838.466 2.24 1.361 4.322 2.307 6.387l-1.613-.64c-.97-.385-1.938-.773-2.928-1.104a.47.47 0 0 0-.097-.326c-.087-.091-.194-.136-.307-.166-.318-1.542-1.151-2.926-2.149-4.127-2.242-2.997-6.112-5.472-9.946-4.291-2.478.756-4.62 2.635-5.74 4.969-1.488 3.375 1.139 7.025 4.204 8.39 1.574.778 3.312 1.347 5.087 1.151 2.691-.212 5.35-1.308 7.098-3.417.242-.318.899-.947 1.278-1.527.163.085.355.14.508.223 1.121.615 2.406 1.07 3.599 1.526 2.06.787 2.836 3.257 3.466 5.155 1.063 3.018 2.014 6.077 3.264 9.026 1.258 2.97 1.931 6.138 2.373 9.323.022.159.052.318.075.478-.761-.676-1.603-1.258-2.52-1.705-1.27-.707-2.749-1.134-3.816-2.157-.493-.513-.797-1.162-1.085-1.805-.566-1.231-1.07-2.492-1.64-3.72-1.3-2.671-3.486-5.154-6.405-6.02-4.14-1.287-7.321 2.401-8.305 6.072-1.04 3.434 1.629 6.596 4.484 8.15 2.358 1.357 5.209 1.418 7.812.852 1.782-.392 3.397-1.316 4.964-2.211.978.677 2.081 1.135 3.137 1.67a11.69 11.69 0 0 1 3.657 2.673c.411 2.411.88 4.817.964 7.263.075 2.153-.049 4.31-.266 6.452l-.114 1.026c-.082.355-.115.806.253 1.011.336.202.811-.003.898-.383.056-.219.076-.458.107-.683.159-1.096.288-2.196.358-3.3.098-1.531.131-3.064.076-4.596-.159-3.096-.799-6.081-1.237-9.14-.346-2.412-.737-4.825-1.472-7.153a29.8 29.8 0 0 0-.468-1.385c.043-.068.086-.135.133-.2.884-1.111 1.718-2.261 2.584-3.385z"/></g><g class="B"><path d="M315.893 280.404c-.112-.209-.231-.406-.37-.585-.045-.055-.047-.024-.097.027l-.618.61c-2.634 2.637-6.22 2.985-8.895 1.239-4.324-2.88-5.686-9.36-3.565-15.722 1.595-3.955 4.771-6.681 7.895-7.571 2.68-.445 5.319.83 7.358 2.83 3.017 2.859 2.492 9.22.489 13.412-.571 1.247-1.247 2.45-2.006 3.499.442.3.8.841 1.087 1.38.667 1.306 1.241 2.702 1.828 4.081.039.124.095.258.157.397l2.053-5.593c1.464-4.209 2.832-8.488 4.561-12.545a97.14 97.14 0 0 1 1.168-2.679c-.105-.691-.082-1.447-.209-2.142-.269-1.862-.706-3.65-1.03-5.489-.138-.679-.262-1.387-.51-1.999a7.14 7.14 0 0 1-5.483.258c-5.704-1.519-6.964-10.755-4.936-17.709 2.523-9.418 7.233-12.446 13.211-7.526 2.292 1.741 3.478 5.27 3.497 8.91-.006 2.28-.518 4.579-1.099 6.776-.788 3.184-2.372 5.897-4.289 8.079.709 1.2 1.578 5.692 1.828 8.665.696-1.554 1.369-3.122 1.94-4.757 1.045-2.994 1.69-6.156 2.428-9.266 2.096-7.753 1.167-15.736 1.878-23.615a.78.78 0 0 1-.038-.43c-.163-1.336-.866-2.374-1.428-3.412-.422-.778-.914-1.492-1.377-2.223-.269-.427-.388-1.165-.714-1.508-.557-.586-.732-.051-1.431.158-1.503.451-3.4-.771-4.446-1.974-2.022-2.623-3.017-7.713-.979-11.279 1.069-1.692 2.74-2.697 4.291-2.793 1.673.046 3.01 1.642 3.827 3.422.984 2.145.767 4.199.55 6.719-.063.731-.055 1.552-.195 2.273-.187.97-.663 1.147-1.008 2.026-.233.593 1.223 2.164 1.492 2.59.352.555 1.941 2.594 1.83 3.387.262-1.887.583-3.766.976-5.628 1.028-4.714 1.99-9.48 3.481-14.03 1.047-3.221 2.443-6.23 3.778-9.269-.074-.018-.15-.031-.214-.093l-.112.124c-.024.021-.113.059-.131.082-.593 1.405-1.671 2.35-2.765 2.851-4.383 2.452-9.181-2.133-9.345-8.129-.035-2.298.622-4.661 1.672-6.599 3.275-5.586 7.611-6.119 10.637-1.014.864 1.457 1.198 3.515 1.244 5.427.027 1.126.108 4.544-.575 5.448.056.163.141.276.22.422 1.293-3.045 2.529-6.131 3.579-9.319l.397-1.16a2.82 2.82 0 0 1-.101-.453c-.556-2.455-1.001-4.964-1.298-7.533-.08-.651-.161-1.308-.292-1.932-.013-.012-.095.02-.113.024-2.897.591-5.404-1.888-6.471-5.234-.937-2.577-1.231-5.971-.119-8.804 1.165-2.753 3.477-4.83 5.737-4.984 1.474-.041 2.786.972 3.643 2.446 1.468 2.193 2.721 5.039 2.458 8.279-.198 3.289-2.387 5.473-4.195 7.417.553 2.589.711 5.376 1.212 8l.161.954 1.822-5.331c.919-2.706 1.796-5.524 1.951-8.436.416-7.75-.856-15.237-2.537-22.32-.186-.869-.41-1.712-.636-2.554-.202-.068-.386-.258-.564-.399-.626-.499-1.285-.93-1.94-1.366-1.562-.949-3.219-1.647-4.8-2.549-1.114-.567-2.22-1.343-3.46-1.408-.702.185-1.191 1.135-1.796 1.639-1.54 1.505-3.231 2.776-5.045 3.342-6.148 2.433-9.253-6.749-6.086-13.546 1.292-3.063 2.554-4.874 5.202-4.684 3.233.423 6.172 3.058 7.541 6.94.432 1.34.899 2.806.677 4.374-.016.123-.038.243-.064.362-.015.041 0 .051.047.03.631.045 1.228.278 1.814.529 2.642 1.28 5.315 2.531 7.761 4.337-.857-2.668-1.887-5.214-3.095-7.6-2.167-4.636-4.891-8.691-7.898-12.318-2.226-2.781-4.597-5.342-7.138-7.598-1.659-1.398-3.27-3.099-5.241-3.71-.046-.016-.092-.012-.138-.007-.044.128-.097.25-.181.353-.368 2.831-1.414 6.287-3.606 7.51-1.808.778-3.801.881-5.466-.045-1.512-1.046-2.127-4.879-2.006-7.149.099-2.906 1.991-4.96 3.708-6.461 2.391-2.07 5.326-.517 6.679 2.202.233.435.632 1.258.838 2.078 2.574-.424 9.864 6.991 11.739 9.128.055-.88.301-1.766.656-2.54.037-.08.038-.052-.01-.097-.727-.681-1.394-1.461-2.003-2.321-1.495-2.016-3.842-6.501-3.438-9.615.463-2.487 2.354-3.993 4.033-4.735 2.568-.906 5.194.982 6.29 3.935 1.717 4.755.105 7.526-2.487 11.27-.823 1.288-1.864 2.624-1.959 4.364-.049.347.049.734.058 1.082 1.821 2.153 3.606 4.367 5.206 6.82-.191-.494-.372-.997-.515-1.53-.712-2.749-.994-6.405.015-9.301.797-2.129 2.024-4.04 3.455-5.458 1.196-1.084 2.674-1.452 4.018-1.35 2.849.595 5.079 4.299 4.897 8.305-.2 3.159-1.672 6.488-3.823 8.077-1.07.791-2.192 1.309-3.327 1.833-1.073.495-2.25 1.488-3.333 1.399.897 1.598 1.728 3.365 2.555 5.053.472.963.925 1.944 1.351 2.948.295.692 1.234 2.243 1.198 3.076.157-3.656 1.84-7.293 4.472-8.841 1.448-.974 3.047-1.768 4.61-1.605 2.145.138 3.694 2.499 4.128 5.199.473 3.246-1.737 6.318-3.794 7.825-2.494 1.568-5.272 1.986-7.891 2.002.034.215.109.417.122.639.003.115-.024.224-.061.326 1.942 7.696 3.207 15.895 2.689 24.332-.164 2.076-.606 4.077-1.174 6.042l.743-1.017c.316-.816.589-1.658.816-2.51.734-2.691 1.871-5.174 2.69-7.825 1.433-4.893 3.142-9.655 4.621-14.525.041-.113.079-.23.125-.337-.095-1.018.238-2.689.309-3.284.621-4.008 2.641-8.093 5.648-9.457 1.531-.82 3.167-1.019 4.672-.486 1.031.211 1.973.881 2.559 2.018.974 2.008 1.3 4.624 1.037 7.127-.323 1.744-1.163 3.341-2.219 4.489-2.062 2.244-4.762 2.831-7.175 2.501-1.515-.169-3.092-.575-4.083-2.136-.026.01-.039-.005-.063.003l-.029.097c-.937 3.828-2.205 7.515-3.346 11.26-.781 2.75-1.691 5.44-2.74 8.053-.375.978-.681 1.993-.996 3.003.31-.996 2.965-2.144 3.667-2.499.742-.375 1.514-.381 1.967-1.354.412-.885.428-2.586.838-3.637 1.099-2.815 3.001-5.011 4.991-6.626 8.319-6.99 15.978 3.316 7.11 12.482-2.509 2.552-5.721 3.294-8.595 2.815-1.667-.223-2.965-1.698-3.824-3.524-2.356 1.015-4.696 2.451-6.692 4.574-.146.151-.28.322-.415.491-.885 2.078-2.01 4.015-3.372 5.581l-1.333 3.875c-.351 1.073-.735 2.128-1.109 3.189 1.271-1.118 2.567-2.181 3.879-3.196.416-.322.846-.625 1.244-.986-.513-1.561 2.472-4.229 3.289-4.965 1.242-1.149 2.648-1.982 4.079-2.38 1.749-.352 3.333.829 4.6 2.152 3.084 3.08.986 7.523-2.157 9.461-1.957 1.239-4.144 2.106-6.189 1.549-1.608-.444-3.22-2.004-3.424-4.264-1.843 1.562-3.721 3.034-5.587 4.542-.172.148-.373.347-.572.451-.596 1.599-1.215 3.185-1.874 4.746-1.349 3.34-2.936 6.524-4.19 9.924-1.025 2.766-1.785 5.65-2.463 8.561.199-.287.386-.589.596-.861 1.678-2.014 3.415-3.924 5.387-5.329.058-.041.117-.085.16-.153.053-.087.07-.199.086-.306.452-3.16 1.764-5.768 3.61-7.965 1.329-1.581 2.684-3.127 4.137-4.484 2.231-2.086 5.081-1.637 7.111.022 1.881 1.382 3.206 3.459 2.285 6.689-1.241 4.51-4.503 7.415-7.539 9.507-2.112 1.395-4.607 1.871-6.661.745-1.238-.648-2.152-1.752-2.599-3.143-2.125 2.122-4.332 4.209-6.18 6.807-.44.584-.769 1.315-1.175 1.931l-.385 1.775c-.805 3.574-1.47 7.199-1.753 10.856-.358 5.437-.223 10.853-.76 16.296-.016.168-.041.334-.058.501.84-1.666 1.647-3.359 2.541-4.978 1.325-2.337 2.569-4.751 3.966-7.018 1.268-2.162 2.319-4.579 3.873-6.415 2.595-3.602 5.626-4.383 8.721-5.675-.267-.579.082-1.918.148-2.535.767-5.151 3.79-9.291 7.202-11.692 1.604-1.222 3.27-2.523 5.081-2.688 4.805.084 8.868 5.277 9.15 11.766.277 4.499-1.926 9.108-4.751 11.71-2.956 2.29-7.287 2.545-10.153.846-2.414-1.122-4.213-3.523-5.723-6.18-2.626 1.284-5.513 1.678-7.766 4.224-2.419 2.457-3.865 6.073-5.768 9.162l-4.062 7.293c-1.131 2.102-2.243 4.438-3.096 6.749-.828 2.242-1.272 4.944-1.82 7.327-.807 3.392-2.071 6.534-3.39 9.65.629-.3 1.256-.613 1.88-.933 1.13-.562 2.259-1.128 3.405-1.607.008-.173.051-.351.15-.492.108-.138.233-.202.363-.246.552-2.335 1.658-4.418 2.923-6.219 2.883-4.5 7.513-8.167 11.637-6.279 2.665 1.21 4.813 4.117 5.762 7.692 1.227 5.165-2.169 10.648-5.76 12.648-1.854 1.144-3.864 1.966-5.817 1.625-2.972-.388-5.796-2.118-7.475-5.367-.229-.489-.881-1.46-1.229-2.351-.193.125-.414.203-.595.327-1.328.907-2.819 1.567-4.207 2.23-2.397 1.147-3.578 4.881-4.524 7.75-1.571 4.561-3.023 9.187-4.794 13.638-1.782 4.483-2.938 9.28-3.838 14.11-.044.242-.098.483-.145.725.935-1.009 1.949-1.873 3.028-2.53 1.507-1.043 3.21-1.656 4.53-3.185.615-.768 1.037-1.746 1.44-2.717l2.304-5.613c1.791-4.028 4.546-7.747 7.911-8.993 4.779-1.854 7.853 3.828 8.48 9.431.72 5.245-2.66 9.984-6.041 12.276-2.802 2.005-5.988 2.028-8.817 1.105-1.937-.64-3.619-2.083-5.25-3.481-1.177 1.004-2.465 1.674-3.711 2.46-1.617.947-3.129 2.296-4.419 3.974-.766 3.654-1.597 7.299-2.004 11.015-.359 3.27-.497 6.55-.53 9.811l-.004 1.562c.046.542.026 1.228-.411 1.53-.401.298-.904-.024-.952-.603-.035-.335-.026-.699-.032-1.042-.037-1.668-.04-3.344.023-5.024a95.91 95.91 0 0 1 .504-6.986c.574-4.701 1.668-9.221 2.549-13.86.694-3.657 1.439-7.315 2.556-10.835a62.59 62.59 0 0 1 .699-2.093c-.038-.104-.078-.208-.122-.307-.843-1.71-1.626-3.478-2.448-5.207zm-20.012-37.477c-.136.023-.267.086-.398.136l-1.022.483c-.985.525-1.663 1.478-2.088 2.491l-.149.447-.027-.551-.524-6.934c2.201-.221 3.697-2.4 3.946-4.488.076-.601.108-1.207.131-1.813.058-.913.086-1.686-1.031-1.003-.687.416-1.351.886-1.907 1.469a8.54 8.54 0 0 0-1.582 2.604l-.38-2.075-.768-3.128c.574-.163 1.184-.764 1.563-1.162.927-.962 1.334-2.282 1.56-3.575.126-.714.145-1.437.172-2.165l.009-.289c-.036-.272-.294-.281-.488-.163-.534.217-1.058.461-1.546.768-1.388.936-1.727 2.712-1.844 4.281l-1.108-4.66-.56-1.881c.013-.009.027-.013.036-.022.248-.208.474-.448.687-.692 1.035-1.067 1.586-2.513 1.772-3.977.031-.629.343-1.808-.71-1.189-1.071.488-2.02 1.284-2.486 2.382a4.96 4.96 0 0 0-.262.732l-.954-2.522c.018-.036.032-.081.032-.131l.479-2.708.068-.465.149-.063c.059-.037.117-.082.167-.127.032-.005.059-.009.091-.023 1.021-.65 1.988-1.78 2.128-3.019.041-.583-.14-1.157-.461-1.641-.406-.755-.994-1.075-1.835-1.13-1.261-.176-2.386.972-2.418 2.202.005 1.17.701 2.196 1.252 3.186a5.54 5.54 0 0 0 .344.47c0 .009-.005.014 0 .023.004.04.022.077.045.108l-.059.294c-.154.696-.258 1.406-.325 2.115.033-.351-.395-1.042-.525-1.377l-.592-1.481-1.336-3.031-1.459-2.834c-.167-.298-.448-.529-.233-.852.162-.243.874-.412 1.162-.481 1.205-.288 2.636-.252 3.873-.303l.425-.014c.009.009.009.032.014.041.461 1.469 1.478 2.838 2.933 3.435 1.406.538 3.318-.009 4.136-1.297.574-1.094.217-2.459-.615-3.318-.741-.881-1.993-.985-3.074-.976-.967.045-3.313.384-3.335 1.636-1.456-.113-2.911.117-4.358.294l-.772.104.14-.244c.519-.895 1.112-1.75 1.731-2.581l.217-.281 1.699-.528 3.345-.954c.515.705 1.216 1.284 1.993 1.672.502.294 1.045.516 1.619.62.406.072.831.099 1.238.013a5.2 5.2 0 0 0 2.075-1.153c.669-.678 1.401-2.079.985-3.023a2.44 2.44 0 0 0-1.103-1.329c-.709-.434-1.532-.719-2.373-.665-.967.032-1.844.507-2.603 1.072-.769.565-1.528 1.283-1.713 2.26.004.072-.095.049-.163.067l-1.822.366-2.572.859-.063.027 1.117-1.469c.302-.42.65-.818.895-1.279.045-.108.049-.23.036-.348 0-.013.004-.013.022-.009 1.234-.208 2.572-.14 3.68-.813 1.315-.814 2.169-2.265 2.025-3.833-.05-1.817-1.614-2.473-3.223-2.346-1.542.095-2.676 1.455-2.97 2.892-.212 1.045-.28 2.125-.203 3.187.022.362.113.714.158 1.071 0 .032-.014.041-.036.073-1.343 1.821-2.898 3.498-4.023 5.473.158-.863.181-1.767-.086-2.608-.108-.465-.47-.836-.538-1.306.032-.529.339-.999.493-1.496.19-.533.321-1.089.307-1.654 0-1.225-1.478-2.473-2.648-2.518-.841.004-1.451.75-1.827 1.428-.587 1.026-.397 2.428.633 3.087.335.245.705.425 1.067.624.524.28.963.696 1.483.981.637 1.13.736 2.138.524 3.408l-.339 1.65c-.014.045-.023.095-.032.145l-.438-.719-1.844-2.812c-1.065-2.128-2.992-3.7-4.086-5.794-.027-.052-.055-.107-.049-.166.007-.071.061-.126.112-.176.78-.758 1.326-1.518 2.304-2.04.734-.392 1.494-.732 2.262-1.053l1.158-.467c.55-.191.589-.039 1.111.173.592.244 1.243.325 1.88.294.89-.023 1.826-.208 2.468-.877.718-.796 1.103-2.125.592-3.119-.723-1.324-2.671-1.428-3.914-.845-1.325.578-2.767 1.875-2.392 3.462-.018.054-.031.108-.018.167-.004.018.005.009-.018.018l-.673.312-3.032 1.608c-.836.475-1.581 1.266-2.306 1.859-.1.081-.208.167-.335.163-.104-.005-.199-.073-.28-.14-.886-.705-1.564-1.542-2.201-2.473.026-.597-.333-2.212.087-2.642.138-.14.323-.222.49-.326 1.924-1.196 2.005-4.507.502-6.01-1.056-.982-2.768-1.105-3.995-.378-.56.366-.971.944-1.243 1.555-.343.804-.361 1.767 0 2.567.728 1.275 2.043 2.165 3.35 2.775-.009.064.013.131.054.186.018.027.032.022.032.054l.063 1.767c.004.045.004.095.004.14l-2.689-2.097-1.907-1.451c-.005-.081-.019-.163-.037-.239-.153-.76-.203-1.542-.307-2.315-.113-1.234-.75-2.359-1.659-3.191-.624-.596-1.415-1.152-2.314-1.08-1.691.145-2.269 1.731-1.813 3.205.425 1.396 1.325 2.784 2.708 3.367.877.389 1.858.348 2.762.628.058.009.117-.004.171-.031l2.789 2.282 2.111 1.844-2.061-.18-2.016-.267c-.683-.036-1.365-.113-2.048-.009a8.11 8.11 0 0 0-1.735-3.426c-.836-.954-1.876-2.021-3.223-2.07-1.785.104-3.214 1.934-3.141 3.674.212 1.533 1.83 2.459 3.123 3.033.804.344 1.69.204 2.504-.04.75-.235 1.627-.281 2.269-.76.226.063.493-.031.732-.018.678-.018 1.361.036 2.034.113l1.844.303 1.885.117.384.028c.918.858 1.799 1.753 2.618 2.707l1.139 1.424-.059-.023c-2.31-.938-4.628-1.102-7.059-1.507-1.887-.272-3.819-.169-5.692.26-.036.004-.018.009-.045-.032-.104-.185-.249-.352-.403-.506-1.107-1.089-2.847-1.469-4.325-1.022-1.442.421-2.694 1.722-2.78 3.259-.023.959.773 1.695 1.582 2.075 1.306.673 2.432.032 3.485-.768.963-.697 1.785-1.582 2.631-2.41.307-.301 1.983-.246 2.432-.276.649-.043 1.236.037 1.868.092l4.5.456c1.102.194 2.201.429 3.263.787 1.398.47 2.067 1.629 2.888 2.797l2.857 4.335-1.266-.244-4.226-.402c-1.871-.118-3.747-.208-5.618-.045-.687.049-1.365.158-2.048.266-.61.05-1.378.271-1.835-.257-.547-.516-1.112-1.036-1.812-1.329-1.13-.52-2.401-.385-3.562-.059-1.207.298-2.658 1.189-3.34 2.237-.588 1.09-.462 2.509.131 3.571.465.687 1.175 1.216 1.925 1.555 1.361.57 2.699-.118 3.878-.786.737-.398 1.311-1.013 1.908-1.592.293-.283.779-.633.99-.972.215-.346.062-.761.256-1.117.544-.99 2.73-.834 3.657-.894 1.465-.095 2.934-.058 4.398.027l6.604.602.326.045c1.478 2.472 2.662 5.103 3.715 7.783-.999-.276-2.043-.307-3.065-.434l-.768-.063c-.009-.014-.023-.023-.032-.036l-1.423-1.763c.012.019.774-1.733.803-1.964.083-.651-.162-1.19-.618-1.666-.629-.658-1.05-1.164-1.948-1.387-.696-.171-1.501-.248-2.093.231-.981.664-1.374 2.106-.809 3.159.38.647.909 1.239 1.618 1.524.348.153.723.226 1.094.307.506.099 1.022.276 1.546.226.303.465.646.899 1.044 1.284.014.013.027.031.045.045-.403-.302-2.058.049-2.544.117-1.133.158-1.973.292-3.091-.036-1.958-.574-3.578-.003-4.937 1.478-.818.873-1.41 2.057-1.021 3.259.221.936.868 1.776 1.776 2.124 1.099.425 2.418.249 3.399-.388.656-.443 1.148-1.09 1.569-1.749.827-1.406.904-2.161.913-3.752 1.157-.231 2.337-.393 3.521-.38l3.195.19.746.054c-1.279 1.189-2.567 2.387-3.534 3.847-.38-.145-.805-.077-1.194-.005-1.17.213-2.364.611-3.177 1.528-.556.619-.959 1.406-1.072 2.233-.054.592-.131 1.207-.022 1.799.212.877.868 1.695 1.713 2.029.782.24 1.681.254 2.445-.045.859-.384 1.632-.999 2.17-1.772.61-.967.881-2.156.827-3.295-.113-.764-.551-1.631-1.139-2.138-.009-.013-.054-.027-.023-.04l.597-.674 2.843-3.186c.095-.068.136-.141.149-.208l.728.135.628 1.664 1.921 5.27.425 1.514c-.732-.691-1.51-1.152-2.63-1.351-.543-.1-1.09-.118-1.637-.073-.379 0-.556.213-.416.574.358.968.782 1.939 1.415 2.758.954 1.31 2.522 1.455 4.014 1.523l.371 1.88 1.206 5.727.782 7.101c-.144-.28-.307-.552-.501-.805-.891-1.112-2.034-1.966-3.232-2.721-.285-.14-.759-.61-1.058-.321-.185.213-.09.534-.099.791.068 1.063.181 2.134.524 3.151.651 1.943 2.617 3.254 4.543 3.738l.176 4.583.032 5.668-.068-.167c-.922-2.256-2.785-4.818-5.411-5.008-.194-.023-.425-.131-.574.04-.18.245.027.593.073.859l.42 1.668c.384 1.451 1.053 2.961 2.405 3.743.822.447 1.695.849 2.617 1.035a4.61 4.61 0 0 0 .488.036l-.172 3.345-.669 7.155-.361 3.024c-.122.068-.141.239-.055.343.136.199.443.299.633.122.1-.104.131-.253.158-.393l.168-.773 1.13-5.713c.605-3.363.867-6.789.922-10.202a122.59 122.59 0 0 0 .009-4.068c.004.005.013.009.022.009.213.027.38-.144.561-.239.47-.276.963-.511 1.424-.805.822-.47 1.306-1.274 1.496-2.192.303-1.243.221-2.536.334-3.806.054-.236-.05-.493-.325-.471z"/><g class="C"><path d="M150.635 120.217c2.021.809 4.14 1.337 6.299 1.608 1.545.166-2.446 3.271-2.839 3.562-.801.568-1.633 1.115-2.543 1.489-1.121.432-2.319.651-3.502.84-.814.121-1.638.137-2.457.079-1.432-.055-2.861-.286-4.165-.906l-1.023-.482c-1.23-.568-2.468-1.141-3.497-2.03l-.149-.127-.101-.088-.532.401c-.454.33-.953.581-1.453.832l-1.202.66c-1.704.947-2.911 2.483-3.991 4.074l-.388.991-.408 1.04c-.44 1.091-.937 2.166-1.619 3.129l-.108.148c-.12.164-.239.328-.384.467-.016.012-.033.019-.051.027-.01.003-.019.007-.029.012-.997 1.84-2.146 3.61-3.59 5.132l-2.973 2.822-1.757 1.627c-2.012 1.868-4.324 3.398-6.815 4.548l-.821.413-2.689 1.354 2.484-2.613 3.262-1.801c1.945-1.217 3.647-2.765 5.333-4.309l.968-.866c1.328-1.179 2.658-2.36 3.726-3.787.807-1.028 1.529-2.119 2.24-3.216.018-.04.04-.079.062-.118l.025-.162c.04-.263.08-.527.168-.779a6.17 6.17 0 0 0 .377-1.809l.012-.68c.023-1.073.046-2.155-.167-3.207l-.485-2.254-.125-.65c-.089-.442-.211-.877-.333-1.311l-.393-1.64c-.094-.597-.144-1.202-.123-1.806-.056-.037-.108-.079-.15-.125-.272-.259-.536-.533-.763-.832-.694-.933-1.351-1.954-1.506-3.13-.091-.669-.066-1.352-.035-2.026.043-1.012.136-2.031.475-2.992.718-2.331 2.364-4.195 3.979-5.963l.657-.689c1.15-1.203 2.303-2.409 3.258-3.776l.063-.087c.141-.191.282-.383.453-.547.371-.302.667-.103.636.373.009.337-.01.673-.028 1.01l-.027 1.006c.095.7.368 1.351.641 2.002l.543 1.5.104.368c.235.825.473 1.661.506 2.518-.024 1.172-.055 2.435-.765 3.422-1.274 1.768-2.936 3.213-4.664 4.523l-.842.683-2.014 1.732c.003.006.007.011.011.017s.015.021.017.034c.003.041-.013.077-.029.113s-.034.078-.028.124c-.018.473.018.95.075 1.42.091.829.32 1.627.549 2.425l.513 2.138.269 1.509.244 1.346c.083.627.09 1.26.089 1.891l-.001.231-.111 2.155.485-1.075.779-1.966 1.453-3.473 1.424-2.568.571-.986c.925-1.791 2.06-3.465 3.376-4.993l2.833-3.075.207-.174.083-.068.046-.097.065-.137.621-1.187.714-1.377c.276-.574.521-1.18.556-1.823.148-1.111-.19-2.072-.62-3.073-.294-.745-.525-1.513-.668-2.302l-.055-.276c-.149-.738-.299-1.482-.294-2.238.075-1.515.709-2.998 1.676-4.157 1.486-1.806 2.933-2.478 5.106-3.186l1.08-.339c.773-.231 1.548-.462 2.263-.839a1.4 1.4 0 0 0 .191-.115c.2-.134.419-.282.559-.019.042.08.007.171-.077.265a5.84 5.84 0 0 0-.106 1.306l.032.319c.11 1.101.221 2.208.072 3.311-.071.763-.154 1.532-.431 2.253-.224.56-.463 1.128-.818 1.619a13.27 13.27 0 0 1-2.513 2.459c-.451.357-.93.68-1.409 1.003-.818.552-1.637 1.104-2.316 1.824-.398.453-.803.922-1.068 1.468l-.032.075c-.028.063-.056.126-.064.195-.001.013-.007.024-.014.034-.017 1.414-.599 2.494-1.287 3.771l-.037.07-.167.323-.104.201.667-.437.365-.237 4.211-2.725 1.364-.842 2.067-1.228.064-.033.096-.129 1.078-1.446 1.329-1.814c.599-.85 1.078-1.772 1.544-2.699s.884-1.89 1.141-2.897c.166-.665.133-1.356.097-2.034l-.003-.042c-.025-.429-.051-.863-.184-1.274-.289-.91-.846-1.72-1.483-2.423-.374-.393-.782-.753-1.189-1.113l-1.298-1.228-1.146-1.402-.289-.37c-.602-.819-1.029-1.751-1.449-2.671-.496-1.011-.615-2.157-.471-3.265.071-.681.168-1.362.373-2.017l.85-3.082a7.29 7.29 0 0 1 .359-1.005l.001-.002c.045-.106.101-.24.238-.23.078.005.143.05.192.111.084.008.167.06.202.163l.018.048c.132.355.266.714.452 1.045.399.68 1.09 1.098 1.75 1.498l.115.07c1.052.606 2.03 1.353 2.853 2.249.525.698.985 1.453 1.422 2.21.641 1.151.93 2.448 1.166 3.733.316 1.574.354 3.189.16 4.781-.115.959-.318 1.907-.537 2.846-.116.422-.32.812-.522 1.198l-.011.02a12.21 12.21 0 0 1-.814 1.449c-.113.191-.226.382-.309.589-.005.016-.019.026-.028.039-.24 1.308-.841 2.533-1.428 3.728l-.209.427c-.622 1.313-1.52 2.443-2.418 3.572l-.681.865 4.002-2.25.183-.105c1.783-.893 3.36-2.124 4.811-3.484 2.344-2.208 4.616-4.572 6.211-7.393l.932-1.817c.051-.105.094-.214.136-.323l.018-.045c-.038-.079-.049-.169-.005-.246.005-.009.01-.015.014-.02s.011-.014.004-.03c-.177-.437-.416-.844-.655-1.25l-.262-.452c-.659-1.15-1.295-2.328-1.725-3.586a6.85 6.85 0 0 1-.321-1.361c-.056-.418-.017-.838.022-1.256l.04-.498c.044-.985.396-1.917.818-2.799 1.074-2.334 2.945-4.186 4.82-5.896l.157-.146 1.019-.901c.069-.063.148-.122.246-.121.328.035.408.448.471.773l.05.227.057.288.283 1.309c.151.633.372 1.245.593 1.857l.527 1.599c.254.913.361 1.857.385 2.803a7.45 7.45 0 0 1-.095 1.739c-.226 1.474-.64 2.928-1.415 4.213-.734 1.418-1.871 2.618-3.319 3.314-.388.236-.813.382-1.242.522-.501 1.371-1.172 2.681-1.954 3.913-1.751 2.685-4.054 4.967-6.469 7.056-1.227 1.083-2.614 1.957-4.051 2.731l-.521.308-1.686.986c.593.068 1.198.049 1.791.013 1.808-.207 3.626-.453 5.379-.95.814-.261 1.591-.62 2.352-1.006l.867-.437c.743-.367 1.488-.735 2.165-1.212l.392-.319.203-.17a1.85 1.85 0 0 0 .183-.149l.131-.111.028-.068.056-.15.322-.976c.246-1.201.631-2.376 1.194-3.468l.296-.529c.324-.583.648-1.167 1.055-1.694l.226-.262c.551-.638 1.106-1.281 1.784-1.786 1.666-1.255 3.582-2.135 5.585-2.697l5.141-1.183.8-.13 1.529-.274c.032 0 .057-.017.082-.034.018-.012.036-.025.057-.031.097-.034.207.004.268.085.087.122.009.243-.061.352l-.032.052-.043.075-.215.401a2.69 2.69 0 0 0-.102.243l-.107.253c-.087.149-.194.284-.301.419l-.296.409c-.124.18-.207.382-.29.583l-.094.221-.197.439-.54 1.257c-.218.608-.548 1.163-.898 1.703l-.518.831-.901 1.364c-.594.682-1.254 1.316-1.955 1.887a11 11 0 0 1-3.033 1.434l-2.894.727-1.854.274-1.158.157-2.039.42c-.064.013-.138.036-.217.061-.114.036-.238.075-.351.088l-.346.326-.395.371c-.607.527-1.326.896-2.04 1.262l-.545.284-.274.139-2.336 1.088c-.834.317-1.708.515-2.586.666-1.789.288-3.626.543-5.43.244-.144-.019-.283-.059-.422-.099l-.075-.021-1.267.677c-1.159.586-2.268 1.258-3.333 2l-2.502 1.611-1.591 1.071-.673.471-.594.377c-.586.367-1.173.735-1.695 1.193l-.725.741a12.06 12.06 0 0 1 1.217-.507c2.761-1.041 5.798-.667 8.625-.107l.064.012 1.201.189c.036.008.072.01.109.01l.074-.046c.43-.263.798-.609 1.164-.954l.267-.248c.515-.46.979-.975 1.443-1.49.708-.786 1.414-1.571 2.3-2.156 1.844-1.277 3.246-1.582 5.412-1.928l.479-.08 1.447-.186 1.926.031.272.013c1.46.069 3.088.146 4.392.824.212.11-.705.49-.725.496-.758.201-1.473.643-1.946 1.274-.236.369-.498.722-.806 1.034l-1.032 1.09-2.152 2.165c-1.475 1.203-3.207 2.046-5.015 2.617-1.012.405-2.122.621-3.209.458-.972-.18-1.855-.657-2.691-1.165l-1.2-.669-.326-.176c-.051-.033-.109-.062-.169-.092-.134-.067-.273-.137-.338-.262-.433-.013-.96-.101-1.355-.168l-.431-.067c-2.384-.427-4.908-.815-7.268-.068-.85.263-1.706.57-2.404 1.139l-.473.389-.045.039-.174.217-.33.411-1.786 2.321c-.628.846-1.123 1.773-1.619 2.701l-.896 1.61c-.585.999-1.084 2.042-1.544 3.102.384-.481.8-.936 1.268-1.34.668-.574 1.431-1.023 2.199-1.446l.231-.113c.864-.418 1.729-.838 2.462-1.472.481-.363.876-.813 1.272-1.263l.936-.985a9.79 9.79 0 0 1 5.701-2.275 15.99 15.99 0 0 1 6.253 1.01z"/></g></g><g class="D C"><path d="M120.231 159.444a2.45 2.45 0 0 1 .803 1.713c.01.133.018.166.159.145 1.444-.093 2.674 1.153 2.6 2.623-.047.911-.51 1.597-1.253 2.083-.648.416-1.364.629-2.102.778-1.184.232-2.366.273-3.56.101-.133-.02-.266-.066-.411-.098-.174-.029-.274-.157-.333-.314-.131-.285-.19-.58-.237-.893-.237-1.328-.279-2.667-.042-4 .118-.593.301-1.15.644-1.661.787-1.19 2.335-1.471 3.458-.689.1.054.191.122.274.212zm11.781-93.478c-.452.443-.718 1.006-.731 1.658-.007.128-.014.16-.15.142-1.384-.058-2.534 1.162-2.431 2.568.065.871.523 1.517 1.246 1.967.629.384 1.319.572 2.028.698 1.139.196 2.272.21 3.411.018.127-.022.253-.069.392-.102.165-.032.258-.157.312-.308.119-.275.169-.559.206-.861.198-1.276.209-2.559-.048-3.829-.126-.565-.313-1.095-.653-1.576-.78-1.122-2.268-1.356-3.325-.583a.97.97 0 0 0-.257.209z"/></g><path d="M94.177 100.189c-.892-.322-1.826-.316-2.717.089-.177.074-.225.085-.289-.109-.822-1.909-3.218-2.671-5.052-1.618-1.136.654-1.712 1.693-1.849 2.962-.11 1.1.084 2.155.374 3.196a15.09 15.09 0 0 0 2.191 4.622c.112.158.257.298.393.464.151.202.38.247.619.221.45-.018.866-.135 1.298-.28 1.853-.562 3.595-1.38 5.146-2.552.682-.538 1.276-1.136 1.707-1.908 1.01-1.783.36-3.947-1.372-4.874a1.47 1.47 0 0 0-.449-.213z" class="B C"/><path d="M256.571 151.63c.892-.323 1.826-.316 2.716.089.177.073.225.085.29-.109.821-1.909 3.218-2.672 5.051-1.619 1.136.654 1.712 1.694 1.85 2.963.109 1.1-.084 2.155-.374 3.196a15.11 15.11 0 0 1-2.192 4.622c-.112.158-.257.298-.393.464-.15.202-.38.247-.619.221-.45-.018-.866-.135-1.298-.28-1.853-.562-3.595-1.38-5.146-2.553-.682-.537-1.276-1.135-1.707-1.907-1.01-1.783-.36-3.947 1.372-4.874a1.47 1.47 0 0 1 .45-.213z" class="C D"/><g class="B C"><path d="M370.013 120.533a2.35 2.35 0 0 0-1.397 1.154c-.063.111-.083.137-.197.06-1.211-.672-2.787-.097-3.325 1.205-.332.808-.213 1.591.232 2.317.39.625.922 1.103 1.5 1.534.929.686 1.936 1.206 3.04 1.545.123.038.257.053.396.085.162.045.301-.025.417-.136.23-.193.402-.424.57-.676.749-1.052 1.335-2.194 1.675-3.444.141-.562.211-1.119.123-1.702-.193-1.353-1.418-2.23-2.71-2.013a.97.97 0 0 0-.324.071zm-3.749-53.771c.967.649 1.639 1.579 1.883 2.755.056.229.078.284.318.207 2.487-.571 4.981 1.249 5.268 3.829.176 1.599-.435 2.923-1.592 3.981-1.01.907-2.195 1.481-3.437 1.948-1.995.739-4.042 1.146-6.168 1.183-.238.004-.482-.039-.744-.053-.31-.002-.521-.197-.668-.453-.309-.459-.495-.956-.665-1.488-.788-2.243-1.241-4.562-1.205-6.949.038-1.066.198-2.088.651-3.074 1.033-2.294 3.648-3.22 5.823-2.177a1.8 1.8 0 0 1 .536.291z"/></g><g class="D"><path d="M383.681 182.514c-.617-.721-1.433-1.176-2.407-1.262-.191-.024-.238-.037-.198-.238.226-2.066-1.484-3.911-3.598-3.898-1.31.009-2.323.629-3.069 1.665-.638.903-.99 1.917-1.25 2.966-.409 1.684-.544 3.378-.372 5.101.019.193.077.386.113.597.031.251.209.403.43.498.4.206.82.31 1.267.396 1.889.425 3.808.572 5.736.317.858-.132 1.67-.359 2.425-.819 1.758-1.053 2.259-3.256 1.209-4.917-.07-.147-.163-.282-.286-.406z" class="C"/><path d="M371.684 95.289c.038-.453.701-.453.74 0l.389 4.563a.37.37 0 0 0 .338.339l4.563.389c.453.038.453.701 0 .74l-4.563.389a.37.37 0 0 0-.338.338l-.389 4.563c-.039.453-.702.453-.74 0l-.389-4.563a.37.37 0 0 0-.339-.338l-4.562-.389c-.454-.039-.454-.702 0-.74l4.562-.389a.37.37 0 0 0 .339-.339l.389-4.563zM269.31 162.812c.039-.454.702-.454.741 0l.388 4.562c.016.181.159.324.339.339l4.563.388c.453.039.453.702 0 .741l-4.563.388c-.18.016-.323.159-.339.339l-.388 4.563c-.039.453-.702.453-.741 0l-.388-4.563c-.015-.18-.159-.323-.339-.339l-4.562-.388c-.454-.039-.454-.702 0-.741l4.562-.388a.37.37 0 0 0 .339-.339l.388-4.562zM44.03 122.264c.039-.454.702-.454.74 0l.389 4.562a.37.37 0 0 0 .339.339l4.563.389c.453.038.453.701 0 .74l-4.563.389a.37.37 0 0 0-.339.338l-.389 4.563c-.039.453-.702.453-.74 0l-.389-4.563a.37.37 0 0 0-.339-.338l-4.562-.389c-.453-.039-.453-.702 0-.74l4.563-.389a.37.37 0 0 0 .339-.339l.389-4.562zm-9.876-12.641a.25.25 0 0 1 .494 0l.259 3.041c.01.121.105.216.226.226l3.042.259a.25.25 0 0 1 0 .494l-3.042.259c-.12.01-.215.105-.226.226l-.259 3.041a.25.25 0 0 1-.494 0l-.259-3.041c-.01-.121-.106-.216-.226-.226l-3.042-.259a.25.25 0 0 1 0-.494l3.042-.259c.12-.01.216-.105.226-.226l.259-3.041z"/></g><path d="M326.447 76.475a.25.25 0 0 1 .493 0l.259 3.042c.01.12.106.215.226.226l3.042.259a.25.25 0 0 1 0 .494l-3.042.259c-.12.01-.216.106-.226.226l-.259 3.042a.25.25 0 0 1-.493 0l-.26-3.042c-.01-.12-.105-.216-.225-.226l-3.042-.259a.25.25 0 0 1 0-.494l3.042-.259c.12-.01.215-.106.225-.226l.26-3.042z" class="B"/></g><defs><clipPath id="A"><path fill="#fff" transform="translate(.826)" d="M0 0h436v280H0z"/></clipPath><clipPath id="B"><path fill="#fff" transform="matrix(.995365 -.096166 .096166 .995365 27.4541 131.731)" d="M0 0h70v47H0z"/></clipPath></defs></svg>